<?xml version="1.0" encoding="UTF-8" standalone="no"?>
<svg
   xmlns:dc="http://purl.org/dc/elements/1.1/"
   xmlns:cc="http://creativecommons.org/ns#"
   xmlns:rdf="http://www.w3.org/1999/02/22-rdf-syntax-ns#"
   xmlns:svg="http://www.w3.org/2000/svg"
   xmlns="http://www.w3.org/2000/svg"
   xmlns:xlink="http://www.w3.org/1999/xlink"
   xmlns:sodipodi="http://sodipodi.sourceforge.net/DTD/sodipodi-0.dtd"
   xmlns:inkscape="http://www.inkscape.org/namespaces/inkscape"
   inkscape:export-ydpi="96"
   inkscape:export-xdpi="96"
   inkscape:export-filename="panel-gnu-watermatk-2.png"
   sodipodi:docname="panel.svg"
   inkscape:version="1.0beta2 (2b71d25, 2019-12-03)"
   version="1.1"
   id="svg2"
   height="500"
   width="720">
  <title
     id="title4372">GuixSD Panel for a SLiM Theme</title>
  <defs
     id="defs4">
    <pattern
       patternTransform="scale(10,10)"
       id="pattern5521"
       xlink:href="#Checkerboard"
       inkscape:collect="always" />
    <filter
       color-interpolation-filters="sRGB"
       height="1.3981932"
       y="-0.19909662"
       width="1.0545793"
       x="-0.027289612"
       id="filter4246-5"
       inkscape:collect="always">
      <feGaussianBlur
         id="feGaussianBlur4248-0"
         stdDeviation="2.226875"
         inkscape:collect="always" />
    </filter>
    <filter
       color-interpolation-filters="sRGB"
       height="1.5351905"
       y="-0.26759526"
       width="1.0675759"
       x="-0.033787955"
       id="filter4291-1"
       inkscape:collect="always">
      <feGaussianBlur
         id="feGaussianBlur4293-6"
         stdDeviation="1.0771973"
         inkscape:collect="always" />
    </filter>
    <filter
       inkscape:collect="always"
       id="filter4149-1"
       style="color-interpolation-filters:sRGB">
      <feGaussianBlur
         inkscape:collect="always"
         stdDeviation="1.5605469"
         id="feGaussianBlur4151-9" />
    </filter>
    <linearGradient
       y2="63.65625"
       x2="189.3125"
       y1="63.65625"
       x1="142.96875"
       gradientTransform="matrix(0.88673584,0,0,0.88673584,315.31498,943.74222)"
       gradientUnits="userSpaceOnUse"
       id="linearGradient8344-5"
       xlink:href="#linearGradient4702-9"
       inkscape:collect="always" />
    <linearGradient
       id="linearGradient4702-9">
      <stop
         style="stop-color:#ff0000;stop-opacity:0.74846625;"
         offset="0"
         id="stop4704-1" />
      <stop
         style="stop-color:#ffb000;stop-opacity:0;"
         offset="1"
         id="stop4706-3" />
    </linearGradient>
    <linearGradient
       y2="922.07178"
       x2="78.000107"
       y1="1004.8033"
       x1="113.5146"
       gradientTransform="matrix(0.88673584,0,0,0.88673584,315.31498,187.92213)"
       gradientUnits="userSpaceOnUse"
       id="linearGradient8346-8"
       xlink:href="#linearGradient4708-8"
       inkscape:collect="always" />
    <linearGradient
       id="linearGradient4708-8">
      <stop
         style="stop-color:#ff0000;stop-opacity:0.58282208;"
         offset="0"
         id="stop4710-1" />
      <stop
         style="stop-color:#ff0000;stop-opacity:0;"
         offset="1"
         id="stop4712-6" />
    </linearGradient>
    <linearGradient
       y2="1043.709"
       x2="80.655251"
       y1="1025.709"
       x1="108.08774"
       gradientTransform="matrix(-0.49654141,0,0,0.49654141,455.19855,560.08355)"
       gradientUnits="userSpaceOnUse"
       id="linearGradient8348-8"
       xlink:href="#linearGradient4696-7-0"
       inkscape:collect="always" />
    <linearGradient
       id="linearGradient4696-7-0">
      <stop
         style="stop-color:#ffb638;stop-opacity:1;"
         offset="0"
         id="stop4698-6" />
      <stop
         style="stop-color:#ffc100;stop-opacity:1;"
         offset="1"
         id="stop4700-3" />
    </linearGradient>
    <linearGradient
       y2="63.65625"
       x2="189.3125"
       y1="63.65625"
       x1="142.96875"
       gradientTransform="matrix(-0.88673584,0,0,0.88673584,494.68501,943.74222)"
       gradientUnits="userSpaceOnUse"
       id="linearGradient8350-2"
       xlink:href="#linearGradient4702-9"
       inkscape:collect="always" />
    <pattern
       inkscape:collect="always"
       xlink:href="#Checkerboard"
       id="pattern4906"
       patternTransform="matrix(9.0000004,0,0,8.3333334,-265.15662,673.82613)" />
    <radialGradient
       r="512"
       fy="147.55556"
       fx="349"
       cy="147.55556"
       cx="349"
       gradientTransform="matrix(0.70312502,0,0,0.48828125,-2.2460461e-5,661.73718)"
       gradientUnits="userSpaceOnUse"
       id="radialGradient6228"
       xlink:href="#linearGradient7972-6-9"
       inkscape:collect="always" />
    <linearGradient
       id="linearGradient7972-6-9">
      <stop
         style="stop-color:#293034;stop-opacity:1;"
         offset="0"
         id="stop7974-2-0" />
      <stop
         style="stop-color:#1a1a1a;stop-opacity:1;"
         offset="1"
         id="stop7976-2-1" />
    </linearGradient>
    <pattern
       inkscape:isstock="true"
       inkscape:collect="always"
       patternUnits="userSpaceOnUse"
       width="2"
       height="2"
       patternTransform="translate(0,0) scale(10,10)"
       id="Checkerboard"
       inkscape:stockid="Checkerboard">
      <rect
         style="fill:black;stroke:none"
         x="0"
         y="0"
         width="1"
         height="1"
         id="rect5581" />
      <rect
         style="fill:black;stroke:none"
         x="1"
         y="1"
         width="1"
         height="1"
         id="rect5583" />
    </pattern>
    <radialGradient
       r="512"
       fy="147.55556"
       fx="349"
       cy="147.55556"
       cx="349"
       gradientTransform="matrix(1.40625,0,0,0.87890625,-4.4920922e-5,-230.76283)"
       gradientUnits="userSpaceOnUse"
       id="radialGradient5475"
       xlink:href="#linearGradient7972-6-9"
       inkscape:collect="always" />
    <filter
       id="filter4293"
       inkscape:label="Drop Shadow"
       style="color-interpolation-filters:sRGB;">
      <feFlood
         id="feFlood4283"
         result="flood"
         flood-color="rgb(0,0,0)"
         flood-opacity="0.498039" />
      <feComposite
         id="feComposite4285"
         result="composite1"
         operator="in"
         in2="SourceGraphic"
         in="flood" />
      <feGaussianBlur
         id="feGaussianBlur4287"
         result="blur"
         stdDeviation="3"
         in="composite1" />
      <feOffset
         id="feOffset4289"
         result="offset"
         dy="6"
         dx="6" />
      <feComposite
         id="feComposite4291"
         result="composite2"
         operator="over"
         in2="offset"
         in="SourceGraphic" />
    </filter>
  </defs>
  <sodipodi:namedview
     inkscape:document-rotation="0"
     inkscape:guide-bbox="true"
     showguides="true"
     fit-margin-bottom="0"
     fit-margin-right="0"
     fit-margin-left="0"
     fit-margin-top="0"
     inkscape:snap-global="false"
     inkscape:bbox-nodes="true"
     inkscape:snap-bbox="true"
     borderlayer="true"
     inkscape:showpageshadow="false"
     inkscape:window-maximized="0"
     inkscape:window-y="75"
     inkscape:window-x="1554"
     inkscape:window-height="880"
     inkscape:window-width="1280"
     showgrid="false"
     inkscape:current-layer="layer9"
     inkscape:document-units="px"
     inkscape:cy="271.21322"
     inkscape:cx="380.84717"
     inkscape:zoom="0.81263887"
     inkscape:pageshadow="2"
     inkscape:pageopacity="0.0"
     borderopacity="1.0"
     bordercolor="#666666"
     pagecolor="#ffffff"
     id="base" />
  <metadata
     id="metadata7">
    <rdf:RDF>
      <cc:Work
         rdf:about="">
        <dc:format>image/svg+xml</dc:format>
        <dc:type
           rdf:resource="http://purl.org/dc/dcmitype/StillImage" />
        <dc:title>GuixSD Panel for a SLiM Theme</dc:title>
        <dc:date>2015-03-01</dc:date>
        <dc:creator>
          <cc:Agent>
            <dc:title>Luis Felipe López Acevedo</dc:title>
          </cc:Agent>
        </dc:creator>
        <dc:description>A GuixSD panel image for the SLiM login manager.

This image is dedicated to the public domain, except for the GuixSD logo, which can be used under the  Creative Commons Attribution-ShareAlike 4.0 International License.</dc:description>
        <cc:license
           rdf:resource="http://creativecommons.org/publicdomain/zero/1.0/" />
        <dc:contributor>
          <cc:Agent>
            <dc:title />
          </cc:Agent>
        </dc:contributor>
        <dc:rights>
          <cc:Agent>
            <dc:title>Luis Felipe López Acevedo</dc:title>
          </cc:Agent>
        </dc:rights>
      </cc:Work>
      <cc:License
         rdf:about="http://creativecommons.org/publicdomain/zero/1.0/">
        <cc:permits
           rdf:resource="http://creativecommons.org/ns#Reproduction" />
        <cc:permits
           rdf:resource="http://creativecommons.org/ns#Distribution" />
        <cc:permits
           rdf:resource="http://creativecommons.org/ns#DerivativeWorks" />
      </cc:License>
    </rdf:RDF>
  </metadata>
  <g
     style="display:inline"
     transform="translate(0,-552.36218)"
     id="layer1"
     inkscape:groupmode="layer"
     inkscape:label="Background">
    <rect
       y="552.36218"
       x="0"
       height="500"
       width="720"
       id="rect4050"
       style="display:inline;fill:url(#radialGradient6228);fill-opacity:1;stroke:none" />
    <g
       inkscape:export-ydpi="90"
       inkscape:export-xdpi="90"
       inkscape:export-filename="background.png"
       id="g5529">
      <rect
         y="-427.63782"
         x="0"
         height="900"
         width="1440"
         id="rect5471"
         style="display:inline;fill:url(#radialGradient5475);fill-opacity:1;stroke:none" />
      <rect
         style="display:inline;opacity:0.05;fill:url(#pattern5521);fill-opacity:1;stroke:none"
         id="rect5485"
         width="1440"
         height="900"
         x="0"
         y="-427.63782" />
    </g>
  </g>
  <g
     transform="translate(0,49.999997)"
     style="display:inline"
     inkscape:label="Panel area"
     id="layer10"
     inkscape:groupmode="layer">
    <rect
       inkscape:export-ydpi="96"
       inkscape:export-xdpi="96"
       inkscape:export-filename="panel.png"
       y="-49.999996"
       x="0"
       height="420"
       width="720"
       id="rect4013"
       style="opacity:0;fill:#125c83;fill-opacity:1;stroke:none" />
  </g>
  <g
     style="display:inline"
     transform="translate(0,49.999995)"
     inkscape:label="Input box"
     id="layer2"
     inkscape:groupmode="layer">
    <g
       id="g3939"
       style="display:inline">
      <rect
         ry="4"
         rx="4"
         y="295.65918"
         x="385.84958"
         height="32.284264"
         width="201"
         id="rect4135"
         style="opacity:0.5;fill:none;stroke:#ffffff;stroke-width:1;stroke-opacity:1" />
      <rect
         style="opacity:0.6;fill:#ffffff;fill-opacity:1;stroke:#ffffff;stroke-opacity:1"
         id="rect3188"
         width="196"
         height="27"
         x="388.34958"
         y="298.3013"
         rx="3"
         ry="3" />
      <path
         style="opacity:0.4;fill:#000000;fill-opacity:1;stroke:none;filter:url(#filter4246-5)"
         d="m 391.34959,298.3013 c -1.662,0 -3,1.338 -3,3 v 21 c 0,1.36076 0.91892,2.47391 2.15625,2.84375 -0.0819,-0.27391 -0.15625,-0.54251 -0.15625,-0.84375 v -21 c 0,-1.662 1.338,-3 3,-3 h 190 c 0.30124,0 0.56984,0.0744 0.84375,0.15625 -0.36984,-1.23733 -1.48299,-2.15625 -2.84375,-2.15625 z"
         id="rect4164"
         inkscape:connector-curvature="0" />
    </g>
  </g>
  <g
     style="display:inline"
     transform="translate(0,185)"
     inkscape:label="Username label"
     id="layer9"
     inkscape:groupmode="layer">
    <g
       transform="translate(10.349589,-1.6987)"
       id="g4295"
       style="display:inline">
      <text
         id="text4250"
         y="183.14648"
         x="361.25732"
         style="font-style:normal;font-weight:bold;line-height:0%;font-family:sans-serif;-inkscape-font-specification:'Sans Bold';text-align:end;letter-spacing:0px;word-spacing:0px;writing-mode:lr-tb;text-anchor:end;opacity:0.5;fill:#000000;fill-opacity:1;stroke:none;filter:url(#filter4291-1)"
         xml:space="preserve"><tspan
           style="font-size:13px;line-height:1.25;font-family:sans-serif"
           y="183.14648"
           x="361.25732"
           id="tspan4252"
           sodipodi:role="line">Username:</tspan></text>
      <text
         xml:space="preserve"
         style="font-style:normal;font-weight:bold;line-height:0%;font-family:sans-serif;-inkscape-font-specification:'Sans Bold';text-align:end;letter-spacing:0px;word-spacing:0px;writing-mode:lr-tb;text-anchor:end;fill:#ffffff;fill-opacity:1;stroke:none"
         x="361.25732"
         y="181.14648"
         id="text4131"><tspan
           style="font-size:13px;line-height:1.25;font-family:sans-serif"
           sodipodi:role="line"
           id="tspan4133"
           x="361.25732"
           y="181.14648">User name:</tspan></text>
    </g>
  </g>
  <g
     sodipodi:insensitive="true"
     transform="translate(0,49.999997)"
     style="display:none"
     inkscape:label="GuixSD logo"
     id="layer7"
     inkscape:groupmode="layer">
    <text
       id="text3917"
       y="246.35326"
       x="168.29141"
       style="font-style:normal;font-weight:normal;line-height:0%;font-family:sans-serif;-inkscape-font-specification:Sans;text-align:center;letter-spacing:0px;word-spacing:0px;writing-mode:lr-tb;text-anchor:middle;fill:#000000;fill-opacity:1;stroke:none"
       xml:space="preserve"><tspan
         style="font-size:13px;line-height:1.25;font-family:sans-serif"
         y="246.35326"
         x="170.57657"
         id="tspan3919"
         sodipodi:role="line"> </tspan></text>
    <text
       transform="scale(1.0007534,0.99924721)"
       xml:space="preserve"
       style="font-style:normal;font-weight:normal;line-height:0%;font-family:sans-serif;-inkscape-font-specification:Sans;text-align:center;letter-spacing:0px;word-spacing:0px;writing-mode:lr-tb;text-anchor:middle;fill:#000000;fill-opacity:1;stroke:none"
       x="160.68236"
       y="246.25459"
       id="text3917-1"><tspan
         style="font-size:12.9231px;line-height:1.25;font-family:sans-serif"
         sodipodi:role="line"
         id="tspan3919-5"
         x="162.95399"
         y="246.25459"> </tspan></text>
    <path
       transform="matrix(0.99483657,0,0,0.99333932,-6.6190419,1.35684)"
       style="font-style:normal;font-weight:bold;font-size:144px;line-height:125%;font-family:Sans;-inkscape-font-specification:'Sans Bold';letter-spacing:0px;word-spacing:0px;opacity:0.305;fill:#000000;fill-opacity:1;stroke:none;filter:url(#filter4149-1)"
       d="m 102.1875,149.75 -6.65625,2.5 c 2.474408,6.11332 5.10945,11.35219 7.875,15.71875 2.6927,4.36666 5.71468,8.00549 9.0625,10.84375 3.34769,2.76556 7.0705,4.7838 11.21875,6.09375 3.88892,1.22813 8.27689,1.83245 13.125,1.90625 0.31902,0.01 0.64545,0.0263 0.96875,0.0313 0.32313,0.005 0.64134,0 0.96875,0 0.63953,-0.005 1.27209,-0.0166 1.875,-0.0313 2.21532,-0.0338 4.24099,-0.11933 6,-0.28125 0.46239,-0.0426 0.88094,-0.0731 1.3125,-0.125 0.6078,0.27426 1.20839,0.65153 1.8125,1.15625 -0.1052,-0.14308 -0.43778,-0.59991 -0.9375,-1.21875 12.30874,5.09772 23.8368,60.69172 35.8125,87.375 v 0.0313 h 29.1875 c 0.004,-0.008 -0.004,-0.0228 0,-0.0313 11.34055,-25.26834 22.26408,-76.46762 33.84375,-86.15625 0.3341,-0.27913 0.66477,-0.50213 1,-0.71875 0.14784,-0.0955 0.28943,-0.20064 0.4375,-0.28125 0.0208,-0.011 0.0417,-0.0205 0.0625,-0.0313 0.16791,-0.089 0.36305,-0.15156 0.53125,-0.21875 2.00557,0.28054 4.35072,0.43339 7.09375,0.5 0.91434,0.0222 1.87621,0.0313 2.875,0.0313 5.23995,4e-5 9.94536,-0.62747 14.09375,-1.9375 4.14825,-1.30995 7.87093,-3.32819 11.21875,-6.09375 3.34769,-2.83826 6.36967,-6.47709 9.0625,-10.84375 2.76555,-4.36656 5.40059,-9.60543 7.875,-15.71875 l -6.65625,-2.5 c -2.11055,3.85725 -4.25423,7.02565 -6.4375,9.5 -2.11055,2.40169 -4.45287,4.29453 -7,5.75 -0.59839,0.33441 -1.20656,0.64861 -1.84375,0.9375 -0.0215,0.01 -0.0409,0.0215 -0.0625,0.0313 -1.9802,0.89115 -4.15295,1.56338 -6.5,2 -3.05668,0.50949 -6.55968,0.78129 -10.5625,0.78125 -2.95256,4e-5 -5.60787,-0.14997 -7.9375,-0.4375 -0.0132,-5.9e-4 -0.022,6.8e-4 -0.0313,0 -0.29536,-0.0214 -0.90067,-0.11995 -1.53125,-0.21875 -0.66423,-0.10399 -1.36691,-0.20816 -2.4375,-0.40625 -19.6237,-3.63084 -26.12518,9.99147 -27.53125,13.75 -0.22014,0.58832 -0.3125,0.9375 -0.3125,0.9375 l -23.8437,66.5 -23.84375,-66.5 c 0,0 -0.12361,-0.34918 -0.34375,-0.9375 -1.40607,-3.75854 -7.90755,-17.38085 -27.53125,-13.75 -1.07059,0.19809 -1.74202,0.30226 -2.40625,0.40625 -0.63058,0.0988 -1.23589,0.19751 -1.53125,0.21875 -0.009,6.6e-4 -0.0493,-5.9e-4 -0.0625,0 -2.32976,0.28753 -4.98481,0.43754 -7.9375,0.4375 -4.00268,6e-5 -7.50595,-0.27176 -10.5625,-0.78125 -0.78235,-0.14554 -1.53931,-0.30303 -2.28125,-0.5 -2.22582,-0.5909 -4.26919,-1.43163 -6.125,-2.46875 -2.54726,-1.45547 -4.88945,-3.34831 -7,-5.75 -2.1834,-2.47435 -4.2957,-5.64275 -6.40625,-9.5 l -0.8125,0.3125 c -0.06,-0.10845 -0.12753,-0.20289 -0.1875,-0.3125 z m 285.78125,55.46875 v 12.875 h 15.8125 v -12.875 z m -92.4375,1.5625 c -11.35335,1.4e-4 -20.31415,3.06778 -26.84375,9.15625 -6.52963,6.08847 -9.78125,14.44448 -9.78125,25.0625 0,10.50038 3.21301,18.82153 9.625,24.96875 6.41195,6.11777 15.09153,9.15625 26.0625,9.15625 4.85306,0 9.56598,-0.50188 14.125,-1.53125 4.55891,-1.02951 8.952,-2.56611 13.1875,-4.625 v -31.6875 H 295.4375 v 11.375 h 10.375 v 12.8125 c -1.20597,0.47066 -2.59559,0.82723 -4.125,1.0625 -1.5001,0.20622 -3.11028,0.28125 -4.875,0.28125 -6.50024,0 -11.53301,-1.89318 -15.0625,-5.6875 -3.52955,-3.79419 -5.28128,-9.15423 -5.28125,-16.125 -3e-5,-7.02966 1.82156,-12.45387 5.46875,-16.21875 3.67655,-3.79432 8.89129,-5.6875 15.65625,-5.6875 3.64713,0 7.28844,0.53313 10.90625,1.5625 3.64712,1.02938 7.2921,2.56806 10.96875,4.65625 v -13.625 c -3.559,-1.61766 -7.34551,-2.83256 -11.375,-3.65625 -4.00019,-0.82342 -8.18005,-1.24986 -12.5625,-1.25 z m 203.3125,0 c -7.94146,1.4e-4 -14.01458,1.78302 -18.25,5.3125 -4.23544,3.52962 -6.375,8.56601 -6.375,15.125 0,5.23547 1.53298,9.41174 4.5625,12.5 3.0589,3.0884 7.88028,5.33829 14.46875,6.75 l 6.5625,1.4375 c 4.00009,0.88243 6.6764,1.8823 8,3 1.35295,1.1177 2.03121,2.72236 2.03125,4.78125 -4e-5,2.29415 -0.99815,4.04592 -2.96875,5.28125 -1.9707,1.23533 -4.79403,1.84375 -8.5,1.84375 -3.64721,0 -7.46498,-0.53855 -11.40625,-1.65625 -3.91191,-1.147 -7.95024,-2.85835 -12.15625,-5.09375 v 14.34375 c 4.20601,1.55878 8.38772,2.73714 12.59375,3.53125 4.20599,0.79411 8.41712,1.1875 12.59375,1.1875 8.85319,0 15.42445,-1.75177 19.71875,-5.28125 4.32361,-3.55892 6.4687,-8.98508 6.46875,-16.25 -5e-5,-5.52962 -1.53671,-9.78118 -4.625,-12.78125 -3.08838,-3.00007 -8.30128,-5.24815 -15.625,-6.71875 l -7.21875,-1.4375 c -3.44132,-0.70578 -5.8327,-1.56062 -7.15625,-2.53125 -1.29417,-1.00007 -1.93751,-2.36026 -1.9375,-4.125 -10e-6,-2.35303 0.96498,-4.10091 2.90625,-5.21875 1.9412,-1.11756 4.94102,-1.6875 9,-1.6875 3.05889,0 6.30867,0.42644 9.75,1.25 3.44124,0.82355 6.97593,2.03858 10.59375,3.65625 v -13.9375 c -4.08843,-1.08826 -8.0514,-1.90796 -11.875,-2.4375 -3.8237,-0.55872 -7.53853,-0.84361 -11.15625,-0.84375 z M 532.375,208 v 65.84375 h 17.90625 c 9.88264,0 17.30861,-0.6819 22.25,-2.09375 4.94127,-1.44129 9.15791,-3.8694 12.6875,-7.28125 3.08826,-2.97063 5.40615,-6.39887 6.90625,-10.28125 1.49998,-3.91182 2.24993,-8.37285 2.25,-13.34375 -7e-5,-4.91175 -0.75002,-9.30499 -2.25,-13.1875 -1.5001,-3.88251 -3.81799,-7.31048 -6.90625,-10.28125 -3.50017,-3.41171 -7.71313,-5.80691 -12.625,-7.21875 C 567.71119,208.71509 560.28154,208 550.28125,208 Z m 16.96875,12.8125 h 6.09375 c 6.97077,0 12.29028,1.71315 15.9375,5.125 3.64713,3.41198 5.46871,8.37669 5.46875,14.90625 -4e-5,6.55913 -1.82348,11.55871 -5.5,15 -3.64722,3.44129 -8.96489,5.1875 -15.90625,5.1875 h -6.09375 z m -220.03125,3.625 v 30.1875 c 0,6.67677 1.4668,11.74983 4.4375,15.25 3.00008,3.50004 7.35642,5.25 13.0625,5.25 3.20596,0 6.13407,-0.67828 8.78125,-2.03125 2.67653,-1.3824 5.21128,-3.49256 7.59375,-6.375 v 7.125 H 379 V 224.4375 h -15.8125 v 24.40625 c -4e-5,4.5001 -0.93013,8.00184 -2.8125,10.53125 -1.88246,2.52955 -4.48706,3.8125 -7.78125,3.8125 -1.35302,0 -2.56617,-0.28476 -3.625,-0.84375 -1.02947,-0.55885 -1.85295,-1.34549 -2.5,-2.375 -0.50003,-0.79412 -0.85664,-2.07706 -1.0625,-3.8125 -0.20593,-1.76474 -0.31251,-4.62305 -0.3125,-8.59375 0,-1.35296 0.0331,-4.03278 0.0625,-8.0625 0.0295,-4.05875 0.0312,-7.44838 0.0313,-10.125 v -4.9375 h -15.875 z m 58.65625,0 v 49.40625 h 15.8125 V 224.4375 Z m 25.71875,0 17.84375,24.125 -18.71875,25.28125 h 16.71875 l 11,-15.59375 11.09375,15.59375 h 16.75 L 449.65625,248.5 467.46875,224.4375 H 450.75 l -10.21875,14.65625 -10.125,-14.65625 z"
       id="path5227-6"
       inkscape:connector-curvature="0" />
    <g
       id="g4367"
       transform="matrix(0.99483657,0,0,0.99333932,1.3396507,1.35684)">
      <path
         d="m 311.53059,260.95331 c -4.28083,2.08092 -8.72509,3.64165 -13.33279,4.68218 -4.60781,1.04039 -9.3642,1.56059 -14.2692,1.56059 -11.08838,0 -19.87285,-3.0917 -26.35342,-9.27495 -6.48061,-6.21301 -9.7209,-14.62583 -9.7209,-25.23859 0,-10.73166 3.29975,-19.17424 9.89926,-25.32787 6.59948,-6.15363 15.63663,-9.23031 27.11148,-9.23044 4.42935,1.3e-4 8.66551,0.41632 12.7085,1.24855 4.07262,0.8325 7.90746,2.06618 11.50454,3.70116 v 13.77858 c -3.716,-2.11054 -7.41706,-3.68615 -11.10322,-4.72654 -3.65652,-1.04039 -7.32787,-1.56072 -11.01403,-1.56072 -6.83737,0 -12.11399,1.91739 -15.8299,5.75232 -3.68622,3.80517 -5.52934,9.26007 -5.52931,16.36496 -3e-5,7.04537 1.78363,12.48553 5.35095,16.32032 3.56727,3.83493 8.6358,5.75232 15.20562,5.75232 1.7836,0 3.43347,-0.10374 4.94963,-0.31217 1.54578,-0.23778 2.9281,-0.59445 4.14698,-1.07015 v -12.93147 h -10.47895 v -11.50451 h 26.75476 v 32.01643"
         style="font-style:normal;font-weight:bold;font-size:144px;line-height:125%;font-family:Sans;-inkscape-font-specification:'Sans Bold';letter-spacing:0px;word-spacing:0px;fill:#ffffff;fill-opacity:1;stroke:none"
         id="path4181"
         inkscape:connector-curvature="0" />
      <path
         d="m 319.01201,246.46112 v -30.50035 h 16.05285 v 4.99421 c -3e-5,2.70527 -0.0149,6.10914 -0.0446,10.21133 -0.0298,4.07285 -0.0446,6.79285 -0.0446,8.1603 -1e-5,4.01319 0.10401,6.9116 0.31215,8.69523 0.20806,1.75401 0.5648,3.03218 1.07019,3.83479 0.65397,1.04053 1.50121,1.84315 2.5417,2.40798 1.07016,0.56496 2.28898,0.84724 3.65648,0.84724 3.32945,0 5.94546,-1.27817 7.84806,-3.83479 1.90251,-2.55648 2.8538,-6.10899 2.85384,-10.65726 v -24.65903 h 15.96366 v 49.94225 h -15.96366 v -7.22377 c -2.40797,2.91329 -4.96452,5.06846 -7.66969,6.46566 -2.67551,1.36744 -5.6334,2.05117 -8.87367,2.05117 -5.76715,0 -10.16681,-1.76875 -13.19901,-5.30625 -3.00249,-3.53764 -4.50371,-8.68049 -4.50371,-15.42871"
         style="font-style:normal;font-weight:bold;font-size:144px;line-height:125%;font-family:Sans;-inkscape-font-specification:'Sans Bold';letter-spacing:0px;word-spacing:0px;fill:#ffffff;fill-opacity:1;stroke:none"
         id="path4183"
         inkscape:connector-curvature="0" />
      <path
         d="m 378.30846,215.96077 h 15.96366 v 49.94225 h -15.96366 v -49.94225 m 0,-19.44177 h 15.96366 v 13.02061 H 378.30846 V 196.519"
         style="font-style:normal;font-weight:bold;font-size:144px;line-height:125%;font-family:Sans;-inkscape-font-specification:'Sans Bold';letter-spacing:0px;word-spacing:0px;fill:#ffffff;fill-opacity:1;stroke:none"
         id="path4185"
         inkscape:connector-curvature="0" />
      <path
         d="m 422.32002,240.35212 -18.01487,-24.39135 h 16.90009 l 10.21139,14.80423 10.34517,-14.80423 h 16.90008 l -18.01486,24.30222 18.90668,25.64003 h -16.90007 l -11.237,-15.78538 -11.10322,15.78538 h -16.90007 l 18.90668,-25.5509"
         style="font-style:normal;font-weight:bold;font-size:144px;line-height:125%;font-family:Sans;-inkscape-font-specification:'Sans Bold';letter-spacing:0px;word-spacing:0px;fill:#ffffff;fill-opacity:1;stroke:none"
         id="path4187"
         inkscape:connector-curvature="0" />
      <path
         d="m 513.64289,201.42408 v 14.09075 c -3.65654,-1.63498 -7.22383,-2.86865 -10.7019,-3.70102 -3.47816,-0.83237 -6.76304,-1.24855 -9.85467,-1.24855 -4.10242,0 -7.13463,0.56483 -9.09661,1.69435 -1.96204,1.1298 -2.94304,2.88367 -2.94303,5.26189 -10e-6,1.78363 0.65399,3.18083 1.96202,4.1916 1.33771,0.98101 3.74564,1.82826 7.22379,2.5416 l 7.31296,1.47159 c 7.4021,1.48634 12.66386,3.74566 15.7853,6.77784 3.12134,3.03218 4.68202,7.34267 4.68208,12.93147 -6e-5,7.34267 -2.18503,12.81258 -6.55491,16.40959 -4.34026,3.56726 -10.98436,5.35089 -19.93229,5.35089 -4.22133,0 -8.4575,-0.40131 -12.7085,-1.20392 -4.25105,-0.80261 -8.50208,-1.99179 -12.7531,-3.56726 v -14.49219 c 4.25102,2.25932 8.3534,3.9687 12.30718,5.12798 3.98346,1.12966 7.8183,1.69449 11.50454,1.69449 3.74563,0 6.61433,-0.62434 8.60612,-1.87289 1.99169,-1.24856 2.98757,-3.03219 2.98761,-5.35089 -4e-5,-2.08092 -0.68377,-3.68614 -2.0512,-4.81581 -1.33777,-1.12966 -4.02812,-2.14043 -8.07102,-3.03231 l -6.6441,-1.47146 c -6.65897,-1.42682 -11.53428,-3.70102 -14.62592,-6.82247 -3.06193,-3.12132 -4.5929,-7.32779 -4.5929,-12.6193 0,-6.62919 2.14036,-11.72741 6.42114,-15.29481 4.28074,-3.56725 10.43433,-5.35088 18.46078,-5.35101 3.65644,1.3e-4 7.41697,0.28255 11.28158,0.84724 3.86453,0.53521 7.86287,1.3527 11.99505,2.45261"
         style="font-style:normal;font-weight:bold;font-size:144px;line-height:125%;font-family:Sans;-inkscape-font-specification:'Sans Bold';letter-spacing:0px;word-spacing:0px;fill:#cccccc;fill-opacity:1;stroke:none"
         id="path4194"
         inkscape:connector-curvature="0" />
      <path
         d="m 541.41827,212.30438 v 40.62254 h 6.15361 c 7.01564,0 12.36659,-1.73899 16.05285,-5.21711 3.71587,-3.47812 5.57385,-8.53185 5.57389,-15.16118 -4e-5,-6.59943 -1.84315,-11.62327 -5.52931,-15.07177 -3.68626,-3.44836 -9.05206,-5.17248 -16.09743,-5.17248 h -6.15361 m -17.16762,-12.9761 h 18.10404 c 10.10732,0 17.62836,0.72836 22.56317,2.18493 4.96444,1.42696 9.21547,3.86469 12.75311,7.31292 3.12131,3.00256 5.44007,6.4658 6.95623,10.38986 1.51603,3.92406 2.27408,8.36832 2.27415,13.33264 -7e-5,5.02411 -0.75812,9.513 -2.27415,13.46668 -1.51616,3.92393 -3.83492,7.38731 -6.95623,10.38973 -3.56737,3.44837 -7.84813,5.90084 -12.84228,7.35755 -4.99427,1.42696 -12.48559,2.14043 -22.474,2.14043 h -18.10404 v -66.57474"
         style="font-style:normal;font-weight:bold;font-size:144px;line-height:125%;font-family:Sans;-inkscape-font-specification:'Sans Bold';letter-spacing:0px;word-spacing:0px;fill:#cccccc;fill-opacity:1;stroke:none"
         id="path4196"
         inkscape:connector-curvature="0" />
      <g
         id="g3151"
         transform="matrix(1.3649862,0,0,1.3649862,-360.33371,-1206.7286)">
        <path
           id="path3153"
           d="m 478.14185,985.86217 c -1.59921,2.9227 -3.22274,5.30216 -4.87705,7.17702 -1.59919,1.8198 -3.36267,3.27542 -5.2927,4.37826 -1.87492,1.04778 -4.00222,1.80343 -6.37342,2.24455 -2.31606,0.386 -4.97539,0.582 -8.00833,0.5819 -2.23727,0 -4.2479,-0.1146 -6.01318,-0.33251 -0.007,-4.5e-4 -0.0206,5.1e-4 -0.0278,0 -0.2238,-0.0162 -0.68603,-0.0914 -1.16384,-0.16626 -0.50327,-0.0788 -1.01771,-0.15473 -1.8289,-0.30482 -14.86919,-2.75115 -19.80057,7.57129 -20.866,10.41919 -0.16677,0.4457 -0.24939,0.7204 -0.24939,0.7204 l -18.06725,50.3777 -11.08419,18.8432 h 22.14068 c 9.09339,-20.2468 17.83579,-62.5215 27.184,-66.2558 2.0262,0.2834 4.53775,0.4156 7.56496,0.4156 3.9704,0 7.52531,-0.476 10.66854,-1.4686 3.14322,-0.9926 5.97048,-2.5322 8.50713,-4.6277 2.53662,-2.1506 4.83185,-4.8936 6.8722,-8.2023 2.09547,-3.30862 4.08282,-7.28335 5.95775,-11.91551 l -5.04326,-1.88432 z"
           style="font-style:normal;font-weight:bold;font-size:144px;line-height:125%;font-family:Sans;-inkscape-font-specification:'Sans Bold';letter-spacing:0px;word-spacing:0px;fill:#ffcc00;fill-opacity:1;stroke:none"
           inkscape:connector-curvature="0" />
        <path
           style="font-style:normal;font-weight:bold;font-size:144px;line-height:125%;font-family:Sans;-inkscape-font-specification:'Sans Bold';letter-spacing:0px;word-spacing:0px;fill:url(#linearGradient8344-5);fill-opacity:1;stroke:none"
           d="m 478.14185,985.86217 c -1.59921,2.9227 -3.22274,5.30216 -4.87705,7.17702 -1.59919,1.8198 -3.36267,3.27542 -5.2927,4.37826 -0.45791,0.2559 -0.92534,0.47204 -1.41324,0.69276 -0.0115,0.005 -0.0161,0.0225 -0.0277,0.0277 -0.62505,0.44207 -1.42795,0.8203 -2.52166,1.08071 -12.72116,3.02888 -21.34414,14.51428 -21.919,15.29618 0.50631,-0.423 1.01432,-0.7662 1.52408,-0.9698 2.0262,0.2834 4.53775,0.4156 7.56496,0.4156 3.9704,0 7.52531,-0.476 10.66854,-1.4686 3.14322,-0.9926 5.97048,-2.5322 8.50713,-4.6277 2.53662,-2.1506 4.83185,-4.8936 6.8722,-8.20231 2.09547,-3.30862 4.08282,-7.28335 5.95775,-11.91551 l -5.04326,-1.88432 z"
           id="path3155"
           inkscape:connector-curvature="0" />
        <path
           id="path3157"
           d="m 332.60633,985.86218 c 1.59921,2.9227 3.22273,5.30215 4.87705,7.17701 1.59919,1.81981 3.36267,3.27542 5.2927,4.37826 1.87491,1.04779 4.00222,1.80344 6.37341,2.24455 2.31607,0.3861 4.9754,0.582 8.00834,0.5819 2.23727,0 4.2479,-0.1146 6.01317,-0.3325 0.007,-4.6e-4 0.0206,5e-4 0.0278,0 0.22379,-0.0161 0.68602,-0.0914 1.16384,-0.16627 0.50327,-0.0788 1.01771,-0.15472 1.82889,-0.30481 14.8692,-2.75116 19.80058,7.57128 20.86601,10.41918 0.16676,0.4457 0.24939,0.7204 0.24939,0.7204 l 18.06724,50.3777 11.0842,18.8432 h -22.14068 c -9.09339,-20.2468 -17.83579,-62.5215 -27.184,-66.2558 -2.0262,0.2834 -4.53776,0.4156 -7.56497,0.4156 -3.97039,0 -7.52531,-0.476 -10.66854,-1.4686 -3.14321,-0.9926 -5.97048,-2.5322 -8.50712,-4.6277 -2.53662,-2.1506 -4.83185,-4.8936 -6.8722,-8.2023 -2.09547,-3.30861 -4.08282,-7.28334 -5.95776,-11.91551 l 5.04331,-1.88431 z"
           style="font-style:normal;font-weight:bold;font-size:144px;line-height:125%;font-family:Sans;-inkscape-font-specification:'Sans Bold';letter-spacing:0px;word-spacing:0px;fill:#ffcc00;fill-opacity:1;stroke:none"
           inkscape:connector-curvature="0" />
        <path
           inkscape:connector-curvature="0"
           style="font-style:normal;font-weight:bold;font-size:144px;line-height:125%;font-family:Sans;-inkscape-font-specification:'Sans Bold';letter-spacing:0px;word-spacing:0px;fill:url(#linearGradient8346-8);fill-opacity:1;stroke:none"
           d="m 332.60633,985.86218 c 1.59921,2.9227 3.22273,5.30215 4.87705,7.17701 1.59919,1.81981 3.36267,3.27542 5.2927,4.37826 1.87491,1.04779 4.00222,1.80344 6.37341,2.24455 2.31607,0.3861 4.9754,0.582 8.00834,0.5819 2.23727,0 4.2479,-0.1146 6.01317,-0.3325 0.007,-4.6e-4 0.0206,5e-4 0.0278,0 0.22379,-0.0161 0.68602,-0.0914 1.16384,-0.16627 0.50327,-0.0788 1.01771,-0.15472 1.82889,-0.30481 14.8692,-2.75116 19.80058,7.57128 20.86601,10.41918 0.16676,0.4457 0.24939,0.7204 0.24939,0.7204 l 18.06724,50.3777 9.31073,18.8432 h -20.36721 c -9.09339,-20.2468 -17.83579,-62.5215 -27.184,-66.2558 -2.0262,0.2834 -4.53776,0.4156 -7.56497,0.4156 -3.97039,0 -7.52531,-0.476 -10.66854,-1.4686 -3.14321,-0.9926 -5.97048,-2.5322 -8.50712,-4.6277 -2.53662,-2.1506 -4.83185,-4.8936 -6.8722,-8.2023 -2.09547,-3.30861 -4.08282,-7.28334 -5.95776,-11.91551 l 5.04331,-1.88431 z"
           id="path3159"
           sodipodi:nodetypes="ccccccccsscccccccccccc" />
        <path
           sodipodi:nodetypes="ccc"
           d="m 405.33584,1060.9581 -11.0407,18.8511 h 22.12962"
           style="font-style:normal;font-weight:bold;font-size:144px;line-height:125%;font-family:Sans;-inkscape-font-specification:'Sans Bold';letter-spacing:0px;word-spacing:0px;fill:url(#linearGradient8348-8);fill-opacity:1;stroke:none"
           id="path3161"
           inkscape:connector-curvature="0" />
        <path
           id="path3163"
           d="m 331.85815,985.86218 c 1.59921,2.9227 3.22273,5.30215 4.87704,7.17701 1.5992,1.81981 3.36267,3.27542 5.29271,4.37826 0.45791,0.25591 0.92533,0.47204 1.41323,0.69276 0.0115,0.005 0.0161,0.0225 0.0278,0.0278 0.62504,0.44207 1.42794,0.8203 2.52165,1.08071 12.72117,3.02878 21.34414,14.51428 21.919,15.29618 -0.5063,-0.423 -1.01432,-0.7663 -1.52407,-0.9699 -2.0262,0.2834 -4.53776,0.4157 -7.56497,0.4157 -3.97039,0 -7.52531,-0.4761 -10.66854,-1.4687 -3.14321,-0.9926 -5.97048,-2.5321 -8.50712,-4.6276 -2.53662,-2.1506 -4.83185,-4.8937 -6.8722,-8.20231 -2.09548,-3.30862 -4.08283,-7.28335 -5.95776,-11.91552 l 5.04331,-1.88431 z"
           style="font-style:normal;font-weight:bold;font-size:144px;line-height:125%;font-family:Sans;-inkscape-font-specification:'Sans Bold';letter-spacing:0px;word-spacing:0px;fill:url(#linearGradient8350-2);fill-opacity:1;stroke:none"
           inkscape:connector-curvature="0" />
      </g>
    </g>
  </g>
  <g
     style="display:inline"
     inkscape:label="README"
     id="layer3"
     inkscape:groupmode="layer">
    <text
       id="text4186"
       y="519"
       x="3.597168"
       style="font-style:normal;font-weight:bold;line-height:0%;font-family:sans-serif;-inkscape-font-specification:'Sans Bold';text-align:start;letter-spacing:0px;word-spacing:0px;writing-mode:lr-tb;text-anchor:start;fill:#000000;fill-opacity:1;stroke:none"
       xml:space="preserve"><tspan
         style="font-size:13px;line-height:1.25;font-family:sans-serif"
         y="519"
         x="3.597168"
         id="tspan4188"
         sodipodi:role="line">====================</tspan><tspan
         style="font-size:13px;line-height:1.25;font-family:sans-serif"
         id="tspan4192"
         y="535.25"
         x="3.597168"
         sodipodi:role="line">Notes About This Image</tspan><tspan
         style="font-size:13px;line-height:1.25;font-family:sans-serif"
         id="tspan4190"
         y="551.5"
         x="3.597168"
         sodipodi:role="line">====================</tspan></text>
    <text
       id="text4194"
       y="573.47021"
       x="5"
       style="font-style:normal;font-weight:normal;line-height:0%;font-family:sans-serif;-inkscape-font-specification:Sans;text-align:start;letter-spacing:0px;word-spacing:0px;writing-mode:lr-tb;text-anchor:start;fill:#1a1a1a;fill-opacity:1;stroke:none"
       xml:space="preserve"><tspan
         style="font-size:13px;line-height:1.25;font-family:sans-serif"
         y="573.47021"
         x="5"
         id="tspan4196"
         sodipodi:role="line">This image is used as the Panel for a SLiM theme. More information about SLiM themes is available in the</tspan><tspan
         style="font-size:13px;line-height:1.25;font-family:sans-serif"
         id="tspan4198"
         y="589.72021"
         x="5"
         sodipodi:role="line">THEME file in the latest slim-x.y.z.tar.gz tarball which is available at:</tspan><tspan
         style="font-size:13px;line-height:1.25;font-family:sans-serif"
         id="tspan4289"
         y="605.97021"
         x="5"
         sodipodi:role="line"> </tspan><tspan
         style="font-size:13px;line-height:1.25;font-family:sans-serif"
         id="tspan4293"
         y="622.22021"
         x="5"
         sodipodi:role="line">http://sourceforge.net/projects/slim.berlios/files/</tspan><tspan
         style="font-size:13px;line-height:1.25;font-family:sans-serif"
         id="tspan4200"
         y="638.47021"
         x="5"
         sodipodi:role="line"> </tspan><tspan
         style="font-size:13px;line-height:1.25;font-family:sans-serif"
         id="tspan4202"
         y="654.72021"
         x="5"
         sodipodi:role="line"> </tspan></text>
    <text
       xml:space="preserve"
       style="font-style:normal;font-weight:bold;line-height:0%;font-family:sans-serif;-inkscape-font-specification:'Sans Bold';text-align:start;letter-spacing:0px;word-spacing:0px;writing-mode:lr-tb;text-anchor:start;fill:#000000;fill-opacity:1;stroke:none"
       x="3.597168"
       y="659"
       id="text4297"><tspan
         style="font-size:13px;line-height:1.25;font-family:sans-serif"
         sodipodi:role="line"
         x="3.597168"
         y="659"
         id="tspan4301">Exporting The Panel</tspan><tspan
         style="font-size:13px;line-height:1.25;font-family:sans-serif"
         sodipodi:role="line"
         x="3.597168"
         y="675.25"
         id="tspan4303">-----------------------------</tspan></text>
    <text
       xml:space="preserve"
       style="font-style:normal;font-weight:normal;line-height:0%;font-family:sans-serif;-inkscape-font-specification:Sans;text-align:start;letter-spacing:0px;word-spacing:0px;writing-mode:lr-tb;text-anchor:start;fill:#1a1a1a;fill-opacity:1;stroke:none"
       x="5"
       y="713.47021"
       id="text4305"><tspan
         style="font-size:13px;line-height:1.25;font-family:sans-serif"
         id="tspan4330"
         sodipodi:role="line"
         x="5"
         y="713.47021">1. Hide the following layers: Username label, Background. These layers are used only for testing the panel</tspan><tspan
         style="font-size:13px;line-height:1.25;font-family:sans-serif"
         id="tspan4726"
         sodipodi:role="line"
         x="5"
         y="729.72021">    against a background and are not necessary in the exported image.</tspan><tspan
         style="font-size:13px;line-height:1.25;font-family:sans-serif"
         id="tspan4338"
         sodipodi:role="line"
         x="5"
         y="745.97021">2. Make sure the following layers are visible: GuixSD logo, Input box, Panel area.</tspan><tspan
         style="font-size:13px;line-height:1.25;font-family:sans-serif"
         id="tspan4336"
         sodipodi:role="line"
         x="5"
         y="762.22021">3. Unlock the &quot;Panel area&quot; layer. Select it and click on the canvas. Then press Ctrl+A. A transparent</tspan><tspan
         style="font-size:13px;line-height:1.25;font-family:sans-serif"
         id="tspan4344"
         sodipodi:role="line"
         x="5"
         y="778.47021">    rectangle is selected. This rectangle is used to indicate Inkscape the area of the image that needs to be</tspan><tspan
         style="font-size:13px;line-height:1.25;font-family:sans-serif"
         id="tspan4346"
         sodipodi:role="line"
         x="5"
         y="794.72021">    exported.</tspan><tspan
         style="font-size:13px;line-height:1.25;font-family:sans-serif"
         id="tspan4348"
         sodipodi:role="line"
         x="5"
         y="810.97021">4. Click the Export button. In the Export area section, &quot;Selection&quot; should be active. In the Image size section,</tspan><tspan
         style="font-size:13px;line-height:1.25;font-family:sans-serif"
         id="tspan4352"
         sodipodi:role="line"
         x="5"
         y="827.22021">    width should be 720 px, height is 420 px, and dpi is 90. Filename should be &quot;panel.png&quot;.</tspan><tspan
         style="font-size:13px;line-height:1.25;font-family:sans-serif"
         id="tspan4356"
         sodipodi:role="line"
         x="5"
         y="843.47021">5. Export.</tspan><tspan
         style="font-size:13px;line-height:1.25;font-family:sans-serif"
         sodipodi:role="line"
         x="5"
         y="859.72021"
         id="tspan4315"> </tspan><tspan
         style="font-size:13px;line-height:1.25;font-family:sans-serif"
         sodipodi:role="line"
         x="5"
         y="875.97021"
         id="tspan4317"> </tspan></text>
    <text
       id="text5487"
       y="879"
       x="3.597168"
       style="font-style:normal;font-weight:bold;line-height:0%;font-family:sans-serif;-inkscape-font-specification:'Sans Bold';text-align:start;letter-spacing:0px;word-spacing:0px;writing-mode:lr-tb;text-anchor:start;fill:#000000;fill-opacity:1;stroke:none"
       xml:space="preserve"><tspan
         style="font-size:13px;line-height:1.25;font-family:sans-serif"
         id="tspan5489"
         y="879"
         x="3.597168"
         sodipodi:role="line">Exporting The Background</tspan><tspan
         style="font-size:13px;line-height:1.25;font-family:sans-serif"
         id="tspan5491"
         y="895.25"
         x="3.597168"
         sodipodi:role="line">--------------------------------------</tspan></text>
    <text
       id="text5493"
       y="933.47021"
       x="5"
       style="font-style:normal;font-weight:normal;line-height:0%;font-family:sans-serif;-inkscape-font-specification:Sans;text-align:start;letter-spacing:0px;word-spacing:0px;writing-mode:lr-tb;text-anchor:start;fill:#1a1a1a;fill-opacity:1;stroke:none"
       xml:space="preserve"><tspan
         style="font-size:13px;line-height:1.25;font-family:sans-serif"
         y="933.47021"
         x="5"
         sodipodi:role="line"
         id="tspan5499">1. Make sure the Background layer is visible.</tspan><tspan
         style="font-size:13px;line-height:1.25;font-family:sans-serif"
         y="949.72021"
         x="5"
         sodipodi:role="line"
         id="tspan5505">2. Unlock it and select the big background located above the canvas. </tspan><tspan
         style="font-size:13px;line-height:1.25;font-family:sans-serif"
         y="965.97021"
         x="5"
         sodipodi:role="line"
         id="tspan5507">3. Click the Export button. In the Export area section, &quot;Selection&quot; should be active. In the Image size section,</tspan><tspan
         style="font-size:13px;line-height:1.25;font-family:sans-serif"
         y="982.22021"
         x="5"
         sodipodi:role="line"
         id="tspan5509">    width should be 1440 px, height is 900 px, and dpi is 90. Filename should be &quot;background.png&quot;.</tspan><tspan
         style="font-size:13px;line-height:1.25;font-family:sans-serif"
         y="998.47021"
         x="5"
         sodipodi:role="line"
         id="tspan5511">4. Export.</tspan><tspan
         style="font-size:13px;line-height:1.25;font-family:sans-serif"
         id="tspan5513"
         y="1014.7202"
         x="5"
         sodipodi:role="line"> </tspan><tspan
         style="font-size:13px;line-height:1.25;font-family:sans-serif"
         id="tspan5515"
         y="1030.9702"
         x="5"
         sodipodi:role="line"> </tspan></text>
  </g>
  <g
     inkscape:label="PantherX Logo"
     id="layer4"
     inkscape:groupmode="layer">
    <g
       style="display:inline;filter:url(#filter4293)"
       transform="matrix(0.92462506,0,0,0.92462506,76.423942,240.45187)"
       fill-rule="evenodd"
       fill="none"
       stroke-width="1"
       stroke="none"
       id="logo">
      <g
         fill="#FFFFFF"
         transform="translate(1,2)"
         id="Group">
        <polygon
           points="135.76937,6.8587335 139.45351,6.203665 140.06607,2.1470657 141.90902,3.9155648 148.05219,3.9155648 149.28083,2.0598469 154.80616,2.0598469 159.10462,0 160.94757,0.20412897 162.78876,0.20412897 164.0174,2.0598469 168.3141,2.0598469 169.54625,3.3198794 172,5.4725122 171.38392,7.6270007 170.77313,7.6270007 169.54625,11.499884 168.93017,15.049872 168.3141,15.049872 167.7033,13.194154 163.40132,13.194154 160.34558,15.259569 160.34558,24.324751 164.17582,23.226166 159.71718,29.895616 155.41872,29.895616 153.30469,28.854558 153.30469,24.324751 145.91704,18.497796 142.99332,12.670842 144.90668,19.145442 152.92801,24.97054 152.33305,26.915333 149.27027,27.561123 149.88986,39.862677 146.82356,44.39434 149.71736,54.752958 155.06491,61.871491 155.06491,65.757365 162.76588,72.87961 168.30354,72.230109 170.76609,75.470192 169.54097,80 159.10286,79.352354 132.08523,52.810021 113.04844,54.107168 103.8372,50.219439 90.941821,48.924147 76.817807,52.810021 65.763619,62.519137 46.114271,67.048945 43.042685,72.230109 46.728588,75.470192 45.499954,78.706565 37.517351,80 35.060083,78.057063 38.129908,63.166783 46.728588,59.284621 55.939825,50.219439 63.30811,39.213176 69.449522,34.681512 62.079476,38.567386 60.238285,41.156112 57.321599,42.128509 13.337195,71.098121 6.6976411,71.343076 0,64.016701 2.4854321,50.321503 19.695113,46.385525 22.770219,49.597773 17.248406,50.880074 5.5834212,54.109023 3.74223,63.170494 8.6550069,66.40501 17.251926,63.814428 57.166699,35.331014 70.676396,31.44514 92.783012,27.561123 114.27531,19.364417 119.80416,15.049872 125.32774,15.049872 129.62796,12.078868 132.69955,11.405242 "
           id="Shape" />
        <polygon
           points="90.141915,67.52605 95.92734,59.08958 94.719255,51.298777 90.96117,50 82,53.406964 85.231808,57.385168 82.117553,68.586656 90.990106,78 99,78 99,73.370548 97.043192,72.06991 94.332234,73.370548 "
           id="polygon71" />
        <polygon
           points="123.0418,63.540917 124.12539,71.186833 127.37461,71.814838 129,74.725999 128.45976,77 119.79257,77 117.08514,67.534151 116,55.358542 126.28947,54 "
           id="polygon73" />
      </g>
      <path
         inkscape:connector-curvature="0"
         fill-rule="nonzero"
         fill="#FFFFFF"
         id="PANTHERX"
         d="m 214.29772,1.2279202 c 7.21751,0 12.5166,1.7853573 15.89744,5.3561254 3.38083,3.5707684 5.07122,9.2687164 5.07122,17.0940174 0,8.812959 -1.91831,15.175669 -5.75498,19.088319 -3.83668,3.91265 -8.86987,5.868946 -15.09972,5.868946 h -4.10256 v 30.54131 c 0,0.683764 -0.13296,1.1396 -0.39886,1.367522 -0.25027,0.214514 -1.05574,0.344903 -2.41643,0.391171 l -0.89576,0.02187 C 205.16706,80.985734 203.36516,81 201.19231,81 V 3.0512821 c 0,-0.6837641 0.13295,-1.1585932 0.39886,-1.4245015 0.26591,-0.2659082 0.74073,-0.3988604 1.4245,-0.3988604 z m 1.02564,38.8603988 c 3.34285,0 5.81196,-1.348514 7.40741,-4.045584 1.59545,-2.697069 2.39316,-7.160463 2.39316,-13.390313 0,-4.330506 -0.70275,-7.635317 -2.10826,-9.91453 -1.40552,-2.279214 -3.74167,-3.4188037 -7.00855,-3.4188037 h -5.698 V 40.088319 Z m 66.43875,39.202279 c 0.15195,0.683764 -0.038,1.177587 -0.5698,1.481482 -0.49858,0.284902 -1.53133,0.436253 -3.09829,0.45406 l -0.32052,0.0018 c -2.05129,0 -3.87463,-0.07597 -5.47008,-0.22792 l -4.78633,-20.2849 h -19.82906 l -4.44444,18.689458 c -0.22792,0.683765 -0.58879,1.158594 -1.08262,1.424502 -0.49383,0.265908 -1.57644,0.39886 -3.24787,0.39886 -1.59544,0 -3.49476,-0.113959 -5.698,-0.34188 L 253.61396,2.4814815 c 0.22792,-1.0636331 1.36751,-1.59544161 3.4188,-1.59544161 1.7474,0 3.19088,0.11395897 4.33049,0.34188031 z M 249.62536,52.396011 h 15.84045 l -3.87464,-16.410256 c -2.20324,-9.268802 -3.53276,-16.600163 -3.98861,-21.994302 -0.83571,6.761667 -2.20322,14.093028 -4.10256,21.994302 z m 68.8319,-49.3447289 c 0,-0.6837641 0.15195,-1.1396001 0.45584,-1.3675214 0.3039,-0.2279214 1.21557,-0.3608735 2.73505,-0.3988604 l 1.32092,-0.026338 c 1.30742,-0.020428 2.8804,-0.030642 4.71896,-0.030642 V 79.176638 C 327.68803,80.392219 327.04227,81 325.75071,81 H 318.9131 L 305.80769,49.660969 305.29947,48.27921 c -1.9469,-5.380285 -5.3862,-15.745827 -10.31799,-31.096874 l 0.0999,1.170556 c 0.26263,3.339081 0.49523,8.418943 0.69783,15.239701 l 0.13697,4.936585 c 0.13661,5.342965 0.20491,9.661321 0.20491,12.955152 v 27.692308 c 0,0.683764 -0.13295,1.1396 -0.39886,1.367522 -0.25026,0.214514 -1.05573,0.344903 -2.41642,0.391171 l -0.89577,0.02187 C 290.97903,80.985734 289.17712,81 287.00427,81 V 3.0512821 c 0,-1.2155807 0.60778,-1.8233619 1.82336,-1.8233619 h 6.95157 l 12.8775,30.7692308 0.62244,1.734762 c 0.76558,2.179087 1.96058,5.691154 3.585,10.53623 l 4.84554,14.527865 c 0.43761,1.294582 1.06667,3.149849 1.88719,5.565815 v -0.34188 l -0.086,-0.726582 c -0.30907,-2.821136 -0.55013,-7.369277 -0.72321,-13.644523 l -0.11229,-4.58991 c -0.14542,-6.419174 -0.21813,-11.45682 -0.21813,-15.113059 z m 55.27066,-1.8233619 v 6.7236467 c 0,0.7597379 -0.15194,1.2725533 -0.45584,1.5384616 -0.3039,0.2659083 -0.79772,0.3988604 -1.48148,0.3988604 H 357.7735 V 79.176638 c 0,0.683764 -0.15194,1.1396 -0.45584,1.367522 -0.30389,0.227921 -1.21556,0.360873 -2.73504,0.39886 l -1.32093,0.02634 C 351.95428,80.989786 350.3813,81 348.54273,81 V 9.8888889 H 333.04416 V 3.0512821 c 0,-1.2155807 0.64577,-1.8233619 1.93732,-1.8233619 z m 42.50712,77.9487178 c 0,0.683764 -0.13295,1.1396 -0.39886,1.367522 -0.26591,0.227921 -1.13959,0.360873 -2.62108,0.39886 l -1.30269,0.02634 C 410.61056,80.989786 409.01251,81 407.11823,81 V 42.367521 h -18.23362 v 36.809117 c 0,0.683764 -0.13295,1.1396 -0.39886,1.367522 -0.25026,0.214514 -1.05573,0.344903 -2.41642,0.391171 l -0.89779,0.02187 C 383.73176,80.985734 381.89254,81 379.65385,81 V 3.0512821 c 0,-0.6837641 0.13295,-1.1396001 0.39886,-1.3675214 0.25026,-0.2145142 1.05573,-0.3449035 2.41642,-0.3911711 l 0.89779,-0.021871 c 1.43978,-0.028532 3.279,-0.042798 5.51769,-0.042798 V 33.706553 h 18.23362 V 3.0512821 c 0,-0.6837641 0.13296,-1.1396001 0.39886,-1.3675214 0.26591,-0.2279214 1.1396,-0.3608735 2.62109,-0.3988604 l 1.30269,-0.026338 c 1.30184,-0.020428 2.89989,-0.030642 4.79417,-0.030642 z m 19.37322,-6.495726 h 19.60114 l -0.005,1.915073 c -0.008,1.34729 -0.0253,2.494302 -0.0516,3.441052 -0.038,1.367528 -0.18993,2.203227 -0.45584,2.507123 C 454.43067,80.848055 453.99383,81 453.38604,81 H 426.49145 V 3.0512821 c 0,-0.3038952 0.11396,-0.6837584 0.34188,-1.1396012 0.22793,-0.4558427 0.72175,-0.6837607 1.48148,-0.6837607 h 27.35043 l -0.003,1.4120301 c -0.007,1.5014866 -0.0247,2.7781904 -0.054,3.8301352 l -0.0203,0.5196601 c -0.0549,1.0666694 -0.18107,1.7481447 -0.3786,2.0444424 -0.22792,0.3418821 -0.64577,0.5128205 -1.25356,0.5128205 H 435.60826 V 33.364672 h 17.20798 l -0.01,2.386042 c -0.009,1.030388 -0.0249,1.944439 -0.0471,2.742163 -0.038,1.367529 -0.17094,2.260207 -0.39886,2.678063 -0.22792,0.417856 -0.64577,0.626781 -1.25356,0.626781 h -15.49858 z m 51.39601,-26.552707 c 2.43116,3.190899 4.69135,7.52134 6.78063,12.991453 2.08928,5.470113 3.39981,12.079734 3.93162,19.82906 0,0.911685 -0.2659,1.519467 -0.79772,1.823362 -0.50382,0.2879 -1.6895,0.439425 -3.55707,0.454578 h -0.56904 c -0.9167,-0.01318 -2.61824,-0.08852 -5.10466,-0.226658 -0.53181,-8.357117 -1.72838,-15.175662 -3.58974,-20.455841 -1.86136,-5.280178 -3.77967,-9.287735 -5.75499,-12.022792 -0.53181,0.07597 -1.29154,0.113961 -2.2792,0.113961 h -4.10256 v 30.54131 c 0,0.683764 -0.13295,1.1396 -0.39886,1.367522 -0.25027,0.214514 -1.05574,0.344903 -2.41643,0.391171 l -0.89576,0.02187 C 466.81949,80.985734 465.01758,81 462.84473,81 V 3.0512821 c 0,-0.3038952 0.11396,-0.6837584 0.34188,-1.1396012 0.22792,-0.4558427 0.72174,-0.6837607 1.48148,-0.6837607 h 11.28205 c 7.21751,0 12.5166,1.7853573 15.89744,5.3561254 3.38083,3.5707684 5.07122,9.2687164 5.07122,17.0940174 0,11.168147 -3.30481,18.651453 -9.91453,22.450142 z m -10.02849,-6.039886 c 3.34285,0 5.81196,-1.310528 7.40741,-3.931624 1.59545,-2.621096 2.39316,-6.894557 2.39316,-12.820513 0,-4.634401 -0.70274,-8.129143 -2.10826,-10.48433 -1.40551,-2.355188 -3.74167,-3.5327637 -7.00855,-3.5327637 h -5.698 V 40.088319 Z m 72.47864,39.430199 c 0.15194,0.303896 0.22792,0.531814 0.22792,0.683761 0,0.531817 -0.41785,0.797721 -1.25357,0.797721 h -10.02848 l -6.15385,-15.384615 c -2.12727,-5.394139 -4.17853,-11.016116 -6.15385,-16.866097 -2.20324,6.457772 -4.33047,12.079748 -6.38176,16.866097 l -6.15385,14.245014 c -0.30389,0.455843 -0.58879,0.759733 -0.8547,0.911681 C 512.43637,80.924027 512.03751,81 511.5057,81 h -7.97721 L 520.96439,39.860399 506.60541,2.8233618 c -0.22792,-0.6077903 -0.17094,-1.0066467 0.17094,-1.1965812 0.32289,-0.1793825 1.32343,-0.2909968 3.00165,-0.3348457 l 1.80961,-0.031964 c 1.61681,-0.021367 3.5648,-0.032051 5.84401,-0.032051 l 4.67237,12.9914531 0.97044,2.805961 c 2.03237,5.903991 3.60822,10.666639 4.72756,14.288056 l 0.69244,-2.224004 c 1.71927,-5.489025 3.34979,-10.445657 4.89161,-14.870013 l 4.44444,-11.5099716 c 0.15195,-0.5318165 0.39886,-0.8926866 0.74075,-1.0826211 0.32051,-0.1780635 1.1752,-0.2893518 2.5641,-0.3338675 l 0.93726,-0.022195 c 1.47709,-0.028532 3.36789,-0.042798 5.67242,-0.042798 L 533.04416,39.062678 Z" />
    </g>
  </g>
</svg>
