<svg width="374.12303205593923" height="24.000002772294565" xmlns="http://www.w3.org/2000/svg"><svg height="24.000002772294565" width="374.12303205593923" class="pinned" x="0" y="0"><svg height="24.000002772294565" width="374.12303205593923" class="pinned" x="0" y="12"><svg height="24.000002772294565" width="374.12303205593923" class="pinned" x="0" y="12"><svg height="24.000002772294565" width="374.12303205593923" class="pinned" x="0" y="12"><svg height="24.000002772294565" width="374.12303205593923" class="pinned" x="0" y="12"><svg height="24.000002772294565" width="374.12303205593923" class="pinned" x="0" y="12"><svg width="0" height="0" x="0" y="12"><rect style="fill:none;stroke:black;stroke-width:1" x="0.5" y="0.5" width="-1" height="-1" rx="0" ry="0" /></svg><svg height="24.000002772294565" width="374.12303205593923" class="aligned-offset-center" x="0" y="0"><svg height="24.000002772294565" width="20.784612891996616" class="rotate" x="0" y="0.0"><g class="transform" transform="translate(-1.607693554001692 1.6076965407340182) rotate(-90 12.0 10.392304845413264)"><svg width="24" height="20.784609690826528" x="0" y="0"><polygon points="0,20.784609690826528 24,20.784609690826528 12,0" style="fill:#A17F66;stroke:#232323;stroke-width:0.5" /></svg></g></svg><svg height="24.000002772294565" width="353.3384191639426" class="aligned-offset-center" x="20.784612891996616" y="0.0"><svg height="24.000002772294565" width="20.784612891996616" class="rotate" x="0" y="0.0"><g class="transform" transform="translate(-1.607693554001692 1.6076965407340182) rotate(90 12.0 10.392304845413264)"><svg width="24" height="20.784609690826528" x="0" y="0"><polygon points="0,20.784609690826528 24,20.784609690826528 12,0" style="fill:#DC6130;stroke:#232323;stroke-width:0.5" /></svg></g></svg><svg height="24.000002772294565" width="332.553806271946" class="aligned-offset-center" x="20.784612891996616" y="0.0"><svg height="24.000002772294565" width="20.784612891996616" class="rotate" x="0" y="0.0"><g class="transform" transform="translate(-1.607693554001692 1.6076965407340182) rotate(-90 12.0 10.392304845413264)"><svg width="24" height="20.784609690826528" x="0" y="0"><polygon points="0,20.784609690826528 24,20.784609690826528 12,0" style="fill:#DC6130;stroke:#232323;stroke-width:0.5" /></svg></g></svg><svg height="24.000002772294565" width="311.76919337994934" class="aligned-offset-center" x="20.784612891996616" y="0.0"><svg height="24.000002772294565" width="20.784612891996616" class="rotate" x="0" y="0.0"><g class="transform" transform="translate(-1.607693554001692 1.6076965407340182) rotate(90 12.0 10.392304845413264)"><svg height="20.784609690826528" width="24" class="opacity" x="0" y="0"><g opacity="0" class="opacity"><svg width="24" height="20.784609690826528" x="0" y="0"><polygon style="stroke:#232323;fill:none;stroke-width:0.5" points="0,20.784609690826528 24,20.784609690826528 12,0" /></svg></g></svg></g></svg><svg height="24.000002772294565" width="290.9845804879527" class="aligned-offset-center" x="20.784612891996616" y="0.0"><svg height="24.000002772294565" width="20.784612891996616" class="rotate" x="0" y="0.0"><g class="transform" transform="translate(-1.607693554001692 1.6076965407340182) rotate(-90 12.0 10.392304845413264)"><svg width="24" height="20.784609690826528" x="0" y="0"><polygon points="0,20.784609690826528 24,20.784609690826528 12,0" style="fill:#DC6130;stroke:#232323;stroke-width:0.5" /></svg></g></svg><svg height="24.000002772294565" width="270.1999675959561" class="aligned-offset-center" x="20.784612891996616" y="0.0"><svg height="24.000002772294565" width="20.784612891996616" class="rotate" x="0" y="0.0"><g class="transform" transform="translate(-1.607693554001692 1.6076965407340182) rotate(90 12.0 10.392304845413264)"><svg width="24" height="20.784609690826528" x="0" y="0"><polygon points="0,20.784609690826528 24,20.784609690826528 12,0" style="fill:#FFFDD7;stroke:#232323;stroke-width:0.5" /></svg></g></svg><svg height="24.000002772294565" width="249.41535470395945" class="aligned-offset-center" x="20.784612891996616" y="0.0"><svg height="24.000002772294565" width="20.784612891996616" class="rotate" x="0" y="0.0"><g class="transform" transform="translate(-1.607693554001692 1.6076965407340182) rotate(-90 12.0 10.392304845413264)"><svg width="24" height="20.784609690826528" x="0" y="0"><polygon points="0,20.784609690826528 24,20.784609690826528 12,0" style="fill:#A17F66;stroke:#232323;stroke-width:0.5" /></svg></g></svg><svg height="24.000002772294565" width="228.63074181196282" class="aligned-offset-center" x="20.784612891996616" y="0.0"><svg height="24.000002772294565" width="20.784612891996616" class="rotate" x="0" y="0.0"><g class="transform" transform="translate(-1.607693554001692 1.6076965407340182) rotate(90 12.0 10.392304845413264)"><svg width="24" height="20.784609690826528" x="0" y="0"><polygon points="0,20.784609690826528 24,20.784609690826528 12,0" style="fill:#DC6130;stroke:#232323;stroke-width:0.5" /></svg></g></svg><svg height="24.000002772294565" width="207.8461289199662" class="aligned-offset-center" x="20.784612891996616" y="0.0"><svg height="24.000002772294565" width="20.784612891996616" class="rotate" x="0" y="0.0"><g class="transform" transform="translate(-1.607693554001692 1.6076965407340182) rotate(-90 12.0 10.392304845413264)"><svg width="24" height="20.784609690826528" x="0" y="0"><polygon points="0,20.784609690826528 24,20.784609690826528 12,0" style="fill:#FFCF19;stroke:#232323;stroke-width:0.5" /></svg></g></svg><svg height="24.000002772294565" width="187.06151602796956" class="aligned-offset-center" x="20.784612891996616" y="0.0"><svg height="24.000002772294565" width="20.784612891996616" class="rotate" x="0" y="0.0"><g class="transform" transform="translate(-1.607693554001692 1.6076965407340182) rotate(90 12.0 10.392304845413264)"><svg width="24" height="20.784609690826528" x="0" y="0"><polygon points="0,20.784609690826528 24,20.784609690826528 12,0" style="fill:#A17F66;stroke:#232323;stroke-width:0.5" /></svg></g></svg><svg height="24.000002772294565" width="166.27690313597293" class="aligned-offset-center" x="20.784612891996616" y="0.0"><svg height="24.000002772294565" width="20.784612891996616" class="rotate" x="0" y="0.0"><g class="transform" transform="translate(-1.607693554001692 1.6076965407340182) rotate(-90 12.0 10.392304845413264)"><svg width="24" height="20.784609690826528" x="0" y="0"><polygon points="0,20.784609690826528 24,20.784609690826528 12,0" style="fill:#FFCF19;stroke:#232323;stroke-width:0.5" /></svg></g></svg><svg height="24.000002772294565" width="145.4922902439763" class="aligned-offset-center" x="20.784612891996616" y="0.0"><svg height="24.000002772294565" width="20.784612891996616" class="rotate" x="0" y="0.0"><g class="transform" transform="translate(-1.607693554001692 1.6076965407340182) rotate(90 12.0 10.392304845413264)"><svg width="24" height="20.784609690826528" x="0" y="0"><polygon points="0,20.784609690826528 24,20.784609690826528 12,0" style="fill:#FFCF19;stroke:#232323;stroke-width:0.5" /></svg></g></svg><svg height="24.000002772294565" width="124.7076773519797" class="aligned-offset-center" x="20.784612891996616" y="0.0"><svg height="24.000002772294565" width="20.784612891996616" class="rotate" x="0" y="0.0"><g class="transform" transform="translate(-1.607693554001692 1.6076965407340182) rotate(-90 12.0 10.392304845413264)"><svg height="20.784609690826528" width="24" class="opacity" x="0" y="0"><g opacity="0" class="opacity"><svg width="24" height="20.784609690826528" x="0" y="0"><polygon style="stroke:#232323;fill:none;stroke-width:0.5" points="0,20.784609690826528 24,20.784609690826528 12,0" /></svg></g></svg></g></svg><svg height="24.000002772294565" width="103.92306445998308" class="aligned-offset-center" x="20.784612891996616" y="0.0"><svg height="24.000002772294565" width="20.784612891996616" class="rotate" x="0" y="0.0"><g class="transform" transform="translate(-1.607693554001692 1.6076965407340182) rotate(90 12.0 10.392304845413264)"><svg width="24" height="20.784609690826528" x="0" y="0"><polygon points="0,20.784609690826528 24,20.784609690826528 12,0" style="fill:#A17F66;stroke:#232323;stroke-width:0.5" /></svg></g></svg><svg height="24.000002772294565" width="83.13845156798646" class="aligned-offset-center" x="20.784612891996616" y="0.0"><svg height="24.000002772294565" width="20.784612891996616" class="rotate" x="0" y="0.0"><g class="transform" transform="translate(-1.607693554001692 1.6076965407340182) rotate(-90 12.0 10.392304845413264)"><svg width="24" height="20.784609690826528" x="0" y="0"><polygon points="0,20.784609690826528 24,20.784609690826528 12,0" style="fill:#DC6130;stroke:#232323;stroke-width:0.5" /></svg></g></svg><svg height="24.000002772294565" width="62.35383867598985" class="aligned-offset-center" x="20.784612891996616" y="0.0"><svg height="24.000002772294565" width="20.784612891996616" class="rotate" x="0" y="0.0"><g class="transform" transform="translate(-1.607693554001692 1.6076965407340182) rotate(90 12.0 10.392304845413264)"><svg width="24" height="20.784609690826528" x="0" y="0"><polygon points="0,20.784609690826528 24,20.784609690826528 12,0" style="fill:#FFFDD7;stroke:#232323;stroke-width:0.5" /></svg></g></svg><svg height="24.000002772294565" width="41.56922578399323" class="aligned-offset-center" x="20.784612891996616" y="0.0"><svg height="24.000002772294565" width="20.784612891996616" class="rotate" x="0" y="0.0"><g class="transform" transform="translate(-1.607693554001692 1.6076965407340182) rotate(-90 12.0 10.392304845413264)"><svg width="24" height="20.784609690826528" x="0" y="0"><polygon points="0,20.784609690826528 24,20.784609690826528 12,0" style="fill:#A6EBEB;stroke:#232323;stroke-width:0.5" /></svg></g></svg><svg height="24.000002772294565" width="20.784612891996616" class="aligned-offset-center" x="20.784612891996616" y="0.0"><svg height="24.000002772294565" width="20.784612891996616" class="rotate" x="0" y="0.0"><g class="transform" transform="translate(-1.607693554001692 1.6076965407340182) rotate(90 12.0 10.392304845413264)"><svg width="24" height="20.784609690826528" x="0" y="0"><polygon points="0,20.784609690826528 24,20.784609690826528 12,0" style="fill:#A17F66;stroke:#232323;stroke-width:0.5" /></svg></g></svg><svg width="0" height="0" x="20.784612891996616" y="12.000001386147282"><rect style="fill:none;stroke:black;stroke-width:1" x="0.5" y="0.5" width="-1" height="-1" rx="0" ry="0" /></svg></svg></svg></svg></svg></svg></svg></svg></svg></svg></svg></svg></svg></svg></svg></svg></svg></svg></svg></svg><svg height="24.000002772294565" width="374.12303205593923" class="aligned-offset-center" x="0" y="0"><svg height="24.000002772294565" width="20.784612891996616" class="rotate" x="0" y="0.0"><g class="transform" transform="translate(-1.607693554001692 1.6076965407340182) rotate(90 12.0 10.392304845413264)"><svg height="20.784609690826528" width="24" class="opacity" x="0" y="0"><g opacity="0" class="opacity"><svg width="24" height="20.784609690826528" x="0" y="0"><polygon style="stroke:#232323;fill:none;stroke-width:0.5" points="0,20.784609690826528 24,20.784609690826528 12,0" /></svg></g></svg></g></svg><svg height="24.000002772294565" width="353.3384191639426" class="aligned-offset-center" x="20.784612891996616" y="0.0"><svg height="24.000002772294565" width="20.784612891996616" class="rotate" x="0" y="0.0"><g class="transform" transform="translate(-1.607693554001692 1.6076965407340182) rotate(-90 12.0 10.392304845413264)"><svg width="24" height="20.784609690826528" x="0" y="0"><polygon points="0,20.784609690826528 24,20.784609690826528 12,0" style="fill:#DC6130;stroke:#232323;stroke-width:0.5" /></svg></g></svg><svg height="24.000002772294565" width="332.553806271946" class="aligned-offset-center" x="20.784612891996616" y="0.0"><svg height="24.000002772294565" width="20.784612891996616" class="rotate" x="0" y="0.0"><g class="transform" transform="translate(-1.607693554001692 1.6076965407340182) rotate(90 12.0 10.392304845413264)"><svg width="24" height="20.784609690826528" x="0" y="0"><polygon points="0,20.784609690826528 24,20.784609690826528 12,0" style="fill:#DC6130;stroke:#232323;stroke-width:0.5" /></svg></g></svg><svg height="24.000002772294565" width="311.76919337994934" class="aligned-offset-center" x="20.784612891996616" y="0.0"><svg height="24.000002772294565" width="20.784612891996616" class="rotate" x="0" y="0.0"><g class="transform" transform="translate(-1.607693554001692 1.6076965407340182) rotate(-90 12.0 10.392304845413264)"><svg width="24" height="20.784609690826528" x="0" y="0"><polygon points="0,20.784609690826528 24,20.784609690826528 12,0" style="fill:#A17F66;stroke:#232323;stroke-width:0.5" /></svg></g></svg><svg height="24.000002772294565" width="290.9845804879527" class="aligned-offset-center" x="20.784612891996616" y="0.0"><svg height="24.000002772294565" width="20.784612891996616" class="rotate" x="0" y="0.0"><g class="transform" transform="translate(-1.607693554001692 1.6076965407340182) rotate(90 12.0 10.392304845413264)"><svg width="24" height="20.784609690826528" x="0" y="0"><polygon points="0,20.784609690826528 24,20.784609690826528 12,0" style="fill:#FFFDD7;stroke:#232323;stroke-width:0.5" /></svg></g></svg><svg height="24.000002772294565" width="270.1999675959561" class="aligned-offset-center" x="20.784612891996616" y="0.0"><svg height="24.000002772294565" width="20.784612891996616" class="rotate" x="0" y="0.0"><g class="transform" transform="translate(-1.607693554001692 1.6076965407340182) rotate(-90 12.0 10.392304845413264)"><svg width="24" height="20.784609690826528" x="0" y="0"><polygon points="0,20.784609690826528 24,20.784609690826528 12,0" style="fill:#A6EBEB;stroke:#232323;stroke-width:0.5" /></svg></g></svg><svg height="24.000002772294565" width="249.41535470395945" class="aligned-offset-center" x="20.784612891996616" y="0.0"><svg height="24.000002772294565" width="20.784612891996616" class="rotate" x="0" y="0.0"><g class="transform" transform="translate(-1.607693554001692 1.6076965407340182) rotate(90 12.0 10.392304845413264)"><svg width="24" height="20.784609690826528" x="0" y="0"><polygon points="0,20.784609690826528 24,20.784609690826528 12,0" style="fill:#FFCF19;stroke:#232323;stroke-width:0.5" /></svg></g></svg><svg height="24.000002772294565" width="228.63074181196282" class="aligned-offset-center" x="20.784612891996616" y="0.0"><svg height="24.000002772294565" width="20.784612891996616" class="rotate" x="0" y="0.0"><g class="transform" transform="translate(-1.607693554001692 1.6076965407340182) rotate(-90 12.0 10.392304845413264)"><svg height="20.784609690826528" width="24" class="opacity" x="0" y="0"><g opacity="0" class="opacity"><svg width="24" height="20.784609690826528" x="0" y="0"><polygon style="stroke:#232323;fill:none;stroke-width:0.5" points="0,20.784609690826528 24,20.784609690826528 12,0" /></svg></g></svg></g></svg><svg height="24.000002772294565" width="207.8461289199662" class="aligned-offset-center" x="20.784612891996616" y="0.0"><svg height="24.000002772294565" width="20.784612891996616" class="rotate" x="0" y="0.0"><g class="transform" transform="translate(-1.607693554001692 1.6076965407340182) rotate(90 12.0 10.392304845413264)"><svg width="24" height="20.784609690826528" x="0" y="0"><polygon points="0,20.784609690826528 24,20.784609690826528 12,0" style="fill:#A17F66;stroke:#232323;stroke-width:0.5" /></svg></g></svg><svg height="24.000002772294565" width="187.06151602796956" class="aligned-offset-center" x="20.784612891996616" y="0.0"><svg height="24.000002772294565" width="20.784612891996616" class="rotate" x="0" y="0.0"><g class="transform" transform="translate(-1.607693554001692 1.6076965407340182) rotate(-90 12.0 10.392304845413264)"><svg width="24" height="20.784609690826528" x="0" y="0"><polygon points="0,20.784609690826528 24,20.784609690826528 12,0" style="fill:#DC6130;stroke:#232323;stroke-width:0.5" /></svg></g></svg><svg height="24.000002772294565" width="166.27690313597293" class="aligned-offset-center" x="20.784612891996616" y="0.0"><svg height="24.000002772294565" width="20.784612891996616" class="rotate" x="0" y="0.0"><g class="transform" transform="translate(-1.607693554001692 1.6076965407340182) rotate(90 12.0 10.392304845413264)"><svg width="24" height="20.784609690826528" x="0" y="0"><polygon points="0,20.784609690826528 24,20.784609690826528 12,0" style="fill:#A6EBEB;stroke:#232323;stroke-width:0.5" /></svg></g></svg><svg height="24.000002772294565" width="145.4922902439763" class="aligned-offset-center" x="20.784612891996616" y="0.0"><svg height="24.000002772294565" width="20.784612891996616" class="rotate" x="0" y="0.0"><g class="transform" transform="translate(-1.607693554001692 1.6076965407340182) rotate(-90 12.0 10.392304845413264)"><svg width="24" height="20.784609690826528" x="0" y="0"><polygon points="0,20.784609690826528 24,20.784609690826528 12,0" style="fill:#A6EBEB;stroke:#232323;stroke-width:0.5" /></svg></g></svg><svg height="24.000002772294565" width="124.7076773519797" class="aligned-offset-center" x="20.784612891996616" y="0.0"><svg height="24.000002772294565" width="20.784612891996616" class="rotate" x="0" y="0.0"><g class="transform" transform="translate(-1.607693554001692 1.6076965407340182) rotate(90 12.0 10.392304845413264)"><svg width="24" height="20.784609690826528" x="0" y="0"><polygon points="0,20.784609690826528 24,20.784609690826528 12,0" style="fill:#A6EBEB;stroke:#232323;stroke-width:0.5" /></svg></g></svg><svg height="24.000002772294565" width="103.92306445998308" class="aligned-offset-center" x="20.784612891996616" y="0.0"><svg height="24.000002772294565" width="20.784612891996616" class="rotate" x="0" y="0.0"><g class="transform" transform="translate(-1.607693554001692 1.6076965407340182) rotate(-90 12.0 10.392304845413264)"><svg height="20.784609690826528" width="24" class="opacity" x="0" y="0"><g opacity="0" class="opacity"><svg width="24" height="20.784609690826528" x="0" y="0"><polygon style="stroke:#232323;fill:none;stroke-width:0.5" points="0,20.784609690826528 24,20.784609690826528 12,0" /></svg></g></svg></g></svg><svg height="24.000002772294565" width="83.13845156798646" class="aligned-offset-center" x="20.784612891996616" y="0.0"><svg height="24.000002772294565" width="20.784612891996616" class="rotate" x="0" y="0.0"><g class="transform" transform="translate(-1.607693554001692 1.6076965407340182) rotate(90 12.0 10.392304845413264)"><svg width="24" height="20.784609690826528" x="0" y="0"><polygon points="0,20.784609690826528 24,20.784609690826528 12,0" style="fill:#A17F66;stroke:#232323;stroke-width:0.5" /></svg></g></svg><svg height="24.000002772294565" width="62.35383867598985" class="aligned-offset-center" x="20.784612891996616" y="0.0"><svg height="24.000002772294565" width="20.784612891996616" class="rotate" x="0" y="0.0"><g class="transform" transform="translate(-1.607693554001692 1.6076965407340182) rotate(-90 12.0 10.392304845413264)"><svg width="24" height="20.784609690826528" x="0" y="0"><polygon points="0,20.784609690826528 24,20.784609690826528 12,0" style="fill:#A17F66;stroke:#232323;stroke-width:0.5" /></svg></g></svg><svg height="24.000002772294565" width="41.56922578399323" class="aligned-offset-center" x="20.784612891996616" y="0.0"><svg height="24.000002772294565" width="20.784612891996616" class="rotate" x="0" y="0.0"><g class="transform" transform="translate(-1.607693554001692 1.6076965407340182) rotate(90 12.0 10.392304845413264)"><svg width="24" height="20.784609690826528" x="0" y="0"><polygon points="0,20.784609690826528 24,20.784609690826528 12,0" style="fill:#FFFDD7;stroke:#232323;stroke-width:0.5" /></svg></g></svg><svg height="24.000002772294565" width="20.784612891996616" class="aligned-offset-center" x="20.784612891996616" y="0.0"><svg height="24.000002772294565" width="20.784612891996616" class="rotate" x="0" y="0.0"><g class="transform" transform="translate(-1.607693554001692 1.6076965407340182) rotate(-90 12.0 10.392304845413264)"><svg width="24" height="20.784609690826528" x="0" y="0"><polygon points="0,20.784609690826528 24,20.784609690826528 12,0" style="fill:#DC6130;stroke:#232323;stroke-width:0.5" /></svg></g></svg><svg width="0" height="0" x="20.784612891996616" y="12.000001386147282"><rect style="fill:none;stroke:black;stroke-width:1" x="0.5" y="0.5" width="-1" height="-1" rx="0" ry="0" /></svg></svg></svg></svg></svg></svg></svg></svg></svg></svg></svg></svg></svg></svg></svg></svg></svg></svg></svg></svg><svg height="24.000002772294565" width="374.12303205593923" class="aligned-offset-center" x="0" y="0"><svg height="24.000002772294565" width="20.784612891996616" class="rotate" x="0" y="0.0"><g class="transform" transform="translate(-1.607693554001692 1.6076965407340182) rotate(-90 12.0 10.392304845413264)"><svg width="24" height="20.784609690826528" x="0" y="0"><polygon points="0,20.784609690826528 24,20.784609690826528 12,0" style="fill:#FFCF19;stroke:#232323;stroke-width:0.5" /></svg></g></svg><svg height="24.000002772294565" width="353.3384191639426" class="aligned-offset-center" x="20.784612891996616" y="0.0"><svg height="24.000002772294565" width="20.784612891996616" class="rotate" x="0" y="0.0"><g class="transform" transform="translate(-1.607693554001692 1.6076965407340182) rotate(90 12.0 10.392304845413264)"><svg width="24" height="20.784609690826528" x="0" y="0"><polygon points="0,20.784609690826528 24,20.784609690826528 12,0" style="fill:#FFFDD7;stroke:#232323;stroke-width:0.5" /></svg></g></svg><svg height="24.000002772294565" width="332.553806271946" class="aligned-offset-center" x="20.784612891996616" y="0.0"><svg height="24.000002772294565" width="20.784612891996616" class="rotate" x="0" y="0.0"><g class="transform" transform="translate(-1.607693554001692 1.6076965407340182) rotate(-90 12.0 10.392304845413264)"><svg width="24" height="20.784609690826528" x="0" y="0"><polygon points="0,20.784609690826528 24,20.784609690826528 12,0" style="fill:#FFCF19;stroke:#232323;stroke-width:0.5" /></svg></g></svg><svg height="24.000002772294565" width="311.76919337994934" class="aligned-offset-center" x="20.784612891996616" y="0.0"><svg height="24.000002772294565" width="20.784612891996616" class="rotate" x="0" y="0.0"><g class="transform" transform="translate(-1.607693554001692 1.6076965407340182) rotate(90 12.0 10.392304845413264)"><svg height="20.784609690826528" width="24" class="opacity" x="0" y="0"><g opacity="0" class="opacity"><svg width="24" height="20.784609690826528" x="0" y="0"><polygon style="stroke:#232323;fill:none;stroke-width:0.5" points="0,20.784609690826528 24,20.784609690826528 12,0" /></svg></g></svg></g></svg><svg height="24.000002772294565" width="290.9845804879527" class="aligned-offset-center" x="20.784612891996616" y="0.0"><svg height="24.000002772294565" width="20.784612891996616" class="rotate" x="0" y="0.0"><g class="transform" transform="translate(-1.607693554001692 1.6076965407340182) rotate(-90 12.0 10.392304845413264)"><svg height="20.784609690826528" width="24" class="opacity" x="0" y="0"><g opacity="0" class="opacity"><svg width="24" height="20.784609690826528" x="0" y="0"><polygon style="stroke:#232323;fill:none;stroke-width:0.5" points="0,20.784609690826528 24,20.784609690826528 12,0" /></svg></g></svg></g></svg><svg height="24.000002772294565" width="270.1999675959561" class="aligned-offset-center" x="20.784612891996616" y="0.0"><svg height="24.000002772294565" width="20.784612891996616" class="rotate" x="0" y="0.0"><g class="transform" transform="translate(-1.607693554001692 1.6076965407340182) rotate(90 12.0 10.392304845413264)"><svg width="24" height="20.784609690826528" x="0" y="0"><polygon points="0,20.784609690826528 24,20.784609690826528 12,0" style="fill:#DC6130;stroke:#232323;stroke-width:0.5" /></svg></g></svg><svg height="24.000002772294565" width="249.41535470395945" class="aligned-offset-center" x="20.784612891996616" y="0.0"><svg height="24.000002772294565" width="20.784612891996616" class="rotate" x="0" y="0.0"><g class="transform" transform="translate(-1.607693554001692 1.6076965407340182) rotate(-90 12.0 10.392304845413264)"><svg width="24" height="20.784609690826528" x="0" y="0"><polygon points="0,20.784609690826528 24,20.784609690826528 12,0" style="fill:#A6EBEB;stroke:#232323;stroke-width:0.5" /></svg></g></svg><svg height="24.000002772294565" width="228.63074181196282" class="aligned-offset-center" x="20.784612891996616" y="0.0"><svg height="24.000002772294565" width="20.784612891996616" class="rotate" x="0" y="0.0"><g class="transform" transform="translate(-1.607693554001692 1.6076965407340182) rotate(90 12.0 10.392304845413264)"><svg width="24" height="20.784609690826528" x="0" y="0"><polygon points="0,20.784609690826528 24,20.784609690826528 12,0" style="fill:#DC6130;stroke:#232323;stroke-width:0.5" /></svg></g></svg><svg height="24.000002772294565" width="207.8461289199662" class="aligned-offset-center" x="20.784612891996616" y="0.0"><svg height="24.000002772294565" width="20.784612891996616" class="rotate" x="0" y="0.0"><g class="transform" transform="translate(-1.607693554001692 1.6076965407340182) rotate(-90 12.0 10.392304845413264)"><svg width="24" height="20.784609690826528" x="0" y="0"><polygon points="0,20.784609690826528 24,20.784609690826528 12,0" style="fill:#FFCF19;stroke:#232323;stroke-width:0.5" /></svg></g></svg><svg height="24.000002772294565" width="187.06151602796956" class="aligned-offset-center" x="20.784612891996616" y="0.0"><svg height="24.000002772294565" width="20.784612891996616" class="rotate" x="0" y="0.0"><g class="transform" transform="translate(-1.607693554001692 1.6076965407340182) rotate(90 12.0 10.392304845413264)"><svg width="24" height="20.784609690826528" x="0" y="0"><polygon points="0,20.784609690826528 24,20.784609690826528 12,0" style="fill:#FFCF19;stroke:#232323;stroke-width:0.5" /></svg></g></svg><svg height="24.000002772294565" width="166.27690313597293" class="aligned-offset-center" x="20.784612891996616" y="0.0"><svg height="24.000002772294565" width="20.784612891996616" class="rotate" x="0" y="0.0"><g class="transform" transform="translate(-1.607693554001692 1.6076965407340182) rotate(-90 12.0 10.392304845413264)"><svg width="24" height="20.784609690826528" x="0" y="0"><polygon points="0,20.784609690826528 24,20.784609690826528 12,0" style="fill:#A6EBEB;stroke:#232323;stroke-width:0.5" /></svg></g></svg><svg height="24.000002772294565" width="145.4922902439763" class="aligned-offset-center" x="20.784612891996616" y="0.0"><svg height="24.000002772294565" width="20.784612891996616" class="rotate" x="0" y="0.0"><g class="transform" transform="translate(-1.607693554001692 1.6076965407340182) rotate(90 12.0 10.392304845413264)"><svg width="24" height="20.784609690826528" x="0" y="0"><polygon points="0,20.784609690826528 24,20.784609690826528 12,0" style="fill:#A6EBEB;stroke:#232323;stroke-width:0.5" /></svg></g></svg><svg height="24.000002772294565" width="124.7076773519797" class="aligned-offset-center" x="20.784612891996616" y="0.0"><svg height="24.000002772294565" width="20.784612891996616" class="rotate" x="0" y="0.0"><g class="transform" transform="translate(-1.607693554001692 1.6076965407340182) rotate(-90 12.0 10.392304845413264)"><svg width="24" height="20.784609690826528" x="0" y="0"><polygon points="0,20.784609690826528 24,20.784609690826528 12,0" style="fill:#A17F66;stroke:#232323;stroke-width:0.5" /></svg></g></svg><svg height="24.000002772294565" width="103.92306445998308" class="aligned-offset-center" x="20.784612891996616" y="0.0"><svg height="24.000002772294565" width="20.784612891996616" class="rotate" x="0" y="0.0"><g class="transform" transform="translate(-1.607693554001692 1.6076965407340182) rotate(90 12.0 10.392304845413264)"><svg width="24" height="20.784609690826528" x="0" y="0"><polygon points="0,20.784609690826528 24,20.784609690826528 12,0" style="fill:#DC6130;stroke:#232323;stroke-width:0.5" /></svg></g></svg><svg height="24.000002772294565" width="83.13845156798646" class="aligned-offset-center" x="20.784612891996616" y="0.0"><svg height="24.000002772294565" width="20.784612891996616" class="rotate" x="0" y="0.0"><g class="transform" transform="translate(-1.607693554001692 1.6076965407340182) rotate(-90 12.0 10.392304845413264)"><svg width="24" height="20.784609690826528" x="0" y="0"><polygon points="0,20.784609690826528 24,20.784609690826528 12,0" style="fill:#DC6130;stroke:#232323;stroke-width:0.5" /></svg></g></svg><svg height="24.000002772294565" width="62.35383867598985" class="aligned-offset-center" x="20.784612891996616" y="0.0"><svg height="24.000002772294565" width="20.784612891996616" class="rotate" x="0" y="0.0"><g class="transform" transform="translate(-1.607693554001692 1.6076965407340182) rotate(90 12.0 10.392304845413264)"><svg width="24" height="20.784609690826528" x="0" y="0"><polygon points="0,20.784609690826528 24,20.784609690826528 12,0" style="fill:#A6EBEB;stroke:#232323;stroke-width:0.5" /></svg></g></svg><svg height="24.000002772294565" width="41.56922578399323" class="aligned-offset-center" x="20.784612891996616" y="0.0"><svg height="24.000002772294565" width="20.784612891996616" class="rotate" x="0" y="0.0"><g class="transform" transform="translate(-1.607693554001692 1.6076965407340182) rotate(-90 12.0 10.392304845413264)"><svg width="24" height="20.784609690826528" x="0" y="0"><polygon points="0,20.784609690826528 24,20.784609690826528 12,0" style="fill:#FFCF19;stroke:#232323;stroke-width:0.5" /></svg></g></svg><svg height="24.000002772294565" width="20.784612891996616" class="aligned-offset-center" x="20.784612891996616" y="0.0"><svg height="24.000002772294565" width="20.784612891996616" class="rotate" x="0" y="0.0"><g class="transform" transform="translate(-1.607693554001692 1.6076965407340182) rotate(90 12.0 10.392304845413264)"><svg width="24" height="20.784609690826528" x="0" y="0"><polygon points="0,20.784609690826528 24,20.784609690826528 12,0" style="fill:#FFFDD7;stroke:#232323;stroke-width:0.5" /></svg></g></svg><svg width="0" height="0" x="20.784612891996616" y="12.000001386147282"><rect style="fill:none;stroke:black;stroke-width:1" x="0.5" y="0.5" width="-1" height="-1" rx="0" ry="0" /></svg></svg></svg></svg></svg></svg></svg></svg></svg></svg></svg></svg></svg></svg></svg></svg></svg></svg></svg></svg><svg height="24.000002772294565" width="374.12303205593923" class="aligned-offset-center" x="0" y="0"><svg height="24.000002772294565" width="20.784612891996616" class="rotate" x="0" y="0.0"><g class="transform" transform="translate(-1.607693554001692 1.6076965407340182) rotate(90 12.0 10.392304845413264)"><svg height="20.784609690826528" width="24" class="opacity" x="0" y="0"><g opacity="0" class="opacity"><svg width="24" height="20.784609690826528" x="0" y="0"><polygon style="stroke:#232323;fill:none;stroke-width:0.5" points="0,20.784609690826528 24,20.784609690826528 12,0" /></svg></g></svg></g></svg><svg height="24.000002772294565" width="353.3384191639426" class="aligned-offset-center" x="20.784612891996616" y="0.0"><svg height="24.000002772294565" width="20.784612891996616" class="rotate" x="0" y="0.0"><g class="transform" transform="translate(-1.607693554001692 1.6076965407340182) rotate(-90 12.0 10.392304845413264)"><svg height="20.784609690826528" width="24" class="opacity" x="0" y="0"><g opacity="0" class="opacity"><svg width="24" height="20.784609690826528" x="0" y="0"><polygon style="stroke:#232323;fill:none;stroke-width:0.5" points="0,20.784609690826528 24,20.784609690826528 12,0" /></svg></g></svg></g></svg><svg height="24.000002772294565" width="332.553806271946" class="aligned-offset-center" x="20.784612891996616" y="0.0"><svg height="24.000002772294565" width="20.784612891996616" class="rotate" x="0" y="0.0"><g class="transform" transform="translate(-1.607693554001692 1.6076965407340182) rotate(90 12.0 10.392304845413264)"><svg width="24" height="20.784609690826528" x="0" y="0"><polygon points="0,20.784609690826528 24,20.784609690826528 12,0" style="fill:#FFFDD7;stroke:#232323;stroke-width:0.5" /></svg></g></svg><svg height="24.000002772294565" width="311.76919337994934" class="aligned-offset-center" x="20.784612891996616" y="0.0"><svg height="24.000002772294565" width="20.784612891996616" class="rotate" x="0" y="0.0"><g class="transform" transform="translate(-1.607693554001692 1.6076965407340182) rotate(-90 12.0 10.392304845413264)"><svg width="24" height="20.784609690826528" x="0" y="0"><polygon points="0,20.784609690826528 24,20.784609690826528 12,0" style="fill:#FFCF19;stroke:#232323;stroke-width:0.5" /></svg></g></svg><svg height="24.000002772294565" width="290.9845804879527" class="aligned-offset-center" x="20.784612891996616" y="0.0"><svg height="24.000002772294565" width="20.784612891996616" class="rotate" x="0" y="0.0"><g class="transform" transform="translate(-1.607693554001692 1.6076965407340182) rotate(90 12.0 10.392304845413264)"><svg height="20.784609690826528" width="24" class="opacity" x="0" y="0"><g opacity="0" class="opacity"><svg width="24" height="20.784609690826528" x="0" y="0"><polygon style="stroke:#232323;fill:none;stroke-width:0.5" points="0,20.784609690826528 24,20.784609690826528 12,0" /></svg></g></svg></g></svg><svg height="24.000002772294565" width="270.1999675959561" class="aligned-offset-center" x="20.784612891996616" y="0.0"><svg height="24.000002772294565" width="20.784612891996616" class="rotate" x="0" y="0.0"><g class="transform" transform="translate(-1.607693554001692 1.6076965407340182) rotate(-90 12.0 10.392304845413264)"><svg width="24" height="20.784609690826528" x="0" y="0"><polygon points="0,20.784609690826528 24,20.784609690826528 12,0" style="fill:#FFFDD7;stroke:#232323;stroke-width:0.5" /></svg></g></svg><svg height="24.000002772294565" width="249.41535470395945" class="aligned-offset-center" x="20.784612891996616" y="0.0"><svg height="24.000002772294565" width="20.784612891996616" class="rotate" x="0" y="0.0"><g class="transform" transform="translate(-1.607693554001692 1.6076965407340182) rotate(90 12.0 10.392304845413264)"><svg width="24" height="20.784609690826528" x="0" y="0"><polygon points="0,20.784609690826528 24,20.784609690826528 12,0" style="fill:#A6EBEB;stroke:#232323;stroke-width:0.5" /></svg></g></svg><svg height="24.000002772294565" width="228.63074181196282" class="aligned-offset-center" x="20.784612891996616" y="0.0"><svg height="24.000002772294565" width="20.784612891996616" class="rotate" x="0" y="0.0"><g class="transform" transform="translate(-1.607693554001692 1.6076965407340182) rotate(-90 12.0 10.392304845413264)"><svg width="24" height="20.784609690826528" x="0" y="0"><polygon points="0,20.784609690826528 24,20.784609690826528 12,0" style="fill:#DC6130;stroke:#232323;stroke-width:0.5" /></svg></g></svg><svg height="24.000002772294565" width="207.8461289199662" class="aligned-offset-center" x="20.784612891996616" y="0.0"><svg height="24.000002772294565" width="20.784612891996616" class="rotate" x="0" y="0.0"><g class="transform" transform="translate(-1.607693554001692 1.6076965407340182) rotate(90 12.0 10.392304845413264)"><svg width="24" height="20.784609690826528" x="0" y="0"><polygon points="0,20.784609690826528 24,20.784609690826528 12,0" style="fill:#A17F66;stroke:#232323;stroke-width:0.5" /></svg></g></svg><svg height="24.000002772294565" width="187.06151602796956" class="aligned-offset-center" x="20.784612891996616" y="0.0"><svg height="24.000002772294565" width="20.784612891996616" class="rotate" x="0" y="0.0"><g class="transform" transform="translate(-1.607693554001692 1.6076965407340182) rotate(-90 12.0 10.392304845413264)"><svg width="24" height="20.784609690826528" x="0" y="0"><polygon points="0,20.784609690826528 24,20.784609690826528 12,0" style="fill:#FFCF19;stroke:#232323;stroke-width:0.5" /></svg></g></svg><svg height="24.000002772294565" width="166.27690313597293" class="aligned-offset-center" x="20.784612891996616" y="0.0"><svg height="24.000002772294565" width="20.784612891996616" class="rotate" x="0" y="0.0"><g class="transform" transform="translate(-1.607693554001692 1.6076965407340182) rotate(90 12.0 10.392304845413264)"><svg width="24" height="20.784609690826528" x="0" y="0"><polygon points="0,20.784609690826528 24,20.784609690826528 12,0" style="fill:#DC6130;stroke:#232323;stroke-width:0.5" /></svg></g></svg><svg height="24.000002772294565" width="145.4922902439763" class="aligned-offset-center" x="20.784612891996616" y="0.0"><svg height="24.000002772294565" width="20.784612891996616" class="rotate" x="0" y="0.0"><g class="transform" transform="translate(-1.607693554001692 1.6076965407340182) rotate(-90 12.0 10.392304845413264)"><svg height="20.784609690826528" width="24" class="opacity" x="0" y="0"><g opacity="0" class="opacity"><svg width="24" height="20.784609690826528" x="0" y="0"><polygon style="stroke:#232323;fill:none;stroke-width:0.5" points="0,20.784609690826528 24,20.784609690826528 12,0" /></svg></g></svg></g></svg><svg height="24.000002772294565" width="124.7076773519797" class="aligned-offset-center" x="20.784612891996616" y="0.0"><svg height="24.000002772294565" width="20.784612891996616" class="rotate" x="0" y="0.0"><g class="transform" transform="translate(-1.607693554001692 1.6076965407340182) rotate(90 12.0 10.392304845413264)"><svg width="24" height="20.784609690826528" x="0" y="0"><polygon points="0,20.784609690826528 24,20.784609690826528 12,0" style="fill:#A17F66;stroke:#232323;stroke-width:0.5" /></svg></g></svg><svg height="24.000002772294565" width="103.92306445998308" class="aligned-offset-center" x="20.784612891996616" y="0.0"><svg height="24.000002772294565" width="20.784612891996616" class="rotate" x="0" y="0.0"><g class="transform" transform="translate(-1.607693554001692 1.6076965407340182) rotate(-90 12.0 10.392304845413264)"><svg width="24" height="20.784609690826528" x="0" y="0"><polygon points="0,20.784609690826528 24,20.784609690826528 12,0" style="fill:#FFCF19;stroke:#232323;stroke-width:0.5" /></svg></g></svg><svg height="24.000002772294565" width="83.13845156798646" class="aligned-offset-center" x="20.784612891996616" y="0.0"><svg height="24.000002772294565" width="20.784612891996616" class="rotate" x="0" y="0.0"><g class="transform" transform="translate(-1.607693554001692 1.6076965407340182) rotate(90 12.0 10.392304845413264)"><svg width="24" height="20.784609690826528" x="0" y="0"><polygon points="0,20.784609690826528 24,20.784609690826528 12,0" style="fill:#FFCF19;stroke:#232323;stroke-width:0.5" /></svg></g></svg><svg height="24.000002772294565" width="62.35383867598985" class="aligned-offset-center" x="20.784612891996616" y="0.0"><svg height="24.000002772294565" width="20.784612891996616" class="rotate" x="0" y="0.0"><g class="transform" transform="translate(-1.607693554001692 1.6076965407340182) rotate(-90 12.0 10.392304845413264)"><svg height="20.784609690826528" width="24" class="opacity" x="0" y="0"><g opacity="0" class="opacity"><svg width="24" height="20.784609690826528" x="0" y="0"><polygon style="stroke:#232323;fill:none;stroke-width:0.5" points="0,20.784609690826528 24,20.784609690826528 12,0" /></svg></g></svg></g></svg><svg height="24.000002772294565" width="41.56922578399323" class="aligned-offset-center" x="20.784612891996616" y="0.0"><svg height="24.000002772294565" width="20.784612891996616" class="rotate" x="0" y="0.0"><g class="transform" transform="translate(-1.607693554001692 1.6076965407340182) rotate(90 12.0 10.392304845413264)"><svg width="24" height="20.784609690826528" x="0" y="0"><polygon points="0,20.784609690826528 24,20.784609690826528 12,0" style="fill:#A6EBEB;stroke:#232323;stroke-width:0.5" /></svg></g></svg><svg height="24.000002772294565" width="20.784612891996616" class="aligned-offset-center" x="20.784612891996616" y="0.0"><svg height="24.000002772294565" width="20.784612891996616" class="rotate" x="0" y="0.0"><g class="transform" transform="translate(-1.607693554001692 1.6076965407340182) rotate(-90 12.0 10.392304845413264)"><svg width="24" height="20.784609690826528" x="0" y="0"><polygon points="0,20.784609690826528 24,20.784609690826528 12,0" style="fill:#FFCF19;stroke:#232323;stroke-width:0.5" /></svg></g></svg><svg width="0" height="0" x="20.784612891996616" y="12.000001386147282"><rect style="fill:none;stroke:black;stroke-width:1" x="0.5" y="0.5" width="-1" height="-1" rx="0" ry="0" /></svg></svg></svg></svg></svg></svg></svg></svg></svg></svg></svg></svg></svg></svg></svg></svg></svg></svg></svg></svg><svg height="24.000002772294565" width="374.12303205593923" class="aligned-offset-center" x="0" y="0"><svg height="24.000002772294565" width="20.784612891996616" class="rotate" x="0" y="0.0"><g class="transform" transform="translate(-1.607693554001692 1.6076965407340182) rotate(-90 12.0 10.392304845413264)"><svg height="20.784609690826528" width="24" class="opacity" x="0" y="0"><g opacity="0" class="opacity"><svg width="24" height="20.784609690826528" x="0" y="0"><polygon style="stroke:#232323;fill:none;stroke-width:0.5" points="0,20.784609690826528 24,20.784609690826528 12,0" /></svg></g></svg></g></svg><svg height="24.000002772294565" width="353.3384191639426" class="aligned-offset-center" x="20.784612891996616" y="0.0"><svg height="24.000002772294565" width="20.784612891996616" class="rotate" x="0" y="0.0"><g class="transform" transform="translate(-1.607693554001692 1.6076965407340182) rotate(90 12.0 10.392304845413264)"><svg width="24" height="20.784609690826528" x="0" y="0"><polygon points="0,20.784609690826528 24,20.784609690826528 12,0" style="fill:#FFFDD7;stroke:#232323;stroke-width:0.5" /></svg></g></svg><svg height="24.000002772294565" width="332.553806271946" class="aligned-offset-center" x="20.784612891996616" y="0.0"><svg height="24.000002772294565" width="20.784612891996616" class="rotate" x="0" y="0.0"><g class="transform" transform="translate(-1.607693554001692 1.6076965407340182) rotate(-90 12.0 10.392304845413264)"><svg width="24" height="20.784609690826528" x="0" y="0"><polygon points="0,20.784609690826528 24,20.784609690826528 12,0" style="fill:#A17F66;stroke:#232323;stroke-width:0.5" /></svg></g></svg><svg height="24.000002772294565" width="311.76919337994934" class="aligned-offset-center" x="20.784612891996616" y="0.0"><svg height="24.000002772294565" width="20.784612891996616" class="rotate" x="0" y="0.0"><g class="transform" transform="translate(-1.607693554001692 1.6076965407340182) rotate(90 12.0 10.392304845413264)"><svg height="20.784609690826528" width="24" class="opacity" x="0" y="0"><g opacity="0" class="opacity"><svg width="24" height="20.784609690826528" x="0" y="0"><polygon style="stroke:#232323;fill:none;stroke-width:0.5" points="0,20.784609690826528 24,20.784609690826528 12,0" /></svg></g></svg></g></svg><svg height="24.000002772294565" width="290.9845804879527" class="aligned-offset-center" x="20.784612891996616" y="0.0"><svg height="24.000002772294565" width="20.784612891996616" class="rotate" x="0" y="0.0"><g class="transform" transform="translate(-1.607693554001692 1.6076965407340182) rotate(-90 12.0 10.392304845413264)"><svg width="24" height="20.784609690826528" x="0" y="0"><polygon points="0,20.784609690826528 24,20.784609690826528 12,0" style="fill:#FFCF19;stroke:#232323;stroke-width:0.5" /></svg></g></svg><svg height="24.000002772294565" width="270.1999675959561" class="aligned-offset-center" x="20.784612891996616" y="0.0"><svg height="24.000002772294565" width="20.784612891996616" class="rotate" x="0" y="0.0"><g class="transform" transform="translate(-1.607693554001692 1.6076965407340182) rotate(90 12.0 10.392304845413264)"><svg width="24" height="20.784609690826528" x="0" y="0"><polygon points="0,20.784609690826528 24,20.784609690826528 12,0" style="fill:#A6EBEB;stroke:#232323;stroke-width:0.5" /></svg></g></svg><svg height="24.000002772294565" width="249.41535470395945" class="aligned-offset-center" x="20.784612891996616" y="0.0"><svg height="24.000002772294565" width="20.784612891996616" class="rotate" x="0" y="0.0"><g class="transform" transform="translate(-1.607693554001692 1.6076965407340182) rotate(-90 12.0 10.392304845413264)"><svg width="24" height="20.784609690826528" x="0" y="0"><polygon points="0,20.784609690826528 24,20.784609690826528 12,0" style="fill:#DC6130;stroke:#232323;stroke-width:0.5" /></svg></g></svg><svg height="24.000002772294565" width="228.63074181196282" class="aligned-offset-center" x="20.784612891996616" y="0.0"><svg height="24.000002772294565" width="20.784612891996616" class="rotate" x="0" y="0.0"><g class="transform" transform="translate(-1.607693554001692 1.6076965407340182) rotate(90 12.0 10.392304845413264)"><svg height="20.784609690826528" width="24" class="opacity" x="0" y="0"><g opacity="0" class="opacity"><svg width="24" height="20.784609690826528" x="0" y="0"><polygon style="stroke:#232323;fill:none;stroke-width:0.5" points="0,20.784609690826528 24,20.784609690826528 12,0" /></svg></g></svg></g></svg><svg height="24.000002772294565" width="207.8461289199662" class="aligned-offset-center" x="20.784612891996616" y="0.0"><svg height="24.000002772294565" width="20.784612891996616" class="rotate" x="0" y="0.0"><g class="transform" transform="translate(-1.607693554001692 1.6076965407340182) rotate(-90 12.0 10.392304845413264)"><svg width="24" height="20.784609690826528" x="0" y="0"><polygon points="0,20.784609690826528 24,20.784609690826528 12,0" style="fill:#A17F66;stroke:#232323;stroke-width:0.5" /></svg></g></svg><svg height="24.000002772294565" width="187.06151602796956" class="aligned-offset-center" x="20.784612891996616" y="0.0"><svg height="24.000002772294565" width="20.784612891996616" class="rotate" x="0" y="0.0"><g class="transform" transform="translate(-1.607693554001692 1.6076965407340182) rotate(90 12.0 10.392304845413264)"><svg height="20.784609690826528" width="24" class="opacity" x="0" y="0"><g opacity="0" class="opacity"><svg width="24" height="20.784609690826528" x="0" y="0"><polygon style="stroke:#232323;fill:none;stroke-width:0.5" points="0,20.784609690826528 24,20.784609690826528 12,0" /></svg></g></svg></g></svg><svg height="24.000002772294565" width="166.27690313597293" class="aligned-offset-center" x="20.784612891996616" y="0.0"><svg height="24.000002772294565" width="20.784612891996616" class="rotate" x="0" y="0.0"><g class="transform" transform="translate(-1.607693554001692 1.6076965407340182) rotate(-90 12.0 10.392304845413264)"><svg width="24" height="20.784609690826528" x="0" y="0"><polygon points="0,20.784609690826528 24,20.784609690826528 12,0" style="fill:#A17F66;stroke:#232323;stroke-width:0.5" /></svg></g></svg><svg height="24.000002772294565" width="145.4922902439763" class="aligned-offset-center" x="20.784612891996616" y="0.0"><svg height="24.000002772294565" width="20.784612891996616" class="rotate" x="0" y="0.0"><g class="transform" transform="translate(-1.607693554001692 1.6076965407340182) rotate(90 12.0 10.392304845413264)"><svg width="24" height="20.784609690826528" x="0" y="0"><polygon points="0,20.784609690826528 24,20.784609690826528 12,0" style="fill:#DC6130;stroke:#232323;stroke-width:0.5" /></svg></g></svg><svg height="24.000002772294565" width="124.7076773519797" class="aligned-offset-center" x="20.784612891996616" y="0.0"><svg height="24.000002772294565" width="20.784612891996616" class="rotate" x="0" y="0.0"><g class="transform" transform="translate(-1.607693554001692 1.6076965407340182) rotate(-90 12.0 10.392304845413264)"><svg width="24" height="20.784609690826528" x="0" y="0"><polygon points="0,20.784609690826528 24,20.784609690826528 12,0" style="fill:#DC6130;stroke:#232323;stroke-width:0.5" /></svg></g></svg><svg height="24.000002772294565" width="103.92306445998308" class="aligned-offset-center" x="20.784612891996616" y="0.0"><svg height="24.000002772294565" width="20.784612891996616" class="rotate" x="0" y="0.0"><g class="transform" transform="translate(-1.607693554001692 1.6076965407340182) rotate(90 12.0 10.392304845413264)"><svg width="24" height="20.784609690826528" x="0" y="0"><polygon points="0,20.784609690826528 24,20.784609690826528 12,0" style="fill:#FFCF19;stroke:#232323;stroke-width:0.5" /></svg></g></svg><svg height="24.000002772294565" width="83.13845156798646" class="aligned-offset-center" x="20.784612891996616" y="0.0"><svg height="24.000002772294565" width="20.784612891996616" class="rotate" x="0" y="0.0"><g class="transform" transform="translate(-1.607693554001692 1.6076965407340182) rotate(-90 12.0 10.392304845413264)"><svg width="24" height="20.784609690826528" x="0" y="0"><polygon points="0,20.784609690826528 24,20.784609690826528 12,0" style="fill:#A6EBEB;stroke:#232323;stroke-width:0.5" /></svg></g></svg><svg height="24.000002772294565" width="62.35383867598985" class="aligned-offset-center" x="20.784612891996616" y="0.0"><svg height="24.000002772294565" width="20.784612891996616" class="rotate" x="0" y="0.0"><g class="transform" transform="translate(-1.607693554001692 1.6076965407340182) rotate(90 12.0 10.392304845413264)"><svg width="24" height="20.784609690826528" x="0" y="0"><polygon points="0,20.784609690826528 24,20.784609690826528 12,0" style="fill:#A6EBEB;stroke:#232323;stroke-width:0.5" /></svg></g></svg><svg height="24.000002772294565" width="41.56922578399323" class="aligned-offset-center" x="20.784612891996616" y="0.0"><svg height="24.000002772294565" width="20.784612891996616" class="rotate" x="0" y="0.0"><g class="transform" transform="translate(-1.607693554001692 1.6076965407340182) rotate(-90 12.0 10.392304845413264)"><svg width="24" height="20.784609690826528" x="0" y="0"><polygon points="0,20.784609690826528 24,20.784609690826528 12,0" style="fill:#FFFDD7;stroke:#232323;stroke-width:0.5" /></svg></g></svg><svg height="24.000002772294565" width="20.784612891996616" class="aligned-offset-center" x="20.784612891996616" y="0.0"><svg height="24.000002772294565" width="20.784612891996616" class="rotate" x="0" y="0.0"><g class="transform" transform="translate(-1.607693554001692 1.6076965407340182) rotate(90 12.0 10.392304845413264)"><svg width="24" height="20.784609690826528" x="0" y="0"><polygon points="0,20.784609690826528 24,20.784609690826528 12,0" style="fill:#DC6130;stroke:#232323;stroke-width:0.5" /></svg></g></svg><svg width="0" height="0" x="20.784612891996616" y="12.000001386147282"><rect style="fill:none;stroke:black;stroke-width:1" x="0.5" y="0.5" width="-1" height="-1" rx="0" ry="0" /></svg></svg></svg></svg></svg></svg></svg></svg></svg></svg></svg></svg></svg></svg></svg></svg></svg></svg></svg></svg><svg height="24.000002772294565" width="374.12303205593923" class="aligned-offset-center" x="0" y="0"><svg height="24.000002772294565" width="20.784612891996616" class="rotate" x="0" y="0.0"><g class="transform" transform="translate(-1.607693554001692 1.6076965407340182) rotate(90 12.0 10.392304845413264)"><svg height="20.784609690826528" width="24" class="opacity" x="0" y="0"><g opacity="0" class="opacity"><svg width="24" height="20.784609690826528" x="0" y="0"><polygon style="stroke:#232323;fill:none;stroke-width:0.5" points="0,20.784609690826528 24,20.784609690826528 12,0" /></svg></g></svg></g></svg><svg height="24.000002772294565" width="353.3384191639426" class="aligned-offset-center" x="20.784612891996616" y="0.0"><svg height="24.000002772294565" width="20.784612891996616" class="rotate" x="0" y="0.0"><g class="transform" transform="translate(-1.607693554001692 1.6076965407340182) rotate(-90 12.0 10.392304845413264)"><svg width="24" height="20.784609690826528" x="0" y="0"><polygon points="0,20.784609690826528 24,20.784609690826528 12,0" style="fill:#FFFDD7;stroke:#232323;stroke-width:0.5" /></svg></g></svg><svg height="24.000002772294565" width="332.553806271946" class="aligned-offset-center" x="20.784612891996616" y="0.0"><svg height="24.000002772294565" width="20.784612891996616" class="rotate" x="0" y="0.0"><g class="transform" transform="translate(-1.607693554001692 1.6076965407340182) rotate(90 12.0 10.392304845413264)"><svg height="20.784609690826528" width="24" class="opacity" x="0" y="0"><g opacity="0" class="opacity"><svg width="24" height="20.784609690826528" x="0" y="0"><polygon style="stroke:#232323;fill:none;stroke-width:0.5" points="0,20.784609690826528 24,20.784609690826528 12,0" /></svg></g></svg></g></svg><svg height="24.000002772294565" width="311.76919337994934" class="aligned-offset-center" x="20.784612891996616" y="0.0"><svg height="24.000002772294565" width="20.784612891996616" class="rotate" x="0" y="0.0"><g class="transform" transform="translate(-1.607693554001692 1.6076965407340182) rotate(-90 12.0 10.392304845413264)"><svg width="24" height="20.784609690826528" x="0" y="0"><polygon points="0,20.784609690826528 24,20.784609690826528 12,0" style="fill:#A17F66;stroke:#232323;stroke-width:0.5" /></svg></g></svg><svg height="24.000002772294565" width="290.9845804879527" class="aligned-offset-center" x="20.784612891996616" y="0.0"><svg height="24.000002772294565" width="20.784612891996616" class="rotate" x="0" y="0.0"><g class="transform" transform="translate(-1.607693554001692 1.6076965407340182) rotate(90 12.0 10.392304845413264)"><svg width="24" height="20.784609690826528" x="0" y="0"><polygon points="0,20.784609690826528 24,20.784609690826528 12,0" style="fill:#DC6130;stroke:#232323;stroke-width:0.5" /></svg></g></svg><svg height="24.000002772294565" width="270.1999675959561" class="aligned-offset-center" x="20.784612891996616" y="0.0"><svg height="24.000002772294565" width="20.784612891996616" class="rotate" x="0" y="0.0"><g class="transform" transform="translate(-1.607693554001692 1.6076965407340182) rotate(-90 12.0 10.392304845413264)"><svg height="20.784609690826528" width="24" class="opacity" x="0" y="0"><g opacity="0" class="opacity"><svg width="24" height="20.784609690826528" x="0" y="0"><polygon style="stroke:#232323;fill:none;stroke-width:0.5" points="0,20.784609690826528 24,20.784609690826528 12,0" /></svg></g></svg></g></svg><svg height="24.000002772294565" width="249.41535470395945" class="aligned-offset-center" x="20.784612891996616" y="0.0"><svg height="24.000002772294565" width="20.784612891996616" class="rotate" x="0" y="0.0"><g class="transform" transform="translate(-1.607693554001692 1.6076965407340182) rotate(90 12.0 10.392304845413264)"><svg height="20.784609690826528" width="24" class="opacity" x="0" y="0"><g opacity="0" class="opacity"><svg width="24" height="20.784609690826528" x="0" y="0"><polygon style="stroke:#232323;fill:none;stroke-width:0.5" points="0,20.784609690826528 24,20.784609690826528 12,0" /></svg></g></svg></g></svg><svg height="24.000002772294565" width="228.63074181196282" class="aligned-offset-center" x="20.784612891996616" y="0.0"><svg height="24.000002772294565" width="20.784612891996616" class="rotate" x="0" y="0.0"><g class="transform" transform="translate(-1.607693554001692 1.6076965407340182) rotate(-90 12.0 10.392304845413264)"><svg width="24" height="20.784609690826528" x="0" y="0"><polygon points="0,20.784609690826528 24,20.784609690826528 12,0" style="fill:#A17F66;stroke:#232323;stroke-width:0.5" /></svg></g></svg><svg height="24.000002772294565" width="207.8461289199662" class="aligned-offset-center" x="20.784612891996616" y="0.0"><svg height="24.000002772294565" width="20.784612891996616" class="rotate" x="0" y="0.0"><g class="transform" transform="translate(-1.607693554001692 1.6076965407340182) rotate(90 12.0 10.392304845413264)"><svg width="24" height="20.784609690826528" x="0" y="0"><polygon points="0,20.784609690826528 24,20.784609690826528 12,0" style="fill:#FFCF19;stroke:#232323;stroke-width:0.5" /></svg></g></svg><svg height="24.000002772294565" width="187.06151602796956" class="aligned-offset-center" x="20.784612891996616" y="0.0"><svg height="24.000002772294565" width="20.784612891996616" class="rotate" x="0" y="0.0"><g class="transform" transform="translate(-1.607693554001692 1.6076965407340182) rotate(-90 12.0 10.392304845413264)"><svg width="24" height="20.784609690826528" x="0" y="0"><polygon points="0,20.784609690826528 24,20.784609690826528 12,0" style="fill:#FFCF19;stroke:#232323;stroke-width:0.5" /></svg></g></svg><svg height="24.000002772294565" width="166.27690313597293" class="aligned-offset-center" x="20.784612891996616" y="0.0"><svg height="24.000002772294565" width="20.784612891996616" class="rotate" x="0" y="0.0"><g class="transform" transform="translate(-1.607693554001692 1.6076965407340182) rotate(90 12.0 10.392304845413264)"><svg width="24" height="20.784609690826528" x="0" y="0"><polygon points="0,20.784609690826528 24,20.784609690826528 12,0" style="fill:#FFCF19;stroke:#232323;stroke-width:0.5" /></svg></g></svg><svg height="24.000002772294565" width="145.4922902439763" class="aligned-offset-center" x="20.784612891996616" y="0.0"><svg height="24.000002772294565" width="20.784612891996616" class="rotate" x="0" y="0.0"><g class="transform" transform="translate(-1.607693554001692 1.6076965407340182) rotate(-90 12.0 10.392304845413264)"><svg width="24" height="20.784609690826528" x="0" y="0"><polygon points="0,20.784609690826528 24,20.784609690826528 12,0" style="fill:#DC6130;stroke:#232323;stroke-width:0.5" /></svg></g></svg><svg height="24.000002772294565" width="124.7076773519797" class="aligned-offset-center" x="20.784612891996616" y="0.0"><svg height="24.000002772294565" width="20.784612891996616" class="rotate" x="0" y="0.0"><g class="transform" transform="translate(-1.607693554001692 1.6076965407340182) rotate(90 12.0 10.392304845413264)"><svg width="24" height="20.784609690826528" x="0" y="0"><polygon points="0,20.784609690826528 24,20.784609690826528 12,0" style="fill:#DC6130;stroke:#232323;stroke-width:0.5" /></svg></g></svg><svg height="24.000002772294565" width="103.92306445998308" class="aligned-offset-center" x="20.784612891996616" y="0.0"><svg height="24.000002772294565" width="20.784612891996616" class="rotate" x="0" y="0.0"><g class="transform" transform="translate(-1.607693554001692 1.6076965407340182) rotate(-90 12.0 10.392304845413264)"><svg width="24" height="20.784609690826528" x="0" y="0"><polygon points="0,20.784609690826528 24,20.784609690826528 12,0" style="fill:#A17F66;stroke:#232323;stroke-width:0.5" /></svg></g></svg><svg height="24.000002772294565" width="83.13845156798646" class="aligned-offset-center" x="20.784612891996616" y="0.0"><svg height="24.000002772294565" width="20.784612891996616" class="rotate" x="0" y="0.0"><g class="transform" transform="translate(-1.607693554001692 1.6076965407340182) rotate(90 12.0 10.392304845413264)"><svg width="24" height="20.784609690826528" x="0" y="0"><polygon points="0,20.784609690826528 24,20.784609690826528 12,0" style="fill:#FFCF19;stroke:#232323;stroke-width:0.5" /></svg></g></svg><svg height="24.000002772294565" width="62.35383867598985" class="aligned-offset-center" x="20.784612891996616" y="0.0"><svg height="24.000002772294565" width="20.784612891996616" class="rotate" x="0" y="0.0"><g class="transform" transform="translate(-1.607693554001692 1.6076965407340182) rotate(-90 12.0 10.392304845413264)"><svg height="20.784609690826528" width="24" class="opacity" x="0" y="0"><g opacity="0" class="opacity"><svg width="24" height="20.784609690826528" x="0" y="0"><polygon style="stroke:#232323;fill:none;stroke-width:0.5" points="0,20.784609690826528 24,20.784609690826528 12,0" /></svg></g></svg></g></svg><svg height="24.000002772294565" width="41.56922578399323" class="aligned-offset-center" x="20.784612891996616" y="0.0"><svg height="24.000002772294565" width="20.784612891996616" class="rotate" x="0" y="0.0"><g class="transform" transform="translate(-1.607693554001692 1.6076965407340182) rotate(90 12.0 10.392304845413264)"><svg width="24" height="20.784609690826528" x="0" y="0"><polygon points="0,20.784609690826528 24,20.784609690826528 12,0" style="fill:#FFCF19;stroke:#232323;stroke-width:0.5" /></svg></g></svg><svg height="24.000002772294565" width="20.784612891996616" class="aligned-offset-center" x="20.784612891996616" y="0.0"><svg height="24.000002772294565" width="20.784612891996616" class="rotate" x="0" y="0.0"><g class="transform" transform="translate(-1.607693554001692 1.6076965407340182) rotate(-90 12.0 10.392304845413264)"><svg width="24" height="20.784609690826528" x="0" y="0"><polygon points="0,20.784609690826528 24,20.784609690826528 12,0" style="fill:#A6EBEB;stroke:#232323;stroke-width:0.5" /></svg></g></svg><svg width="0" height="0" x="20.784612891996616" y="12.000001386147282"><rect style="fill:none;stroke:black;stroke-width:1" x="0.5" y="0.5" width="-1" height="-1" rx="0" ry="0" /></svg></svg></svg></svg></svg></svg></svg></svg></svg></svg></svg></svg></svg></svg></svg></svg></svg></svg></svg></svg></svg>