<svg width="374.1230320559391" height="48.00000554458913" xmlns="http://www.w3.org/2000/svg"><svg height="48.00000554458913" width="374.1230320559391" class="pinned" x="0" y="0"><svg height="48.00000554458913" width="374.1230320559391" class="pinned" x="0" y="24"><svg height="48.00000554458913" width="374.1230320559391" class="pinned" x="0" y="24"><svg height="48.00000554458913" width="374.1230320559391" class="pinned" x="0" y="24"><svg height="48.00000554458913" width="374.1230320559391" class="pinned" x="0" y="24"><svg height="48.00000554458913" width="374.1230320559391" class="pinned" x="0" y="24"><svg height="48.00000554458913" width="374.1230320559391" class="pinned" x="0" y="24"><svg height="48.00000554458913" width="374.1230320559391" class="pinned" x="0" y="24"><svg height="48.00000554458913" width="374.1230320559391" class="pinned" x="0" y="24"><svg width="0" height="0" x="0" y="24"><rect style="fill:none;stroke:black;stroke-width:1" x="0.5" y="0.5" width="-1" height="-1" rx="0" ry="0" /></svg><svg height="48.00000554458913" width="374.1230320559391" class="aligned-offset-center" x="0" y="0"><svg height="48.00000554458913" width="41.56922578399323" class="rotate" x="0" y="0.0"><g class="transform" transform="translate(-3.215387108003384 3.2153930814680365) rotate(-90 24.0 20.784609690826528)"><svg width="48" height="41.569219381653056" x="0" y="0"><polygon points="0,41.569219381653056 48,41.569219381653056 24,0" style="fill:#DC6130;stroke:#232323;stroke-width:0.5" /></svg></g></svg><svg height="48.00000554458913" width="332.55380627194586" class="aligned-offset-center" x="41.56922578399323" y="0.0"><svg height="48.00000554458913" width="41.56922578399323" class="rotate" x="0" y="0.0"><g class="transform" transform="translate(-3.215387108003384 3.2153930814680365) rotate(90 24.0 20.784609690826528)"><svg width="48" height="41.569219381653056" x="0" y="0"><polygon points="0,41.569219381653056 48,41.569219381653056 24,0" style="fill:#FFCF19;stroke:#232323;stroke-width:0.5" /></svg></g></svg><svg height="48.00000554458913" width="290.9845804879526" class="aligned-offset-center" x="41.56922578399323" y="0.0"><svg height="48.00000554458913" width="41.56922578399323" class="rotate" x="0" y="0.0"><g class="transform" transform="translate(-3.215387108003384 3.2153930814680365) rotate(-90 24.0 20.784609690826528)"><svg width="48" height="41.569219381653056" x="0" y="0"><polygon points="0,41.569219381653056 48,41.569219381653056 24,0" style="fill:#A17F66;stroke:#232323;stroke-width:0.5" /></svg></g></svg><svg height="48.00000554458913" width="249.4153547039594" class="aligned-offset-center" x="41.56922578399323" y="0.0"><svg height="48.00000554458913" width="41.56922578399323" class="rotate" x="0" y="0.0"><g class="transform" transform="translate(-3.215387108003384 3.2153930814680365) rotate(90 24.0 20.784609690826528)"><svg width="48" height="41.569219381653056" x="0" y="0"><polygon points="0,41.569219381653056 48,41.569219381653056 24,0" style="fill:#FFCF19;stroke:#232323;stroke-width:0.5" /></svg></g></svg><svg height="48.00000554458913" width="207.84612891996616" class="aligned-offset-center" x="41.56922578399323" y="0.0"><svg height="48.00000554458913" width="41.56922578399323" class="rotate" x="0" y="0.0"><g class="transform" transform="translate(-3.215387108003384 3.2153930814680365) rotate(-90 24.0 20.784609690826528)"><svg width="48" height="41.569219381653056" x="0" y="0"><polygon points="0,41.569219381653056 48,41.569219381653056 24,0" style="fill:#A6EBEB;stroke:#232323;stroke-width:0.5" /></svg></g></svg><svg height="48.00000554458913" width="166.27690313597293" class="aligned-offset-center" x="41.56922578399323" y="0.0"><svg height="48.00000554458913" width="41.56922578399323" class="rotate" x="0" y="0.0"><g class="transform" transform="translate(-3.215387108003384 3.2153930814680365) rotate(90 24.0 20.784609690826528)"><svg width="48" height="41.569219381653056" x="0" y="0"><polygon points="0,41.569219381653056 48,41.569219381653056 24,0" style="fill:#A6EBEB;stroke:#232323;stroke-width:0.5" /></svg></g></svg><svg height="48.00000554458913" width="124.7076773519797" class="aligned-offset-center" x="41.56922578399323" y="0.0"><svg height="48.00000554458913" width="41.56922578399323" class="rotate" x="0" y="0.0"><g class="transform" transform="translate(-3.215387108003384 3.2153930814680365) rotate(-90 24.0 20.784609690826528)"><svg width="48" height="41.569219381653056" x="0" y="0"><polygon points="0,41.569219381653056 48,41.569219381653056 24,0" style="fill:#FFCF19;stroke:#232323;stroke-width:0.5" /></svg></g></svg><svg height="48.00000554458913" width="83.13845156798646" class="aligned-offset-center" x="41.56922578399323" y="0.0"><svg height="48.00000554458913" width="41.56922578399323" class="rotate" x="0" y="0.0"><g class="transform" transform="translate(-3.215387108003384 3.2153930814680365) rotate(90 24.0 20.784609690826528)"><svg width="48" height="41.569219381653056" x="0" y="0"><polygon points="0,41.569219381653056 48,41.569219381653056 24,0" style="fill:#A6EBEB;stroke:#232323;stroke-width:0.5" /></svg></g></svg><svg height="48.00000554458913" width="41.56922578399323" class="aligned-offset-center" x="41.56922578399323" y="0.0"><svg height="48.00000554458913" width="41.56922578399323" class="rotate" x="0" y="0.0"><g class="transform" transform="translate(-3.215387108003384 3.2153930814680365) rotate(-90 24.0 20.784609690826528)"><svg height="41.569219381653056" width="48" class="opacity" x="0" y="0"><g opacity="0" class="opacity"><svg width="48" height="41.569219381653056" x="0" y="0"><polygon style="stroke:#232323;fill:none;stroke-width:0.5" points="0,41.569219381653056 48,41.569219381653056 24,0" /></svg></g></svg></g></svg><svg width="0" height="0" x="41.56922578399323" y="24.000002772294565"><rect style="fill:none;stroke:black;stroke-width:1" x="0.5" y="0.5" width="-1" height="-1" rx="0" ry="0" /></svg></svg></svg></svg></svg></svg></svg></svg></svg></svg></svg><svg height="48.00000554458913" width="374.1230320559391" class="aligned-offset-center" x="0" y="0"><svg height="48.00000554458913" width="41.56922578399323" class="rotate" x="0" y="0.0"><g class="transform" transform="translate(-3.215387108003384 3.2153930814680365) rotate(90 24.0 20.784609690826528)"><svg width="48" height="41.569219381653056" x="0" y="0"><polygon points="0,41.569219381653056 48,41.569219381653056 24,0" style="fill:#A17F66;stroke:#232323;stroke-width:0.5" /></svg></g></svg><svg height="48.00000554458913" width="332.55380627194586" class="aligned-offset-center" x="41.56922578399323" y="0.0"><svg height="48.00000554458913" width="41.56922578399323" class="rotate" x="0" y="0.0"><g class="transform" transform="translate(-3.215387108003384 3.2153930814680365) rotate(-90 24.0 20.784609690826528)"><svg width="48" height="41.569219381653056" x="0" y="0"><polygon points="0,41.569219381653056 48,41.569219381653056 24,0" style="fill:#DC6130;stroke:#232323;stroke-width:0.5" /></svg></g></svg><svg height="48.00000554458913" width="290.9845804879526" class="aligned-offset-center" x="41.56922578399323" y="0.0"><svg height="48.00000554458913" width="41.56922578399323" class="rotate" x="0" y="0.0"><g class="transform" transform="translate(-3.215387108003384 3.2153930814680365) rotate(90 24.0 20.784609690826528)"><svg width="48" height="41.569219381653056" x="0" y="0"><polygon points="0,41.569219381653056 48,41.569219381653056 24,0" style="fill:#A17F66;stroke:#232323;stroke-width:0.5" /></svg></g></svg><svg height="48.00000554458913" width="249.4153547039594" class="aligned-offset-center" x="41.56922578399323" y="0.0"><svg height="48.00000554458913" width="41.56922578399323" class="rotate" x="0" y="0.0"><g class="transform" transform="translate(-3.215387108003384 3.2153930814680365) rotate(-90 24.0 20.784609690826528)"><svg width="48" height="41.569219381653056" x="0" y="0"><polygon points="0,41.569219381653056 48,41.569219381653056 24,0" style="fill:#FFFDD7;stroke:#232323;stroke-width:0.5" /></svg></g></svg><svg height="48.00000554458913" width="207.84612891996616" class="aligned-offset-center" x="41.56922578399323" y="0.0"><svg height="48.00000554458913" width="41.56922578399323" class="rotate" x="0" y="0.0"><g class="transform" transform="translate(-3.215387108003384 3.2153930814680365) rotate(90 24.0 20.784609690826528)"><svg width="48" height="41.569219381653056" x="0" y="0"><polygon points="0,41.569219381653056 48,41.569219381653056 24,0" style="fill:#A17F66;stroke:#232323;stroke-width:0.5" /></svg></g></svg><svg height="48.00000554458913" width="166.27690313597293" class="aligned-offset-center" x="41.56922578399323" y="0.0"><svg height="48.00000554458913" width="41.56922578399323" class="rotate" x="0" y="0.0"><g class="transform" transform="translate(-3.215387108003384 3.2153930814680365) rotate(-90 24.0 20.784609690826528)"><svg width="48" height="41.569219381653056" x="0" y="0"><polygon points="0,41.569219381653056 48,41.569219381653056 24,0" style="fill:#FFCF19;stroke:#232323;stroke-width:0.5" /></svg></g></svg><svg height="48.00000554458913" width="124.7076773519797" class="aligned-offset-center" x="41.56922578399323" y="0.0"><svg height="48.00000554458913" width="41.56922578399323" class="rotate" x="0" y="0.0"><g class="transform" transform="translate(-3.215387108003384 3.2153930814680365) rotate(90 24.0 20.784609690826528)"><svg width="48" height="41.569219381653056" x="0" y="0"><polygon points="0,41.569219381653056 48,41.569219381653056 24,0" style="fill:#DC6130;stroke:#232323;stroke-width:0.5" /></svg></g></svg><svg height="48.00000554458913" width="83.13845156798646" class="aligned-offset-center" x="41.56922578399323" y="0.0"><svg height="48.00000554458913" width="41.56922578399323" class="rotate" x="0" y="0.0"><g class="transform" transform="translate(-3.215387108003384 3.2153930814680365) rotate(-90 24.0 20.784609690826528)"><svg width="48" height="41.569219381653056" x="0" y="0"><polygon points="0,41.569219381653056 48,41.569219381653056 24,0" style="fill:#A17F66;stroke:#232323;stroke-width:0.5" /></svg></g></svg><svg height="48.00000554458913" width="41.56922578399323" class="aligned-offset-center" x="41.56922578399323" y="0.0"><svg height="48.00000554458913" width="41.56922578399323" class="rotate" x="0" y="0.0"><g class="transform" transform="translate(-3.215387108003384 3.2153930814680365) rotate(90 24.0 20.784609690826528)"><svg width="48" height="41.569219381653056" x="0" y="0"><polygon points="0,41.569219381653056 48,41.569219381653056 24,0" style="fill:#A6EBEB;stroke:#232323;stroke-width:0.5" /></svg></g></svg><svg width="0" height="0" x="41.56922578399323" y="24.000002772294565"><rect style="fill:none;stroke:black;stroke-width:1" x="0.5" y="0.5" width="-1" height="-1" rx="0" ry="0" /></svg></svg></svg></svg></svg></svg></svg></svg></svg></svg></svg><svg height="48.00000554458913" width="374.1230320559391" class="aligned-offset-center" x="0" y="0"><svg height="48.00000554458913" width="41.56922578399323" class="rotate" x="0" y="0.0"><g class="transform" transform="translate(-3.215387108003384 3.2153930814680365) rotate(-90 24.0 20.784609690826528)"><svg width="48" height="41.569219381653056" x="0" y="0"><polygon points="0,41.569219381653056 48,41.569219381653056 24,0" style="fill:#FFFDD7;stroke:#232323;stroke-width:0.5" /></svg></g></svg><svg height="48.00000554458913" width="332.55380627194586" class="aligned-offset-center" x="41.56922578399323" y="0.0"><svg height="48.00000554458913" width="41.56922578399323" class="rotate" x="0" y="0.0"><g class="transform" transform="translate(-3.215387108003384 3.2153930814680365) rotate(90 24.0 20.784609690826528)"><svg width="48" height="41.569219381653056" x="0" y="0"><polygon points="0,41.569219381653056 48,41.569219381653056 24,0" style="fill:#A17F66;stroke:#232323;stroke-width:0.5" /></svg></g></svg><svg height="48.00000554458913" width="290.9845804879526" class="aligned-offset-center" x="41.56922578399323" y="0.0"><svg height="48.00000554458913" width="41.56922578399323" class="rotate" x="0" y="0.0"><g class="transform" transform="translate(-3.215387108003384 3.2153930814680365) rotate(-90 24.0 20.784609690826528)"><svg width="48" height="41.569219381653056" x="0" y="0"><polygon points="0,41.569219381653056 48,41.569219381653056 24,0" style="fill:#A17F66;stroke:#232323;stroke-width:0.5" /></svg></g></svg><svg height="48.00000554458913" width="249.4153547039594" class="aligned-offset-center" x="41.56922578399323" y="0.0"><svg height="48.00000554458913" width="41.56922578399323" class="rotate" x="0" y="0.0"><g class="transform" transform="translate(-3.215387108003384 3.2153930814680365) rotate(90 24.0 20.784609690826528)"><svg width="48" height="41.569219381653056" x="0" y="0"><polygon points="0,41.569219381653056 48,41.569219381653056 24,0" style="fill:#DC6130;stroke:#232323;stroke-width:0.5" /></svg></g></svg><svg height="48.00000554458913" width="207.84612891996616" class="aligned-offset-center" x="41.56922578399323" y="0.0"><svg height="48.00000554458913" width="41.56922578399323" class="rotate" x="0" y="0.0"><g class="transform" transform="translate(-3.215387108003384 3.2153930814680365) rotate(-90 24.0 20.784609690826528)"><svg width="48" height="41.569219381653056" x="0" y="0"><polygon points="0,41.569219381653056 48,41.569219381653056 24,0" style="fill:#A6EBEB;stroke:#232323;stroke-width:0.5" /></svg></g></svg><svg height="48.00000554458913" width="166.27690313597293" class="aligned-offset-center" x="41.56922578399323" y="0.0"><svg height="48.00000554458913" width="41.56922578399323" class="rotate" x="0" y="0.0"><g class="transform" transform="translate(-3.215387108003384 3.2153930814680365) rotate(90 24.0 20.784609690826528)"><svg width="48" height="41.569219381653056" x="0" y="0"><polygon points="0,41.569219381653056 48,41.569219381653056 24,0" style="fill:#A6EBEB;stroke:#232323;stroke-width:0.5" /></svg></g></svg><svg height="48.00000554458913" width="124.7076773519797" class="aligned-offset-center" x="41.56922578399323" y="0.0"><svg height="48.00000554458913" width="41.56922578399323" class="rotate" x="0" y="0.0"><g class="transform" transform="translate(-3.215387108003384 3.2153930814680365) rotate(-90 24.0 20.784609690826528)"><svg width="48" height="41.569219381653056" x="0" y="0"><polygon points="0,41.569219381653056 48,41.569219381653056 24,0" style="fill:#FFFDD7;stroke:#232323;stroke-width:0.5" /></svg></g></svg><svg height="48.00000554458913" width="83.13845156798646" class="aligned-offset-center" x="41.56922578399323" y="0.0"><svg height="48.00000554458913" width="41.56922578399323" class="rotate" x="0" y="0.0"><g class="transform" transform="translate(-3.215387108003384 3.2153930814680365) rotate(90 24.0 20.784609690826528)"><svg width="48" height="41.569219381653056" x="0" y="0"><polygon points="0,41.569219381653056 48,41.569219381653056 24,0" style="fill:#DC6130;stroke:#232323;stroke-width:0.5" /></svg></g></svg><svg height="48.00000554458913" width="41.56922578399323" class="aligned-offset-center" x="41.56922578399323" y="0.0"><svg height="48.00000554458913" width="41.56922578399323" class="rotate" x="0" y="0.0"><g class="transform" transform="translate(-3.215387108003384 3.2153930814680365) rotate(-90 24.0 20.784609690826528)"><svg width="48" height="41.569219381653056" x="0" y="0"><polygon points="0,41.569219381653056 48,41.569219381653056 24,0" style="fill:#FFFDD7;stroke:#232323;stroke-width:0.5" /></svg></g></svg><svg width="0" height="0" x="41.56922578399323" y="24.000002772294565"><rect style="fill:none;stroke:black;stroke-width:1" x="0.5" y="0.5" width="-1" height="-1" rx="0" ry="0" /></svg></svg></svg></svg></svg></svg></svg></svg></svg></svg></svg><svg height="48.00000554458913" width="374.1230320559391" class="aligned-offset-center" x="0" y="0"><svg height="48.00000554458913" width="41.56922578399323" class="rotate" x="0" y="0.0"><g class="transform" transform="translate(-3.215387108003384 3.2153930814680365) rotate(90 24.0 20.784609690826528)"><svg width="48" height="41.569219381653056" x="0" y="0"><polygon points="0,41.569219381653056 48,41.569219381653056 24,0" style="fill:#A17F66;stroke:#232323;stroke-width:0.5" /></svg></g></svg><svg height="48.00000554458913" width="332.55380627194586" class="aligned-offset-center" x="41.56922578399323" y="0.0"><svg height="48.00000554458913" width="41.56922578399323" class="rotate" x="0" y="0.0"><g class="transform" transform="translate(-3.215387108003384 3.2153930814680365) rotate(-90 24.0 20.784609690826528)"><svg width="48" height="41.569219381653056" x="0" y="0"><polygon points="0,41.569219381653056 48,41.569219381653056 24,0" style="fill:#A6EBEB;stroke:#232323;stroke-width:0.5" /></svg></g></svg><svg height="48.00000554458913" width="290.9845804879526" class="aligned-offset-center" x="41.56922578399323" y="0.0"><svg height="48.00000554458913" width="41.56922578399323" class="rotate" x="0" y="0.0"><g class="transform" transform="translate(-3.215387108003384 3.2153930814680365) rotate(90 24.0 20.784609690826528)"><svg width="48" height="41.569219381653056" x="0" y="0"><polygon points="0,41.569219381653056 48,41.569219381653056 24,0" style="fill:#FFFDD7;stroke:#232323;stroke-width:0.5" /></svg></g></svg><svg height="48.00000554458913" width="249.4153547039594" class="aligned-offset-center" x="41.56922578399323" y="0.0"><svg height="48.00000554458913" width="41.56922578399323" class="rotate" x="0" y="0.0"><g class="transform" transform="translate(-3.215387108003384 3.2153930814680365) rotate(-90 24.0 20.784609690826528)"><svg height="41.569219381653056" width="48" class="opacity" x="0" y="0"><g opacity="0" class="opacity"><svg width="48" height="41.569219381653056" x="0" y="0"><polygon style="stroke:#232323;fill:none;stroke-width:0.5" points="0,41.569219381653056 48,41.569219381653056 24,0" /></svg></g></svg></g></svg><svg height="48.00000554458913" width="207.84612891996616" class="aligned-offset-center" x="41.56922578399323" y="0.0"><svg height="48.00000554458913" width="41.56922578399323" class="rotate" x="0" y="0.0"><g class="transform" transform="translate(-3.215387108003384 3.2153930814680365) rotate(90 24.0 20.784609690826528)"><svg width="48" height="41.569219381653056" x="0" y="0"><polygon points="0,41.569219381653056 48,41.569219381653056 24,0" style="fill:#A6EBEB;stroke:#232323;stroke-width:0.5" /></svg></g></svg><svg height="48.00000554458913" width="166.27690313597293" class="aligned-offset-center" x="41.56922578399323" y="0.0"><svg height="48.00000554458913" width="41.56922578399323" class="rotate" x="0" y="0.0"><g class="transform" transform="translate(-3.215387108003384 3.2153930814680365) rotate(-90 24.0 20.784609690826528)"><svg width="48" height="41.569219381653056" x="0" y="0"><polygon points="0,41.569219381653056 48,41.569219381653056 24,0" style="fill:#FFCF19;stroke:#232323;stroke-width:0.5" /></svg></g></svg><svg height="48.00000554458913" width="124.7076773519797" class="aligned-offset-center" x="41.56922578399323" y="0.0"><svg height="48.00000554458913" width="41.56922578399323" class="rotate" x="0" y="0.0"><g class="transform" transform="translate(-3.215387108003384 3.2153930814680365) rotate(90 24.0 20.784609690826528)"><svg height="41.569219381653056" width="48" class="opacity" x="0" y="0"><g opacity="0" class="opacity"><svg width="48" height="41.569219381653056" x="0" y="0"><polygon style="stroke:#232323;fill:none;stroke-width:0.5" points="0,41.569219381653056 48,41.569219381653056 24,0" /></svg></g></svg></g></svg><svg height="48.00000554458913" width="83.13845156798646" class="aligned-offset-center" x="41.56922578399323" y="0.0"><svg height="48.00000554458913" width="41.56922578399323" class="rotate" x="0" y="0.0"><g class="transform" transform="translate(-3.215387108003384 3.2153930814680365) rotate(-90 24.0 20.784609690826528)"><svg width="48" height="41.569219381653056" x="0" y="0"><polygon points="0,41.569219381653056 48,41.569219381653056 24,0" style="fill:#FFCF19;stroke:#232323;stroke-width:0.5" /></svg></g></svg><svg height="48.00000554458913" width="41.56922578399323" class="aligned-offset-center" x="41.56922578399323" y="0.0"><svg height="48.00000554458913" width="41.56922578399323" class="rotate" x="0" y="0.0"><g class="transform" transform="translate(-3.215387108003384 3.2153930814680365) rotate(90 24.0 20.784609690826528)"><svg height="41.569219381653056" width="48" class="opacity" x="0" y="0"><g opacity="0" class="opacity"><svg width="48" height="41.569219381653056" x="0" y="0"><polygon style="stroke:#232323;fill:none;stroke-width:0.5" points="0,41.569219381653056 48,41.569219381653056 24,0" /></svg></g></svg></g></svg><svg width="0" height="0" x="41.56922578399323" y="24.000002772294565"><rect style="fill:none;stroke:black;stroke-width:1" x="0.5" y="0.5" width="-1" height="-1" rx="0" ry="0" /></svg></svg></svg></svg></svg></svg></svg></svg></svg></svg></svg><svg height="48.00000554458913" width="374.1230320559391" class="aligned-offset-center" x="0" y="0"><svg height="48.00000554458913" width="41.56922578399323" class="rotate" x="0" y="0.0"><g class="transform" transform="translate(-3.215387108003384 3.2153930814680365) rotate(-90 24.0 20.784609690826528)"><svg width="48" height="41.569219381653056" x="0" y="0"><polygon points="0,41.569219381653056 48,41.569219381653056 24,0" style="fill:#A6EBEB;stroke:#232323;stroke-width:0.5" /></svg></g></svg><svg height="48.00000554458913" width="332.55380627194586" class="aligned-offset-center" x="41.56922578399323" y="0.0"><svg height="48.00000554458913" width="41.56922578399323" class="rotate" x="0" y="0.0"><g class="transform" transform="translate(-3.215387108003384 3.2153930814680365) rotate(90 24.0 20.784609690826528)"><svg width="48" height="41.569219381653056" x="0" y="0"><polygon points="0,41.569219381653056 48,41.569219381653056 24,0" style="fill:#A6EBEB;stroke:#232323;stroke-width:0.5" /></svg></g></svg><svg height="48.00000554458913" width="290.9845804879526" class="aligned-offset-center" x="41.56922578399323" y="0.0"><svg height="48.00000554458913" width="41.56922578399323" class="rotate" x="0" y="0.0"><g class="transform" transform="translate(-3.215387108003384 3.2153930814680365) rotate(-90 24.0 20.784609690826528)"><svg width="48" height="41.569219381653056" x="0" y="0"><polygon points="0,41.569219381653056 48,41.569219381653056 24,0" style="fill:#A6EBEB;stroke:#232323;stroke-width:0.5" /></svg></g></svg><svg height="48.00000554458913" width="249.4153547039594" class="aligned-offset-center" x="41.56922578399323" y="0.0"><svg height="48.00000554458913" width="41.56922578399323" class="rotate" x="0" y="0.0"><g class="transform" transform="translate(-3.215387108003384 3.2153930814680365) rotate(90 24.0 20.784609690826528)"><svg width="48" height="41.569219381653056" x="0" y="0"><polygon points="0,41.569219381653056 48,41.569219381653056 24,0" style="fill:#FFFDD7;stroke:#232323;stroke-width:0.5" /></svg></g></svg><svg height="48.00000554458913" width="207.84612891996616" class="aligned-offset-center" x="41.56922578399323" y="0.0"><svg height="48.00000554458913" width="41.56922578399323" class="rotate" x="0" y="0.0"><g class="transform" transform="translate(-3.215387108003384 3.2153930814680365) rotate(-90 24.0 20.784609690826528)"><svg width="48" height="41.569219381653056" x="0" y="0"><polygon points="0,41.569219381653056 48,41.569219381653056 24,0" style="fill:#A17F66;stroke:#232323;stroke-width:0.5" /></svg></g></svg><svg height="48.00000554458913" width="166.27690313597293" class="aligned-offset-center" x="41.56922578399323" y="0.0"><svg height="48.00000554458913" width="41.56922578399323" class="rotate" x="0" y="0.0"><g class="transform" transform="translate(-3.215387108003384 3.2153930814680365) rotate(90 24.0 20.784609690826528)"><svg width="48" height="41.569219381653056" x="0" y="0"><polygon points="0,41.569219381653056 48,41.569219381653056 24,0" style="fill:#A17F66;stroke:#232323;stroke-width:0.5" /></svg></g></svg><svg height="48.00000554458913" width="124.7076773519797" class="aligned-offset-center" x="41.56922578399323" y="0.0"><svg height="48.00000554458913" width="41.56922578399323" class="rotate" x="0" y="0.0"><g class="transform" transform="translate(-3.215387108003384 3.2153930814680365) rotate(-90 24.0 20.784609690826528)"><svg width="48" height="41.569219381653056" x="0" y="0"><polygon points="0,41.569219381653056 48,41.569219381653056 24,0" style="fill:#FFCF19;stroke:#232323;stroke-width:0.5" /></svg></g></svg><svg height="48.00000554458913" width="83.13845156798646" class="aligned-offset-center" x="41.56922578399323" y="0.0"><svg height="48.00000554458913" width="41.56922578399323" class="rotate" x="0" y="0.0"><g class="transform" transform="translate(-3.215387108003384 3.2153930814680365) rotate(90 24.0 20.784609690826528)"><svg width="48" height="41.569219381653056" x="0" y="0"><polygon points="0,41.569219381653056 48,41.569219381653056 24,0" style="fill:#FFCF19;stroke:#232323;stroke-width:0.5" /></svg></g></svg><svg height="48.00000554458913" width="41.56922578399323" class="aligned-offset-center" x="41.56922578399323" y="0.0"><svg height="48.00000554458913" width="41.56922578399323" class="rotate" x="0" y="0.0"><g class="transform" transform="translate(-3.215387108003384 3.2153930814680365) rotate(-90 24.0 20.784609690826528)"><svg width="48" height="41.569219381653056" x="0" y="0"><polygon points="0,41.569219381653056 48,41.569219381653056 24,0" style="fill:#FFCF19;stroke:#232323;stroke-width:0.5" /></svg></g></svg><svg width="0" height="0" x="41.56922578399323" y="24.000002772294565"><rect style="fill:none;stroke:black;stroke-width:1" x="0.5" y="0.5" width="-1" height="-1" rx="0" ry="0" /></svg></svg></svg></svg></svg></svg></svg></svg></svg></svg></svg><svg height="48.00000554458913" width="374.1230320559391" class="aligned-offset-center" x="0" y="0"><svg height="48.00000554458913" width="41.56922578399323" class="rotate" x="0" y="0.0"><g class="transform" transform="translate(-3.215387108003384 3.2153930814680365) rotate(90 24.0 20.784609690826528)"><svg width="48" height="41.569219381653056" x="0" y="0"><polygon points="0,41.569219381653056 48,41.569219381653056 24,0" style="fill:#A6EBEB;stroke:#232323;stroke-width:0.5" /></svg></g></svg><svg height="48.00000554458913" width="332.55380627194586" class="aligned-offset-center" x="41.56922578399323" y="0.0"><svg height="48.00000554458913" width="41.56922578399323" class="rotate" x="0" y="0.0"><g class="transform" transform="translate(-3.215387108003384 3.2153930814680365) rotate(-90 24.0 20.784609690826528)"><svg width="48" height="41.569219381653056" x="0" y="0"><polygon points="0,41.569219381653056 48,41.569219381653056 24,0" style="fill:#A6EBEB;stroke:#232323;stroke-width:0.5" /></svg></g></svg><svg height="48.00000554458913" width="290.9845804879526" class="aligned-offset-center" x="41.56922578399323" y="0.0"><svg height="48.00000554458913" width="41.56922578399323" class="rotate" x="0" y="0.0"><g class="transform" transform="translate(-3.215387108003384 3.2153930814680365) rotate(90 24.0 20.784609690826528)"><svg width="48" height="41.569219381653056" x="0" y="0"><polygon points="0,41.569219381653056 48,41.569219381653056 24,0" style="fill:#DC6130;stroke:#232323;stroke-width:0.5" /></svg></g></svg><svg height="48.00000554458913" width="249.4153547039594" class="aligned-offset-center" x="41.56922578399323" y="0.0"><svg height="48.00000554458913" width="41.56922578399323" class="rotate" x="0" y="0.0"><g class="transform" transform="translate(-3.215387108003384 3.2153930814680365) rotate(-90 24.0 20.784609690826528)"><svg width="48" height="41.569219381653056" x="0" y="0"><polygon points="0,41.569219381653056 48,41.569219381653056 24,0" style="fill:#A17F66;stroke:#232323;stroke-width:0.5" /></svg></g></svg><svg height="48.00000554458913" width="207.84612891996616" class="aligned-offset-center" x="41.56922578399323" y="0.0"><svg height="48.00000554458913" width="41.56922578399323" class="rotate" x="0" y="0.0"><g class="transform" transform="translate(-3.215387108003384 3.2153930814680365) rotate(90 24.0 20.784609690826528)"><svg width="48" height="41.569219381653056" x="0" y="0"><polygon points="0,41.569219381653056 48,41.569219381653056 24,0" style="fill:#FFFDD7;stroke:#232323;stroke-width:0.5" /></svg></g></svg><svg height="48.00000554458913" width="166.27690313597293" class="aligned-offset-center" x="41.56922578399323" y="0.0"><svg height="48.00000554458913" width="41.56922578399323" class="rotate" x="0" y="0.0"><g class="transform" transform="translate(-3.215387108003384 3.2153930814680365) rotate(-90 24.0 20.784609690826528)"><svg width="48" height="41.569219381653056" x="0" y="0"><polygon points="0,41.569219381653056 48,41.569219381653056 24,0" style="fill:#A17F66;stroke:#232323;stroke-width:0.5" /></svg></g></svg><svg height="48.00000554458913" width="124.7076773519797" class="aligned-offset-center" x="41.56922578399323" y="0.0"><svg height="48.00000554458913" width="41.56922578399323" class="rotate" x="0" y="0.0"><g class="transform" transform="translate(-3.215387108003384 3.2153930814680365) rotate(90 24.0 20.784609690826528)"><svg width="48" height="41.569219381653056" x="0" y="0"><polygon points="0,41.569219381653056 48,41.569219381653056 24,0" style="fill:#A6EBEB;stroke:#232323;stroke-width:0.5" /></svg></g></svg><svg height="48.00000554458913" width="83.13845156798646" class="aligned-offset-center" x="41.56922578399323" y="0.0"><svg height="48.00000554458913" width="41.56922578399323" class="rotate" x="0" y="0.0"><g class="transform" transform="translate(-3.215387108003384 3.2153930814680365) rotate(-90 24.0 20.784609690826528)"><svg height="41.569219381653056" width="48" class="opacity" x="0" y="0"><g opacity="0" class="opacity"><svg width="48" height="41.569219381653056" x="0" y="0"><polygon style="stroke:#232323;fill:none;stroke-width:0.5" points="0,41.569219381653056 48,41.569219381653056 24,0" /></svg></g></svg></g></svg><svg height="48.00000554458913" width="41.56922578399323" class="aligned-offset-center" x="41.56922578399323" y="0.0"><svg height="48.00000554458913" width="41.56922578399323" class="rotate" x="0" y="0.0"><g class="transform" transform="translate(-3.215387108003384 3.2153930814680365) rotate(90 24.0 20.784609690826528)"><svg width="48" height="41.569219381653056" x="0" y="0"><polygon points="0,41.569219381653056 48,41.569219381653056 24,0" style="fill:#A6EBEB;stroke:#232323;stroke-width:0.5" /></svg></g></svg><svg width="0" height="0" x="41.56922578399323" y="24.000002772294565"><rect style="fill:none;stroke:black;stroke-width:1" x="0.5" y="0.5" width="-1" height="-1" rx="0" ry="0" /></svg></svg></svg></svg></svg></svg></svg></svg></svg></svg></svg><svg height="48.00000554458913" width="374.1230320559391" class="aligned-offset-center" x="0" y="0"><svg height="48.00000554458913" width="41.56922578399323" class="rotate" x="0" y="0.0"><g class="transform" transform="translate(-3.215387108003384 3.2153930814680365) rotate(-90 24.0 20.784609690826528)"><svg width="48" height="41.569219381653056" x="0" y="0"><polygon points="0,41.569219381653056 48,41.569219381653056 24,0" style="fill:#DC6130;stroke:#232323;stroke-width:0.5" /></svg></g></svg><svg height="48.00000554458913" width="332.55380627194586" class="aligned-offset-center" x="41.56922578399323" y="0.0"><svg height="48.00000554458913" width="41.56922578399323" class="rotate" x="0" y="0.0"><g class="transform" transform="translate(-3.215387108003384 3.2153930814680365) rotate(90 24.0 20.784609690826528)"><svg width="48" height="41.569219381653056" x="0" y="0"><polygon points="0,41.569219381653056 48,41.569219381653056 24,0" style="fill:#A6EBEB;stroke:#232323;stroke-width:0.5" /></svg></g></svg><svg height="48.00000554458913" width="290.9845804879526" class="aligned-offset-center" x="41.56922578399323" y="0.0"><svg height="48.00000554458913" width="41.56922578399323" class="rotate" x="0" y="0.0"><g class="transform" transform="translate(-3.215387108003384 3.2153930814680365) rotate(-90 24.0 20.784609690826528)"><svg width="48" height="41.569219381653056" x="0" y="0"><polygon points="0,41.569219381653056 48,41.569219381653056 24,0" style="fill:#A6EBEB;stroke:#232323;stroke-width:0.5" /></svg></g></svg><svg height="48.00000554458913" width="249.4153547039594" class="aligned-offset-center" x="41.56922578399323" y="0.0"><svg height="48.00000554458913" width="41.56922578399323" class="rotate" x="0" y="0.0"><g class="transform" transform="translate(-3.215387108003384 3.2153930814680365) rotate(90 24.0 20.784609690826528)"><svg width="48" height="41.569219381653056" x="0" y="0"><polygon points="0,41.569219381653056 48,41.569219381653056 24,0" style="fill:#A17F66;stroke:#232323;stroke-width:0.5" /></svg></g></svg><svg height="48.00000554458913" width="207.84612891996616" class="aligned-offset-center" x="41.56922578399323" y="0.0"><svg height="48.00000554458913" width="41.56922578399323" class="rotate" x="0" y="0.0"><g class="transform" transform="translate(-3.215387108003384 3.2153930814680365) rotate(-90 24.0 20.784609690826528)"><svg width="48" height="41.569219381653056" x="0" y="0"><polygon points="0,41.569219381653056 48,41.569219381653056 24,0" style="fill:#A17F66;stroke:#232323;stroke-width:0.5" /></svg></g></svg><svg height="48.00000554458913" width="166.27690313597293" class="aligned-offset-center" x="41.56922578399323" y="0.0"><svg height="48.00000554458913" width="41.56922578399323" class="rotate" x="0" y="0.0"><g class="transform" transform="translate(-3.215387108003384 3.2153930814680365) rotate(90 24.0 20.784609690826528)"><svg width="48" height="41.569219381653056" x="0" y="0"><polygon points="0,41.569219381653056 48,41.569219381653056 24,0" style="fill:#FFFDD7;stroke:#232323;stroke-width:0.5" /></svg></g></svg><svg height="48.00000554458913" width="124.7076773519797" class="aligned-offset-center" x="41.56922578399323" y="0.0"><svg height="48.00000554458913" width="41.56922578399323" class="rotate" x="0" y="0.0"><g class="transform" transform="translate(-3.215387108003384 3.2153930814680365) rotate(-90 24.0 20.784609690826528)"><svg height="41.569219381653056" width="48" class="opacity" x="0" y="0"><g opacity="0" class="opacity"><svg width="48" height="41.569219381653056" x="0" y="0"><polygon style="stroke:#232323;fill:none;stroke-width:0.5" points="0,41.569219381653056 48,41.569219381653056 24,0" /></svg></g></svg></g></svg><svg height="48.00000554458913" width="83.13845156798646" class="aligned-offset-center" x="41.56922578399323" y="0.0"><svg height="48.00000554458913" width="41.56922578399323" class="rotate" x="0" y="0.0"><g class="transform" transform="translate(-3.215387108003384 3.2153930814680365) rotate(90 24.0 20.784609690826528)"><svg height="41.569219381653056" width="48" class="opacity" x="0" y="0"><g opacity="0" class="opacity"><svg width="48" height="41.569219381653056" x="0" y="0"><polygon style="stroke:#232323;fill:none;stroke-width:0.5" points="0,41.569219381653056 48,41.569219381653056 24,0" /></svg></g></svg></g></svg><svg height="48.00000554458913" width="41.56922578399323" class="aligned-offset-center" x="41.56922578399323" y="0.0"><svg height="48.00000554458913" width="41.56922578399323" class="rotate" x="0" y="0.0"><g class="transform" transform="translate(-3.215387108003384 3.2153930814680365) rotate(-90 24.0 20.784609690826528)"><svg width="48" height="41.569219381653056" x="0" y="0"><polygon points="0,41.569219381653056 48,41.569219381653056 24,0" style="fill:#FFFDD7;stroke:#232323;stroke-width:0.5" /></svg></g></svg><svg width="0" height="0" x="41.56922578399323" y="24.000002772294565"><rect style="fill:none;stroke:black;stroke-width:1" x="0.5" y="0.5" width="-1" height="-1" rx="0" ry="0" /></svg></svg></svg></svg></svg></svg></svg></svg></svg></svg></svg><svg height="48.00000554458913" width="374.1230320559391" class="aligned-offset-center" x="0" y="0"><svg height="48.00000554458913" width="41.56922578399323" class="rotate" x="0" y="0.0"><g class="transform" transform="translate(-3.215387108003384 3.2153930814680365) rotate(90 24.0 20.784609690826528)"><svg width="48" height="41.569219381653056" x="0" y="0"><polygon points="0,41.569219381653056 48,41.569219381653056 24,0" style="fill:#A6EBEB;stroke:#232323;stroke-width:0.5" /></svg></g></svg><svg height="48.00000554458913" width="332.55380627194586" class="aligned-offset-center" x="41.56922578399323" y="0.0"><svg height="48.00000554458913" width="41.56922578399323" class="rotate" x="0" y="0.0"><g class="transform" transform="translate(-3.215387108003384 3.2153930814680365) rotate(-90 24.0 20.784609690826528)"><svg width="48" height="41.569219381653056" x="0" y="0"><polygon points="0,41.569219381653056 48,41.569219381653056 24,0" style="fill:#A17F66;stroke:#232323;stroke-width:0.5" /></svg></g></svg><svg height="48.00000554458913" width="290.9845804879526" class="aligned-offset-center" x="41.56922578399323" y="0.0"><svg height="48.00000554458913" width="41.56922578399323" class="rotate" x="0" y="0.0"><g class="transform" transform="translate(-3.215387108003384 3.2153930814680365) rotate(90 24.0 20.784609690826528)"><svg width="48" height="41.569219381653056" x="0" y="0"><polygon points="0,41.569219381653056 48,41.569219381653056 24,0" style="fill:#A6EBEB;stroke:#232323;stroke-width:0.5" /></svg></g></svg><svg height="48.00000554458913" width="249.4153547039594" class="aligned-offset-center" x="41.56922578399323" y="0.0"><svg height="48.00000554458913" width="41.56922578399323" class="rotate" x="0" y="0.0"><g class="transform" transform="translate(-3.215387108003384 3.2153930814680365) rotate(-90 24.0 20.784609690826528)"><svg width="48" height="41.569219381653056" x="0" y="0"><polygon points="0,41.569219381653056 48,41.569219381653056 24,0" style="fill:#DC6130;stroke:#232323;stroke-width:0.5" /></svg></g></svg><svg height="48.00000554458913" width="207.84612891996616" class="aligned-offset-center" x="41.56922578399323" y="0.0"><svg height="48.00000554458913" width="41.56922578399323" class="rotate" x="0" y="0.0"><g class="transform" transform="translate(-3.215387108003384 3.2153930814680365) rotate(90 24.0 20.784609690826528)"><svg height="41.569219381653056" width="48" class="opacity" x="0" y="0"><g opacity="0" class="opacity"><svg width="48" height="41.569219381653056" x="0" y="0"><polygon style="stroke:#232323;fill:none;stroke-width:0.5" points="0,41.569219381653056 48,41.569219381653056 24,0" /></svg></g></svg></g></svg><svg height="48.00000554458913" width="166.27690313597293" class="aligned-offset-center" x="41.56922578399323" y="0.0"><svg height="48.00000554458913" width="41.56922578399323" class="rotate" x="0" y="0.0"><g class="transform" transform="translate(-3.215387108003384 3.2153930814680365) rotate(-90 24.0 20.784609690826528)"><svg width="48" height="41.569219381653056" x="0" y="0"><polygon points="0,41.569219381653056 48,41.569219381653056 24,0" style="fill:#DC6130;stroke:#232323;stroke-width:0.5" /></svg></g></svg><svg height="48.00000554458913" width="124.7076773519797" class="aligned-offset-center" x="41.56922578399323" y="0.0"><svg height="48.00000554458913" width="41.56922578399323" class="rotate" x="0" y="0.0"><g class="transform" transform="translate(-3.215387108003384 3.2153930814680365) rotate(90 24.0 20.784609690826528)"><svg width="48" height="41.569219381653056" x="0" y="0"><polygon points="0,41.569219381653056 48,41.569219381653056 24,0" style="fill:#DC6130;stroke:#232323;stroke-width:0.5" /></svg></g></svg><svg height="48.00000554458913" width="83.13845156798646" class="aligned-offset-center" x="41.56922578399323" y="0.0"><svg height="48.00000554458913" width="41.56922578399323" class="rotate" x="0" y="0.0"><g class="transform" transform="translate(-3.215387108003384 3.2153930814680365) rotate(-90 24.0 20.784609690826528)"><svg width="48" height="41.569219381653056" x="0" y="0"><polygon points="0,41.569219381653056 48,41.569219381653056 24,0" style="fill:#A6EBEB;stroke:#232323;stroke-width:0.5" /></svg></g></svg><svg height="48.00000554458913" width="41.56922578399323" class="aligned-offset-center" x="41.56922578399323" y="0.0"><svg height="48.00000554458913" width="41.56922578399323" class="rotate" x="0" y="0.0"><g class="transform" transform="translate(-3.215387108003384 3.2153930814680365) rotate(90 24.0 20.784609690826528)"><svg width="48" height="41.569219381653056" x="0" y="0"><polygon points="0,41.569219381653056 48,41.569219381653056 24,0" style="fill:#FFFDD7;stroke:#232323;stroke-width:0.5" /></svg></g></svg><svg width="0" height="0" x="41.56922578399323" y="24.000002772294565"><rect style="fill:none;stroke:black;stroke-width:1" x="0.5" y="0.5" width="-1" height="-1" rx="0" ry="0" /></svg></svg></svg></svg></svg></svg></svg></svg></svg></svg></svg><svg height="48.00000554458913" width="374.1230320559391" class="aligned-offset-center" x="0" y="0"><svg height="48.00000554458913" width="41.56922578399323" class="rotate" x="0" y="0.0"><g class="transform" transform="translate(-3.215387108003384 3.2153930814680365) rotate(-90 24.0 20.784609690826528)"><svg width="48" height="41.569219381653056" x="0" y="0"><polygon points="0,41.569219381653056 48,41.569219381653056 24,0" style="fill:#DC6130;stroke:#232323;stroke-width:0.5" /></svg></g></svg><svg height="48.00000554458913" width="332.55380627194586" class="aligned-offset-center" x="41.56922578399323" y="0.0"><svg height="48.00000554458913" width="41.56922578399323" class="rotate" x="0" y="0.0"><g class="transform" transform="translate(-3.215387108003384 3.2153930814680365) rotate(90 24.0 20.784609690826528)"><svg width="48" height="41.569219381653056" x="0" y="0"><polygon points="0,41.569219381653056 48,41.569219381653056 24,0" style="fill:#A17F66;stroke:#232323;stroke-width:0.5" /></svg></g></svg><svg height="48.00000554458913" width="290.9845804879526" class="aligned-offset-center" x="41.56922578399323" y="0.0"><svg height="48.00000554458913" width="41.56922578399323" class="rotate" x="0" y="0.0"><g class="transform" transform="translate(-3.215387108003384 3.2153930814680365) rotate(-90 24.0 20.784609690826528)"><svg height="41.569219381653056" width="48" class="opacity" x="0" y="0"><g opacity="0" class="opacity"><svg width="48" height="41.569219381653056" x="0" y="0"><polygon style="stroke:#232323;fill:none;stroke-width:0.5" points="0,41.569219381653056 48,41.569219381653056 24,0" /></svg></g></svg></g></svg><svg height="48.00000554458913" width="249.4153547039594" class="aligned-offset-center" x="41.56922578399323" y="0.0"><svg height="48.00000554458913" width="41.56922578399323" class="rotate" x="0" y="0.0"><g class="transform" transform="translate(-3.215387108003384 3.2153930814680365) rotate(90 24.0 20.784609690826528)"><svg width="48" height="41.569219381653056" x="0" y="0"><polygon points="0,41.569219381653056 48,41.569219381653056 24,0" style="fill:#FFFDD7;stroke:#232323;stroke-width:0.5" /></svg></g></svg><svg height="48.00000554458913" width="207.84612891996616" class="aligned-offset-center" x="41.56922578399323" y="0.0"><svg height="48.00000554458913" width="41.56922578399323" class="rotate" x="0" y="0.0"><g class="transform" transform="translate(-3.215387108003384 3.2153930814680365) rotate(-90 24.0 20.784609690826528)"><svg height="41.569219381653056" width="48" class="opacity" x="0" y="0"><g opacity="0" class="opacity"><svg width="48" height="41.569219381653056" x="0" y="0"><polygon style="stroke:#232323;fill:none;stroke-width:0.5" points="0,41.569219381653056 48,41.569219381653056 24,0" /></svg></g></svg></g></svg><svg height="48.00000554458913" width="166.27690313597293" class="aligned-offset-center" x="41.56922578399323" y="0.0"><svg height="48.00000554458913" width="41.56922578399323" class="rotate" x="0" y="0.0"><g class="transform" transform="translate(-3.215387108003384 3.2153930814680365) rotate(90 24.0 20.784609690826528)"><svg width="48" height="41.569219381653056" x="0" y="0"><polygon points="0,41.569219381653056 48,41.569219381653056 24,0" style="fill:#A17F66;stroke:#232323;stroke-width:0.5" /></svg></g></svg><svg height="48.00000554458913" width="124.7076773519797" class="aligned-offset-center" x="41.56922578399323" y="0.0"><svg height="48.00000554458913" width="41.56922578399323" class="rotate" x="0" y="0.0"><g class="transform" transform="translate(-3.215387108003384 3.2153930814680365) rotate(-90 24.0 20.784609690826528)"><svg height="41.569219381653056" width="48" class="opacity" x="0" y="0"><g opacity="0" class="opacity"><svg width="48" height="41.569219381653056" x="0" y="0"><polygon style="stroke:#232323;fill:none;stroke-width:0.5" points="0,41.569219381653056 48,41.569219381653056 24,0" /></svg></g></svg></g></svg><svg height="48.00000554458913" width="83.13845156798646" class="aligned-offset-center" x="41.56922578399323" y="0.0"><svg height="48.00000554458913" width="41.56922578399323" class="rotate" x="0" y="0.0"><g class="transform" transform="translate(-3.215387108003384 3.2153930814680365) rotate(90 24.0 20.784609690826528)"><svg width="48" height="41.569219381653056" x="0" y="0"><polygon points="0,41.569219381653056 48,41.569219381653056 24,0" style="fill:#A17F66;stroke:#232323;stroke-width:0.5" /></svg></g></svg><svg height="48.00000554458913" width="41.56922578399323" class="aligned-offset-center" x="41.56922578399323" y="0.0"><svg height="48.00000554458913" width="41.56922578399323" class="rotate" x="0" y="0.0"><g class="transform" transform="translate(-3.215387108003384 3.2153930814680365) rotate(-90 24.0 20.784609690826528)"><svg width="48" height="41.569219381653056" x="0" y="0"><polygon points="0,41.569219381653056 48,41.569219381653056 24,0" style="fill:#A17F66;stroke:#232323;stroke-width:0.5" /></svg></g></svg><svg width="0" height="0" x="41.56922578399323" y="24.000002772294565"><rect style="fill:none;stroke:black;stroke-width:1" x="0.5" y="0.5" width="-1" height="-1" rx="0" ry="0" /></svg></svg></svg></svg></svg></svg></svg></svg></svg></svg></svg></svg>