<?xml version="1.0" encoding="UTF-8"?>
<svg xmlns="http://www.w3.org/2000/svg" xmlns:xlink="http://www.w3.org/1999/xlink" width="374pt" height="240pt" viewBox="0 0 374 240" version="1.1">
<g id="surface2629">
<path style=" stroke:none;fill-rule:nonzero;fill:rgb(100%,99.215686%,84.705882%);fill-opacity:1;" d="M 332.554688 192 C 332.554688 192 332.554688 240 332.554688 240 C 332.554688 240 374.121094 216 374.121094 216 C 374.121094 216 332.554688 192 332.554688 192 Z M 332.554688 192 "/>
<path style=" stroke:none;fill-rule:nonzero;fill:rgb(86.27451%,38.431373%,19.215686%);fill-opacity:1;" d="M 332.554688 240 C 332.554688 240 332.554688 192 332.554688 192 C 332.554688 192 290.984375 216 290.984375 216 C 290.984375 216 332.554688 240 332.554688 240 Z M 332.554688 240 "/>
<path style=" stroke:none;fill-rule:nonzero;fill:rgb(86.27451%,38.431373%,19.215686%);fill-opacity:1;" d="M 249.414062 192 C 249.414062 192 249.414062 240 249.414062 240 C 249.414062 240 290.984375 216 290.984375 216 C 290.984375 216 249.414062 192 249.414062 192 Z M 249.414062 192 "/>
<path style=" stroke:none;fill-rule:nonzero;fill:rgb(100%,99.215686%,84.705882%);fill-opacity:1;" d="M 166.277344 192 C 166.277344 192 166.277344 240 166.277344 240 C 166.277344 240 207.847656 216 207.847656 216 C 207.847656 216 166.277344 192 166.277344 192 Z M 166.277344 192 "/>
<path style=" stroke:none;fill-rule:nonzero;fill:rgb(65.098039%,92.941176%,92.941176%);fill-opacity:1;" d="M 166.277344 240 C 166.277344 240 166.277344 192 166.277344 192 C 166.277344 192 124.707031 216 124.707031 216 C 124.707031 216 166.277344 240 166.277344 240 Z M 166.277344 240 "/>
<path style=" stroke:none;fill-rule:nonzero;fill:rgb(65.098039%,92.941176%,92.941176%);fill-opacity:1;" d="M 83.136719 192 C 83.136719 192 83.136719 240 83.136719 240 C 83.136719 240 124.707031 216 124.707031 216 C 124.707031 216 83.136719 192 83.136719 192 Z M 83.136719 192 "/>
<path style=" stroke:none;fill-rule:nonzero;fill:rgb(65.098039%,92.941176%,92.941176%);fill-opacity:1;" d="M 83.136719 240 C 83.136719 240 83.136719 192 83.136719 192 C 83.136719 192 41.570312 216 41.570312 216 C 41.570312 216 83.136719 240 83.136719 240 Z M 83.136719 240 "/>
<path style=" stroke:none;fill-rule:nonzero;fill:rgb(86.27451%,38.431373%,19.215686%);fill-opacity:1;" d="M 290.984375 168 C 290.984375 168 290.984375 216 290.984375 216 C 290.984375 216 332.554688 192 332.554688 192 C 332.554688 192 290.984375 168 290.984375 168 Z M 290.984375 168 "/>
<path style=" stroke:none;fill-rule:nonzero;fill:rgb(100%,99.215686%,84.705882%);fill-opacity:1;" d="M 290.984375 216 C 290.984375 216 290.984375 168 290.984375 168 C 290.984375 168 249.414062 192 249.414062 192 C 249.414062 192 290.984375 216 290.984375 216 Z M 290.984375 216 "/>
<path style=" stroke:none;fill-rule:nonzero;fill:rgb(100%,81.960784%,10.980392%);fill-opacity:1;" d="M 207.847656 168 C 207.847656 168 207.847656 216 207.847656 216 C 207.847656 216 249.414062 192 249.414062 192 C 249.414062 192 207.847656 168 207.847656 168 Z M 207.847656 168 "/>
<path style=" stroke:none;fill-rule:nonzero;fill:rgb(65.098039%,92.941176%,92.941176%);fill-opacity:1;" d="M 207.847656 216 C 207.847656 216 207.847656 168 207.847656 168 C 207.847656 168 166.277344 192 166.277344 192 C 166.277344 192 207.847656 216 207.847656 216 Z M 207.847656 216 "/>
<path style=" stroke:none;fill-rule:nonzero;fill:rgb(100%,99.215686%,84.705882%);fill-opacity:1;" d="M 124.707031 216 C 124.707031 216 124.707031 168 124.707031 168 C 124.707031 168 83.136719 192 83.136719 192 C 83.136719 192 124.707031 216 124.707031 216 Z M 124.707031 216 "/>
<path style=" stroke:none;fill-rule:nonzero;fill:rgb(100%,81.960784%,10.980392%);fill-opacity:1;" d="M 41.570312 168 C 41.570312 168 41.570312 216 41.570312 216 C 41.570312 216 83.136719 192 83.136719 192 C 83.136719 192 41.570312 168 41.570312 168 Z M 41.570312 168 "/>
<path style=" stroke:none;fill-rule:nonzero;fill:rgb(100%,99.215686%,84.705882%);fill-opacity:1;" d="M 41.570312 216 C 41.570312 216 41.570312 168 41.570312 168 C 41.570312 168 0 192 0 192 C 0 192 41.570312 216 41.570312 216 Z M 41.570312 216 "/>
<path style=" stroke:none;fill-rule:nonzero;fill:rgb(100%,99.215686%,84.705882%);fill-opacity:1;" d="M 332.554688 144 C 332.554688 144 332.554688 192 332.554688 192 C 332.554688 192 374.121094 168 374.121094 168 C 374.121094 168 332.554688 144 332.554688 144 Z M 332.554688 144 "/>
<path style=" stroke:none;fill-rule:nonzero;fill:rgb(100%,99.215686%,84.705882%);fill-opacity:1;" d="M 332.554688 192 C 332.554688 192 332.554688 144 332.554688 144 C 332.554688 144 290.984375 168 290.984375 168 C 290.984375 168 332.554688 192 332.554688 192 Z M 332.554688 192 "/>
<path style=" stroke:none;fill-rule:nonzero;fill:rgb(65.098039%,92.941176%,92.941176%);fill-opacity:1;" d="M 249.414062 144 C 249.414062 144 249.414062 192 249.414062 192 C 249.414062 192 290.984375 168 290.984375 168 C 290.984375 168 249.414062 144 249.414062 144 Z M 249.414062 144 "/>
<path style=" stroke:none;fill-rule:nonzero;fill:rgb(100%,81.960784%,10.980392%);fill-opacity:1;" d="M 249.414062 192 C 249.414062 192 249.414062 144 249.414062 144 C 249.414062 144 207.847656 168 207.847656 168 C 207.847656 168 249.414062 192 249.414062 192 Z M 249.414062 192 "/>
<path style=" stroke:none;fill-rule:nonzero;fill:rgb(100%,99.215686%,84.705882%);fill-opacity:1;" d="M 166.277344 144 C 166.277344 144 166.277344 192 166.277344 192 C 166.277344 192 207.847656 168 207.847656 168 C 207.847656 168 166.277344 144 166.277344 144 Z M 166.277344 144 "/>
<path style=" stroke:none;fill-rule:nonzero;fill:rgb(65.098039%,92.941176%,92.941176%);fill-opacity:1;" d="M 166.277344 192 C 166.277344 192 166.277344 144 166.277344 144 C 166.277344 144 124.707031 168 124.707031 168 C 124.707031 168 166.277344 192 166.277344 192 Z M 166.277344 192 "/>
<path style=" stroke:none;fill-rule:nonzero;fill:rgb(100%,81.960784%,10.980392%);fill-opacity:1;" d="M 83.136719 144 C 83.136719 144 83.136719 192 83.136719 192 C 83.136719 192 124.707031 168 124.707031 168 C 124.707031 168 83.136719 144 83.136719 144 Z M 83.136719 144 "/>
<path style=" stroke:none;fill-rule:nonzero;fill:rgb(63.529412%,50.196078%,40.392157%);fill-opacity:1;" d="M 83.136719 192 C 83.136719 192 83.136719 144 83.136719 144 C 83.136719 144 41.570312 168 41.570312 168 C 41.570312 168 83.136719 192 83.136719 192 Z M 83.136719 192 "/>
<path style=" stroke:none;fill-rule:nonzero;fill:rgb(63.529412%,50.196078%,40.392157%);fill-opacity:1;" d="M 0 144 C 0 144 0 192 0 192 C 0 192 41.570312 168 41.570312 168 C 41.570312 168 0 144 0 144 Z M 0 144 "/>
<path style=" stroke:none;fill-rule:nonzero;fill:rgb(65.098039%,92.941176%,92.941176%);fill-opacity:1;" d="M 374.121094 168 C 374.121094 168 374.121094 120 374.121094 120 C 374.121094 120 332.554688 144 332.554688 144 C 332.554688 144 374.121094 168 374.121094 168 Z M 374.121094 168 "/>
<path style=" stroke:none;fill-rule:nonzero;fill:rgb(86.27451%,38.431373%,19.215686%);fill-opacity:1;" d="M 207.847656 168 C 207.847656 168 207.847656 120 207.847656 120 C 207.847656 120 166.277344 144 166.277344 144 C 166.277344 144 207.847656 168 207.847656 168 Z M 207.847656 168 "/>
<path style=" stroke:none;fill-rule:nonzero;fill:rgb(65.098039%,92.941176%,92.941176%);fill-opacity:1;" d="M 124.707031 120 C 124.707031 120 124.707031 168 124.707031 168 C 124.707031 168 166.277344 144 166.277344 144 C 166.277344 144 124.707031 120 124.707031 120 Z M 124.707031 120 "/>
<path style=" stroke:none;fill-rule:nonzero;fill:rgb(63.529412%,50.196078%,40.392157%);fill-opacity:1;" d="M 124.707031 168 C 124.707031 168 124.707031 120 124.707031 120 C 124.707031 120 83.136719 144 83.136719 144 C 83.136719 144 124.707031 168 124.707031 168 Z M 124.707031 168 "/>
<path style=" stroke:none;fill-rule:nonzero;fill:rgb(86.27451%,38.431373%,19.215686%);fill-opacity:1;" d="M 41.570312 168 C 41.570312 168 41.570312 120 41.570312 120 C 41.570312 120 0 144 0 144 C 0 144 41.570312 168 41.570312 168 Z M 41.570312 168 "/>
<path style=" stroke:none;fill-rule:nonzero;fill:rgb(100%,81.960784%,10.980392%);fill-opacity:1;" d="M 332.554688 96 C 332.554688 96 332.554688 144 332.554688 144 C 332.554688 144 374.121094 120 374.121094 120 C 374.121094 120 332.554688 96 332.554688 96 Z M 332.554688 96 "/>
<path style=" stroke:none;fill-rule:nonzero;fill:rgb(65.098039%,92.941176%,92.941176%);fill-opacity:1;" d="M 332.554688 144 C 332.554688 144 332.554688 96 332.554688 96 C 332.554688 96 290.984375 120 290.984375 120 C 290.984375 120 332.554688 144 332.554688 144 Z M 332.554688 144 "/>
<path style=" stroke:none;fill-rule:nonzero;fill:rgb(86.27451%,38.431373%,19.215686%);fill-opacity:1;" d="M 249.414062 96 C 249.414062 96 249.414062 144 249.414062 144 C 249.414062 144 290.984375 120 290.984375 120 C 290.984375 120 249.414062 96 249.414062 96 Z M 249.414062 96 "/>
<path style=" stroke:none;fill-rule:nonzero;fill:rgb(86.27451%,38.431373%,19.215686%);fill-opacity:1;" d="M 249.414062 144 C 249.414062 144 249.414062 96 249.414062 96 C 249.414062 96 207.847656 120 207.847656 120 C 207.847656 120 249.414062 144 249.414062 144 Z M 249.414062 144 "/>
<path style=" stroke:none;fill-rule:nonzero;fill:rgb(86.27451%,38.431373%,19.215686%);fill-opacity:1;" d="M 166.277344 96 C 166.277344 96 166.277344 144 166.277344 144 C 166.277344 144 207.847656 120 207.847656 120 C 207.847656 120 166.277344 96 166.277344 96 Z M 166.277344 96 "/>
<path style=" stroke:none;fill-rule:nonzero;fill:rgb(100%,99.215686%,84.705882%);fill-opacity:1;" d="M 166.277344 144 C 166.277344 144 166.277344 96 166.277344 96 C 166.277344 96 124.707031 120 124.707031 120 C 124.707031 120 166.277344 144 166.277344 144 Z M 166.277344 144 "/>
<path style=" stroke:none;fill-rule:nonzero;fill:rgb(100%,81.960784%,10.980392%);fill-opacity:1;" d="M 83.136719 96 C 83.136719 96 83.136719 144 83.136719 144 C 83.136719 144 124.707031 120 124.707031 120 C 124.707031 120 83.136719 96 83.136719 96 Z M 83.136719 96 "/>
<path style=" stroke:none;fill-rule:nonzero;fill:rgb(100%,99.215686%,84.705882%);fill-opacity:1;" d="M 83.136719 144 C 83.136719 144 83.136719 96 83.136719 96 C 83.136719 96 41.570312 120 41.570312 120 C 41.570312 120 83.136719 144 83.136719 144 Z M 83.136719 144 "/>
<path style=" stroke:none;fill-rule:nonzero;fill:rgb(65.098039%,92.941176%,92.941176%);fill-opacity:1;" d="M 374.121094 120 C 374.121094 120 374.121094 72 374.121094 72 C 374.121094 72 332.554688 96 332.554688 96 C 332.554688 96 374.121094 120 374.121094 120 Z M 374.121094 120 "/>
<path style=" stroke:none;fill-rule:nonzero;fill:rgb(100%,99.215686%,84.705882%);fill-opacity:1;" d="M 290.984375 120 C 290.984375 120 290.984375 72 290.984375 72 C 290.984375 72 249.414062 96 249.414062 96 C 249.414062 96 290.984375 120 290.984375 120 Z M 290.984375 120 "/>
<path style=" stroke:none;fill-rule:nonzero;fill:rgb(100%,99.215686%,84.705882%);fill-opacity:1;" d="M 207.847656 72 C 207.847656 72 207.847656 120 207.847656 120 C 207.847656 120 249.414062 96 249.414062 96 C 249.414062 96 207.847656 72 207.847656 72 Z M 207.847656 72 "/>
<path style=" stroke:none;fill-rule:nonzero;fill:rgb(63.529412%,50.196078%,40.392157%);fill-opacity:1;" d="M 207.847656 120 C 207.847656 120 207.847656 72 207.847656 72 C 207.847656 72 166.277344 96 166.277344 96 C 166.277344 96 207.847656 120 207.847656 120 Z M 207.847656 120 "/>
<path style=" stroke:none;fill-rule:nonzero;fill:rgb(65.098039%,92.941176%,92.941176%);fill-opacity:1;" d="M 124.707031 72 C 124.707031 72 124.707031 120 124.707031 120 C 124.707031 120 166.277344 96 166.277344 96 C 166.277344 96 124.707031 72 124.707031 72 Z M 124.707031 72 "/>
<path style=" stroke:none;fill-rule:nonzero;fill:rgb(100%,99.215686%,84.705882%);fill-opacity:1;" d="M 124.707031 120 C 124.707031 120 124.707031 72 124.707031 72 C 124.707031 72 83.136719 96 83.136719 96 C 83.136719 96 124.707031 120 124.707031 120 Z M 124.707031 120 "/>
<path style=" stroke:none;fill-rule:nonzero;fill:rgb(65.098039%,92.941176%,92.941176%);fill-opacity:1;" d="M 41.570312 72 C 41.570312 72 41.570312 120 41.570312 120 C 41.570312 120 83.136719 96 83.136719 96 C 83.136719 96 41.570312 72 41.570312 72 Z M 41.570312 72 "/>
<path style=" stroke:none;fill-rule:nonzero;fill:rgb(100%,81.960784%,10.980392%);fill-opacity:1;" d="M 332.554688 48 C 332.554688 48 332.554688 96 332.554688 96 C 332.554688 96 374.121094 72 374.121094 72 C 374.121094 72 332.554688 48 332.554688 48 Z M 332.554688 48 "/>
<path style=" stroke:none;fill-rule:nonzero;fill:rgb(63.529412%,50.196078%,40.392157%);fill-opacity:1;" d="M 332.554688 96 C 332.554688 96 332.554688 48 332.554688 48 C 332.554688 48 290.984375 72 290.984375 72 C 290.984375 72 332.554688 96 332.554688 96 Z M 332.554688 96 "/>
<path style=" stroke:none;fill-rule:nonzero;fill:rgb(100%,81.960784%,10.980392%);fill-opacity:1;" d="M 249.414062 48 C 249.414062 48 249.414062 96 249.414062 96 C 249.414062 96 290.984375 72 290.984375 72 C 290.984375 72 249.414062 48 249.414062 48 Z M 249.414062 48 "/>
<path style=" stroke:none;fill-rule:nonzero;fill:rgb(86.27451%,38.431373%,19.215686%);fill-opacity:1;" d="M 249.414062 96 C 249.414062 96 249.414062 48 249.414062 48 C 249.414062 48 207.847656 72 207.847656 72 C 207.847656 72 249.414062 96 249.414062 96 Z M 249.414062 96 "/>
<path style=" stroke:none;fill-rule:nonzero;fill:rgb(100%,81.960784%,10.980392%);fill-opacity:1;" d="M 166.277344 48 C 166.277344 48 166.277344 96 166.277344 96 C 166.277344 96 207.847656 72 207.847656 72 C 207.847656 72 166.277344 48 166.277344 48 Z M 166.277344 48 "/>
<path style=" stroke:none;fill-rule:nonzero;fill:rgb(100%,81.960784%,10.980392%);fill-opacity:1;" d="M 83.136719 48 C 83.136719 48 83.136719 96 83.136719 96 C 83.136719 96 124.707031 72 124.707031 72 C 124.707031 72 83.136719 48 83.136719 48 Z M 83.136719 48 "/>
<path style=" stroke:none;fill-rule:nonzero;fill:rgb(86.27451%,38.431373%,19.215686%);fill-opacity:1;" d="M 83.136719 96 C 83.136719 96 83.136719 48 83.136719 48 C 83.136719 48 41.570312 72 41.570312 72 C 41.570312 72 83.136719 96 83.136719 96 Z M 83.136719 96 "/>
<path style=" stroke:none;fill-rule:nonzero;fill:rgb(100%,81.960784%,10.980392%);fill-opacity:1;" d="M 0 48 C 0 48 0 96 0 96 C 0 96 41.570312 72 41.570312 72 C 41.570312 72 0 48 0 48 Z M 0 48 "/>
<path style=" stroke:none;fill-rule:nonzero;fill:rgb(63.529412%,50.196078%,40.392157%);fill-opacity:1;" d="M 374.121094 72 C 374.121094 72 374.121094 24 374.121094 24 C 374.121094 24 332.554688 48 332.554688 48 C 332.554688 48 374.121094 72 374.121094 72 Z M 374.121094 72 "/>
<path style=" stroke:none;fill-rule:nonzero;fill:rgb(86.27451%,38.431373%,19.215686%);fill-opacity:1;" d="M 290.984375 24 C 290.984375 24 290.984375 72 290.984375 72 C 290.984375 72 332.554688 48 332.554688 48 C 332.554688 48 290.984375 24 290.984375 24 Z M 290.984375 24 "/>
<path style=" stroke:none;fill-rule:nonzero;fill:rgb(100%,81.960784%,10.980392%);fill-opacity:1;" d="M 290.984375 72 C 290.984375 72 290.984375 24 290.984375 24 C 290.984375 24 249.414062 48 249.414062 48 C 249.414062 48 290.984375 72 290.984375 72 Z M 290.984375 72 "/>
<path style=" stroke:none;fill-rule:nonzero;fill:rgb(86.27451%,38.431373%,19.215686%);fill-opacity:1;" d="M 207.847656 24 C 207.847656 24 207.847656 72 207.847656 72 C 207.847656 72 249.414062 48 249.414062 48 C 249.414062 48 207.847656 24 207.847656 24 Z M 207.847656 24 "/>
<path style=" stroke:none;fill-rule:nonzero;fill:rgb(63.529412%,50.196078%,40.392157%);fill-opacity:1;" d="M 207.847656 72 C 207.847656 72 207.847656 24 207.847656 24 C 207.847656 24 166.277344 48 166.277344 48 C 166.277344 48 207.847656 72 207.847656 72 Z M 207.847656 72 "/>
<path style=" stroke:none;fill-rule:nonzero;fill:rgb(100%,99.215686%,84.705882%);fill-opacity:1;" d="M 124.707031 24 C 124.707031 24 124.707031 72 124.707031 72 C 124.707031 72 166.277344 48 166.277344 48 C 166.277344 48 124.707031 24 124.707031 24 Z M 124.707031 24 "/>
<path style=" stroke:none;fill-rule:nonzero;fill:rgb(63.529412%,50.196078%,40.392157%);fill-opacity:1;" d="M 124.707031 72 C 124.707031 72 124.707031 24 124.707031 24 C 124.707031 24 83.136719 48 83.136719 48 C 83.136719 48 124.707031 72 124.707031 72 Z M 124.707031 72 "/>
<path style=" stroke:none;fill-rule:nonzero;fill:rgb(63.529412%,50.196078%,40.392157%);fill-opacity:1;" d="M 41.570312 24 C 41.570312 24 41.570312 72 41.570312 72 C 41.570312 72 83.136719 48 83.136719 48 C 83.136719 48 41.570312 24 41.570312 24 Z M 41.570312 24 "/>
<path style=" stroke:none;fill-rule:nonzero;fill:rgb(65.098039%,92.941176%,92.941176%);fill-opacity:1;" d="M 332.554688 0 C 332.554688 0 332.554688 48 332.554688 48 C 332.554688 48 374.121094 24 374.121094 24 C 374.121094 24 332.554688 0 332.554688 0 Z M 332.554688 0 "/>
<path style=" stroke:none;fill-rule:nonzero;fill:rgb(63.529412%,50.196078%,40.392157%);fill-opacity:1;" d="M 332.554688 48 C 332.554688 48 332.554688 0 332.554688 0 C 332.554688 0 290.984375 24 290.984375 24 C 290.984375 24 332.554688 48 332.554688 48 Z M 332.554688 48 "/>
<path style=" stroke:none;fill-rule:nonzero;fill:rgb(100%,81.960784%,10.980392%);fill-opacity:1;" d="M 249.414062 0 C 249.414062 0 249.414062 48 249.414062 48 C 249.414062 48 290.984375 24 290.984375 24 C 290.984375 24 249.414062 0 249.414062 0 Z M 249.414062 0 "/>
<path style=" stroke:none;fill-rule:nonzero;fill:rgb(65.098039%,92.941176%,92.941176%);fill-opacity:1;" d="M 249.414062 48 C 249.414062 48 249.414062 0 249.414062 0 C 249.414062 0 207.847656 24 207.847656 24 C 207.847656 24 249.414062 48 249.414062 48 Z M 249.414062 48 "/>
<path style=" stroke:none;fill-rule:nonzero;fill:rgb(65.098039%,92.941176%,92.941176%);fill-opacity:1;" d="M 166.277344 0 C 166.277344 0 166.277344 48 166.277344 48 C 166.277344 48 207.847656 24 207.847656 24 C 207.847656 24 166.277344 0 166.277344 0 Z M 166.277344 0 "/>
<path style=" stroke:none;fill-rule:nonzero;fill:rgb(63.529412%,50.196078%,40.392157%);fill-opacity:1;" d="M 166.277344 48 C 166.277344 48 166.277344 0 166.277344 0 C 166.277344 0 124.707031 24 124.707031 24 C 124.707031 24 166.277344 48 166.277344 48 Z M 166.277344 48 "/>
<path style=" stroke:none;fill-rule:nonzero;fill:rgb(100%,99.215686%,84.705882%);fill-opacity:1;" d="M 83.136719 0 C 83.136719 0 83.136719 48 83.136719 48 C 83.136719 48 124.707031 24 124.707031 24 C 124.707031 24 83.136719 0 83.136719 0 Z M 83.136719 0 "/>
<path style=" stroke:none;fill-rule:nonzero;fill:rgb(86.27451%,38.431373%,19.215686%);fill-opacity:1;" d="M 83.136719 48 C 83.136719 48 83.136719 0 83.136719 0 C 83.136719 0 41.570312 24 41.570312 24 C 41.570312 24 83.136719 48 83.136719 48 Z M 83.136719 48 "/>
<path style=" stroke:none;fill-rule:nonzero;fill:rgb(86.27451%,38.431373%,19.215686%);fill-opacity:1;" d="M 0 0 C 0 0 0 48 0 48 C 0 48 41.570312 24 41.570312 24 C 41.570312 24 0 0 0 0 Z M 0 0 "/>
</g>
</svg>
