<?xml version="1.0" encoding="UTF-8"?>
<svg xmlns="http://www.w3.org/2000/svg" xmlns:xlink="http://www.w3.org/1999/xlink" width="374pt" height="84pt" viewBox="0 0 374 84" version="1.1">
<g id="surface2624">
<path style=" stroke:none;fill-rule:nonzero;fill:rgb(63.529412%,50.196078%,40.392157%);fill-opacity:1;" d="M 374.121094 84 C 374.121094 84 374.121094 60 374.121094 60 C 374.121094 60 353.339844 72 353.339844 72 C 353.339844 72 374.121094 84 374.121094 84 Z M 374.121094 84 "/>
<path style=" stroke:none;fill-rule:nonzero;fill:rgb(100%,99.215686%,84.705882%);fill-opacity:1;" d="M 332.554688 60 C 332.554688 60 332.554688 84 332.554688 84 C 332.554688 84 353.339844 72 353.339844 72 C 353.339844 72 332.554688 60 332.554688 60 Z M 332.554688 60 "/>
<path style=" stroke:none;fill-rule:nonzero;fill:rgb(100%,81.960784%,10.980392%);fill-opacity:1;" d="M 332.554688 84 C 332.554688 84 332.554688 60 332.554688 60 C 332.554688 60 311.769531 72 311.769531 72 C 311.769531 72 332.554688 84 332.554688 84 Z M 332.554688 84 "/>
<path style=" stroke:none;fill-rule:nonzero;fill:rgb(100%,81.960784%,10.980392%);fill-opacity:1;" d="M 290.984375 60 C 290.984375 60 290.984375 84 290.984375 84 C 290.984375 84 311.769531 72 311.769531 72 C 311.769531 72 290.984375 60 290.984375 60 Z M 290.984375 60 "/>
<path style=" stroke:none;fill-rule:nonzero;fill:rgb(100%,99.215686%,84.705882%);fill-opacity:1;" d="M 290.984375 84 C 290.984375 84 290.984375 60 290.984375 60 C 290.984375 60 270.199219 72 270.199219 72 C 270.199219 72 290.984375 84 290.984375 84 Z M 290.984375 84 "/>
<path style=" stroke:none;fill-rule:nonzero;fill:rgb(100%,81.960784%,10.980392%);fill-opacity:1;" d="M 249.414062 60 C 249.414062 60 249.414062 84 249.414062 84 C 249.414062 84 270.199219 72 270.199219 72 C 270.199219 72 249.414062 60 249.414062 60 Z M 249.414062 60 "/>
<path style=" stroke:none;fill-rule:nonzero;fill:rgb(86.27451%,38.431373%,19.215686%);fill-opacity:1;" d="M 207.847656 60 C 207.847656 60 207.847656 84 207.847656 84 C 207.847656 84 228.628906 72 228.628906 72 C 228.628906 72 207.847656 60 207.847656 60 Z M 207.847656 60 "/>
<path style=" stroke:none;fill-rule:nonzero;fill:rgb(65.098039%,92.941176%,92.941176%);fill-opacity:1;" d="M 207.847656 84 C 207.847656 84 207.847656 60 207.847656 60 C 207.847656 60 187.0625 72 187.0625 72 C 187.0625 72 207.847656 84 207.847656 84 Z M 207.847656 84 "/>
<path style=" stroke:none;fill-rule:nonzero;fill:rgb(100%,81.960784%,10.980392%);fill-opacity:1;" d="M 166.277344 84 C 166.277344 84 166.277344 60 166.277344 60 C 166.277344 60 145.492188 72 145.492188 72 C 145.492188 72 166.277344 84 166.277344 84 Z M 166.277344 84 "/>
<path style=" stroke:none;fill-rule:nonzero;fill:rgb(100%,99.215686%,84.705882%);fill-opacity:1;" d="M 124.707031 60 C 124.707031 60 124.707031 84 124.707031 84 C 124.707031 84 145.492188 72 145.492188 72 C 145.492188 72 124.707031 60 124.707031 60 Z M 124.707031 60 "/>
<path style=" stroke:none;fill-rule:nonzero;fill:rgb(100%,99.215686%,84.705882%);fill-opacity:1;" d="M 83.136719 84 C 83.136719 84 83.136719 60 83.136719 60 C 83.136719 60 62.355469 72 62.355469 72 C 62.355469 72 83.136719 84 83.136719 84 Z M 83.136719 84 "/>
<path style=" stroke:none;fill-rule:nonzero;fill:rgb(86.27451%,38.431373%,19.215686%);fill-opacity:1;" d="M 41.570312 60 C 41.570312 60 41.570312 84 41.570312 84 C 41.570312 84 62.355469 72 62.355469 72 C 62.355469 72 41.570312 60 41.570312 60 Z M 41.570312 60 "/>
<path style=" stroke:none;fill-rule:nonzero;fill:rgb(65.098039%,92.941176%,92.941176%);fill-opacity:1;" d="M 0 60 C 0 60 0 84 0 84 C 0 84 20.785156 72 20.785156 72 C 20.785156 72 0 60 0 60 Z M 0 60 "/>
<path style=" stroke:none;fill-rule:nonzero;fill:rgb(100%,81.960784%,10.980392%);fill-opacity:1;" d="M 353.339844 48 C 353.339844 48 353.339844 72 353.339844 72 C 353.339844 72 374.121094 60 374.121094 60 C 374.121094 60 353.339844 48 353.339844 48 Z M 353.339844 48 "/>
<path style=" stroke:none;fill-rule:nonzero;fill:rgb(86.27451%,38.431373%,19.215686%);fill-opacity:1;" d="M 311.769531 48 C 311.769531 48 311.769531 72 311.769531 72 C 311.769531 72 332.554688 60 332.554688 60 C 332.554688 60 311.769531 48 311.769531 48 Z M 311.769531 48 "/>
<path style=" stroke:none;fill-rule:nonzero;fill:rgb(86.27451%,38.431373%,19.215686%);fill-opacity:1;" d="M 311.769531 72 C 311.769531 72 311.769531 48 311.769531 48 C 311.769531 48 290.984375 60 290.984375 60 C 290.984375 60 311.769531 72 311.769531 72 Z M 311.769531 72 "/>
<path style=" stroke:none;fill-rule:nonzero;fill:rgb(100%,81.960784%,10.980392%);fill-opacity:1;" d="M 270.199219 48 C 270.199219 48 270.199219 72 270.199219 72 C 270.199219 72 290.984375 60 290.984375 60 C 290.984375 60 270.199219 48 270.199219 48 Z M 270.199219 48 "/>
<path style=" stroke:none;fill-rule:nonzero;fill:rgb(65.098039%,92.941176%,92.941176%);fill-opacity:1;" d="M 270.199219 72 C 270.199219 72 270.199219 48 270.199219 48 C 270.199219 48 249.414062 60 249.414062 60 C 249.414062 60 270.199219 72 270.199219 72 Z M 270.199219 72 "/>
<path style=" stroke:none;fill-rule:nonzero;fill:rgb(63.529412%,50.196078%,40.392157%);fill-opacity:1;" d="M 228.628906 72 C 228.628906 72 228.628906 48 228.628906 48 C 228.628906 48 207.847656 60 207.847656 60 C 207.847656 60 228.628906 72 228.628906 72 Z M 228.628906 72 "/>
<path style=" stroke:none;fill-rule:nonzero;fill:rgb(63.529412%,50.196078%,40.392157%);fill-opacity:1;" d="M 187.0625 48 C 187.0625 48 187.0625 72 187.0625 72 C 187.0625 72 207.847656 60 207.847656 60 C 207.847656 60 187.0625 48 187.0625 48 Z M 187.0625 48 "/>
<path style=" stroke:none;fill-rule:nonzero;fill:rgb(100%,81.960784%,10.980392%);fill-opacity:1;" d="M 187.0625 72 C 187.0625 72 187.0625 48 187.0625 48 C 187.0625 48 166.277344 60 166.277344 60 C 166.277344 60 187.0625 72 187.0625 72 Z M 187.0625 72 "/>
<path style=" stroke:none;fill-rule:nonzero;fill:rgb(63.529412%,50.196078%,40.392157%);fill-opacity:1;" d="M 145.492188 48 C 145.492188 48 145.492188 72 145.492188 72 C 145.492188 72 166.277344 60 166.277344 60 C 166.277344 60 145.492188 48 145.492188 48 Z M 145.492188 48 "/>
<path style=" stroke:none;fill-rule:nonzero;fill:rgb(100%,99.215686%,84.705882%);fill-opacity:1;" d="M 145.492188 72 C 145.492188 72 145.492188 48 145.492188 48 C 145.492188 48 124.707031 60 124.707031 60 C 124.707031 60 145.492188 72 145.492188 72 Z M 145.492188 72 "/>
<path style=" stroke:none;fill-rule:nonzero;fill:rgb(63.529412%,50.196078%,40.392157%);fill-opacity:1;" d="M 103.921875 48 C 103.921875 48 103.921875 72 103.921875 72 C 103.921875 72 124.707031 60 124.707031 60 C 124.707031 60 103.921875 48 103.921875 48 Z M 103.921875 48 "/>
<path style=" stroke:none;fill-rule:nonzero;fill:rgb(100%,99.215686%,84.705882%);fill-opacity:1;" d="M 103.921875 72 C 103.921875 72 103.921875 48 103.921875 48 C 103.921875 48 83.136719 60 83.136719 60 C 83.136719 60 103.921875 72 103.921875 72 Z M 103.921875 72 "/>
<path style=" stroke:none;fill-rule:nonzero;fill:rgb(65.098039%,92.941176%,92.941176%);fill-opacity:1;" d="M 62.355469 48 C 62.355469 48 62.355469 72 62.355469 72 C 62.355469 72 83.136719 60 83.136719 60 C 83.136719 60 62.355469 48 62.355469 48 Z M 62.355469 48 "/>
<path style=" stroke:none;fill-rule:nonzero;fill:rgb(65.098039%,92.941176%,92.941176%);fill-opacity:1;" d="M 62.355469 72 C 62.355469 72 62.355469 48 62.355469 48 C 62.355469 48 41.570312 60 41.570312 60 C 41.570312 60 62.355469 72 62.355469 72 Z M 62.355469 72 "/>
<path style=" stroke:none;fill-rule:nonzero;fill:rgb(63.529412%,50.196078%,40.392157%);fill-opacity:1;" d="M 20.785156 48 C 20.785156 48 20.785156 72 20.785156 72 C 20.785156 72 41.570312 60 41.570312 60 C 41.570312 60 20.785156 48 20.785156 48 Z M 20.785156 48 "/>
<path style=" stroke:none;fill-rule:nonzero;fill:rgb(63.529412%,50.196078%,40.392157%);fill-opacity:1;" d="M 20.785156 72 C 20.785156 72 20.785156 48 20.785156 48 C 20.785156 48 0 60 0 60 C 0 60 20.785156 72 20.785156 72 Z M 20.785156 72 "/>
<path style=" stroke:none;fill-rule:nonzero;fill:rgb(63.529412%,50.196078%,40.392157%);fill-opacity:1;" d="M 374.121094 60 C 374.121094 60 374.121094 36 374.121094 36 C 374.121094 36 353.339844 48 353.339844 48 C 353.339844 48 374.121094 60 374.121094 60 Z M 374.121094 60 "/>
<path style=" stroke:none;fill-rule:nonzero;fill:rgb(100%,99.215686%,84.705882%);fill-opacity:1;" d="M 332.554688 36 C 332.554688 36 332.554688 60 332.554688 60 C 332.554688 60 353.339844 48 353.339844 48 C 353.339844 48 332.554688 36 332.554688 36 Z M 332.554688 36 "/>
<path style=" stroke:none;fill-rule:nonzero;fill:rgb(63.529412%,50.196078%,40.392157%);fill-opacity:1;" d="M 332.554688 60 C 332.554688 60 332.554688 36 332.554688 36 C 332.554688 36 311.769531 48 311.769531 48 C 311.769531 48 332.554688 60 332.554688 60 Z M 332.554688 60 "/>
<path style=" stroke:none;fill-rule:nonzero;fill:rgb(63.529412%,50.196078%,40.392157%);fill-opacity:1;" d="M 290.984375 36 C 290.984375 36 290.984375 60 290.984375 60 C 290.984375 60 311.769531 48 311.769531 48 C 311.769531 48 290.984375 36 290.984375 36 Z M 290.984375 36 "/>
<path style=" stroke:none;fill-rule:nonzero;fill:rgb(86.27451%,38.431373%,19.215686%);fill-opacity:1;" d="M 249.414062 60 C 249.414062 60 249.414062 36 249.414062 36 C 249.414062 36 228.628906 48 228.628906 48 C 228.628906 48 249.414062 60 249.414062 60 Z M 249.414062 60 "/>
<path style=" stroke:none;fill-rule:nonzero;fill:rgb(65.098039%,92.941176%,92.941176%);fill-opacity:1;" d="M 207.847656 36 C 207.847656 36 207.847656 60 207.847656 60 C 207.847656 60 228.628906 48 228.628906 48 C 228.628906 48 207.847656 36 207.847656 36 Z M 207.847656 36 "/>
<path style=" stroke:none;fill-rule:nonzero;fill:rgb(63.529412%,50.196078%,40.392157%);fill-opacity:1;" d="M 166.277344 36 C 166.277344 36 166.277344 60 166.277344 60 C 166.277344 60 187.0625 48 187.0625 48 C 187.0625 48 166.277344 36 166.277344 36 Z M 166.277344 36 "/>
<path style=" stroke:none;fill-rule:nonzero;fill:rgb(86.27451%,38.431373%,19.215686%);fill-opacity:1;" d="M 166.277344 60 C 166.277344 60 166.277344 36 166.277344 36 C 166.277344 36 145.492188 48 145.492188 48 C 145.492188 48 166.277344 60 166.277344 60 Z M 166.277344 60 "/>
<path style=" stroke:none;fill-rule:nonzero;fill:rgb(65.098039%,92.941176%,92.941176%);fill-opacity:1;" d="M 124.707031 36 C 124.707031 36 124.707031 60 124.707031 60 C 124.707031 60 145.492188 48 145.492188 48 C 145.492188 48 124.707031 36 124.707031 36 Z M 124.707031 36 "/>
<path style=" stroke:none;fill-rule:nonzero;fill:rgb(100%,99.215686%,84.705882%);fill-opacity:1;" d="M 124.707031 60 C 124.707031 60 124.707031 36 124.707031 36 C 124.707031 36 103.921875 48 103.921875 48 C 103.921875 48 124.707031 60 124.707031 60 Z M 124.707031 60 "/>
<path style=" stroke:none;fill-rule:nonzero;fill:rgb(100%,99.215686%,84.705882%);fill-opacity:1;" d="M 83.136719 36 C 83.136719 36 83.136719 60 83.136719 60 C 83.136719 60 103.921875 48 103.921875 48 C 103.921875 48 83.136719 36 83.136719 36 Z M 83.136719 36 "/>
<path style=" stroke:none;fill-rule:nonzero;fill:rgb(86.27451%,38.431373%,19.215686%);fill-opacity:1;" d="M 83.136719 60 C 83.136719 60 83.136719 36 83.136719 36 C 83.136719 36 62.355469 48 62.355469 48 C 62.355469 48 83.136719 60 83.136719 60 Z M 83.136719 60 "/>
<path style=" stroke:none;fill-rule:nonzero;fill:rgb(100%,81.960784%,10.980392%);fill-opacity:1;" d="M 41.570312 36 C 41.570312 36 41.570312 60 41.570312 60 C 41.570312 60 62.355469 48 62.355469 48 C 62.355469 48 41.570312 36 41.570312 36 Z M 41.570312 36 "/>
<path style=" stroke:none;fill-rule:nonzero;fill:rgb(63.529412%,50.196078%,40.392157%);fill-opacity:1;" d="M 41.570312 60 C 41.570312 60 41.570312 36 41.570312 36 C 41.570312 36 20.785156 48 20.785156 48 C 20.785156 48 41.570312 60 41.570312 60 Z M 41.570312 60 "/>
<path style=" stroke:none;fill-rule:nonzero;fill:rgb(63.529412%,50.196078%,40.392157%);fill-opacity:1;" d="M 0 36 C 0 36 0 60 0 60 C 0 60 20.785156 48 20.785156 48 C 20.785156 48 0 36 0 36 Z M 0 36 "/>
<path style=" stroke:none;fill-rule:nonzero;fill:rgb(65.098039%,92.941176%,92.941176%);fill-opacity:1;" d="M 353.339844 24 C 353.339844 24 353.339844 48 353.339844 48 C 353.339844 48 374.121094 36 374.121094 36 C 374.121094 36 353.339844 24 353.339844 24 Z M 353.339844 24 "/>
<path style=" stroke:none;fill-rule:nonzero;fill:rgb(63.529412%,50.196078%,40.392157%);fill-opacity:1;" d="M 353.339844 48 C 353.339844 48 353.339844 24 353.339844 24 C 353.339844 24 332.554688 36 332.554688 36 C 332.554688 36 353.339844 48 353.339844 48 Z M 353.339844 48 "/>
<path style=" stroke:none;fill-rule:nonzero;fill:rgb(100%,81.960784%,10.980392%);fill-opacity:1;" d="M 311.769531 24 C 311.769531 24 311.769531 48 311.769531 48 C 311.769531 48 332.554688 36 332.554688 36 C 332.554688 36 311.769531 24 311.769531 24 Z M 311.769531 24 "/>
<path style=" stroke:none;fill-rule:nonzero;fill:rgb(100%,99.215686%,84.705882%);fill-opacity:1;" d="M 311.769531 48 C 311.769531 48 311.769531 24 311.769531 24 C 311.769531 24 290.984375 36 290.984375 36 C 290.984375 36 311.769531 48 311.769531 48 Z M 311.769531 48 "/>
<path style=" stroke:none;fill-rule:nonzero;fill:rgb(63.529412%,50.196078%,40.392157%);fill-opacity:1;" d="M 270.199219 24 C 270.199219 24 270.199219 48 270.199219 48 C 270.199219 48 290.984375 36 290.984375 36 C 290.984375 36 270.199219 24 270.199219 24 Z M 270.199219 24 "/>
<path style=" stroke:none;fill-rule:nonzero;fill:rgb(100%,99.215686%,84.705882%);fill-opacity:1;" d="M 270.199219 48 C 270.199219 48 270.199219 24 270.199219 24 C 270.199219 24 249.414062 36 249.414062 36 C 249.414062 36 270.199219 48 270.199219 48 Z M 270.199219 48 "/>
<path style=" stroke:none;fill-rule:nonzero;fill:rgb(63.529412%,50.196078%,40.392157%);fill-opacity:1;" d="M 228.628906 24 C 228.628906 24 228.628906 48 228.628906 48 C 228.628906 48 249.414062 36 249.414062 36 C 249.414062 36 228.628906 24 228.628906 24 Z M 228.628906 24 "/>
<path style=" stroke:none;fill-rule:nonzero;fill:rgb(65.098039%,92.941176%,92.941176%);fill-opacity:1;" d="M 228.628906 48 C 228.628906 48 228.628906 24 228.628906 24 C 228.628906 24 207.847656 36 207.847656 36 C 207.847656 36 228.628906 48 228.628906 48 Z M 228.628906 48 "/>
<path style=" stroke:none;fill-rule:nonzero;fill:rgb(65.098039%,92.941176%,92.941176%);fill-opacity:1;" d="M 187.0625 24 C 187.0625 24 187.0625 48 187.0625 48 C 187.0625 48 207.847656 36 207.847656 36 C 207.847656 36 187.0625 24 187.0625 24 Z M 187.0625 24 "/>
<path style=" stroke:none;fill-rule:nonzero;fill:rgb(86.27451%,38.431373%,19.215686%);fill-opacity:1;" d="M 187.0625 48 C 187.0625 48 187.0625 24 187.0625 24 C 187.0625 24 166.277344 36 166.277344 36 C 166.277344 36 187.0625 48 187.0625 48 Z M 187.0625 48 "/>
<path style=" stroke:none;fill-rule:nonzero;fill:rgb(65.098039%,92.941176%,92.941176%);fill-opacity:1;" d="M 145.492188 24 C 145.492188 24 145.492188 48 145.492188 48 C 145.492188 48 166.277344 36 166.277344 36 C 166.277344 36 145.492188 24 145.492188 24 Z M 145.492188 24 "/>
<path style=" stroke:none;fill-rule:nonzero;fill:rgb(100%,99.215686%,84.705882%);fill-opacity:1;" d="M 145.492188 48 C 145.492188 48 145.492188 24 145.492188 24 C 145.492188 24 124.707031 36 124.707031 36 C 124.707031 36 145.492188 48 145.492188 48 Z M 145.492188 48 "/>
<path style=" stroke:none;fill-rule:nonzero;fill:rgb(100%,81.960784%,10.980392%);fill-opacity:1;" d="M 103.921875 24 C 103.921875 24 103.921875 48 103.921875 48 C 103.921875 48 124.707031 36 124.707031 36 C 124.707031 36 103.921875 24 103.921875 24 Z M 103.921875 24 "/>
<path style=" stroke:none;fill-rule:nonzero;fill:rgb(86.27451%,38.431373%,19.215686%);fill-opacity:1;" d="M 103.921875 48 C 103.921875 48 103.921875 24 103.921875 24 C 103.921875 24 83.136719 36 83.136719 36 C 83.136719 36 103.921875 48 103.921875 48 Z M 103.921875 48 "/>
<path style=" stroke:none;fill-rule:nonzero;fill:rgb(100%,81.960784%,10.980392%);fill-opacity:1;" d="M 62.355469 24 C 62.355469 24 62.355469 48 62.355469 48 C 62.355469 48 83.136719 36 83.136719 36 C 83.136719 36 62.355469 24 62.355469 24 Z M 62.355469 24 "/>
<path style=" stroke:none;fill-rule:nonzero;fill:rgb(63.529412%,50.196078%,40.392157%);fill-opacity:1;" d="M 62.355469 48 C 62.355469 48 62.355469 24 62.355469 24 C 62.355469 24 41.570312 36 41.570312 36 C 41.570312 36 62.355469 48 62.355469 48 Z M 62.355469 48 "/>
<path style=" stroke:none;fill-rule:nonzero;fill:rgb(100%,99.215686%,84.705882%);fill-opacity:1;" d="M 20.785156 24 C 20.785156 24 20.785156 48 20.785156 48 C 20.785156 48 41.570312 36 41.570312 36 C 41.570312 36 20.785156 24 20.785156 24 Z M 20.785156 24 "/>
<path style=" stroke:none;fill-rule:nonzero;fill:rgb(86.27451%,38.431373%,19.215686%);fill-opacity:1;" d="M 20.785156 48 C 20.785156 48 20.785156 24 20.785156 24 C 20.785156 24 0 36 0 36 C 0 36 20.785156 48 20.785156 48 Z M 20.785156 48 "/>
<path style=" stroke:none;fill-rule:nonzero;fill:rgb(100%,99.215686%,84.705882%);fill-opacity:1;" d="M 374.121094 36 C 374.121094 36 374.121094 12 374.121094 12 C 374.121094 12 353.339844 24 353.339844 24 C 353.339844 24 374.121094 36 374.121094 36 Z M 374.121094 36 "/>
<path style=" stroke:none;fill-rule:nonzero;fill:rgb(86.27451%,38.431373%,19.215686%);fill-opacity:1;" d="M 332.554688 12 C 332.554688 12 332.554688 36 332.554688 36 C 332.554688 36 353.339844 24 353.339844 24 C 353.339844 24 332.554688 12 332.554688 12 Z M 332.554688 12 "/>
<path style=" stroke:none;fill-rule:nonzero;fill:rgb(65.098039%,92.941176%,92.941176%);fill-opacity:1;" d="M 332.554688 36 C 332.554688 36 332.554688 12 332.554688 12 C 332.554688 12 311.769531 24 311.769531 24 C 311.769531 24 332.554688 36 332.554688 36 Z M 332.554688 36 "/>
<path style=" stroke:none;fill-rule:nonzero;fill:rgb(100%,99.215686%,84.705882%);fill-opacity:1;" d="M 290.984375 12 C 290.984375 12 290.984375 36 290.984375 36 C 290.984375 36 311.769531 24 311.769531 24 C 311.769531 24 290.984375 12 290.984375 12 Z M 290.984375 12 "/>
<path style=" stroke:none;fill-rule:nonzero;fill:rgb(63.529412%,50.196078%,40.392157%);fill-opacity:1;" d="M 290.984375 36 C 290.984375 36 290.984375 12 290.984375 12 C 290.984375 12 270.199219 24 270.199219 24 C 270.199219 24 290.984375 36 290.984375 36 Z M 290.984375 36 "/>
<path style=" stroke:none;fill-rule:nonzero;fill:rgb(86.27451%,38.431373%,19.215686%);fill-opacity:1;" d="M 249.414062 36 C 249.414062 36 249.414062 12 249.414062 12 C 249.414062 12 228.628906 24 228.628906 24 C 228.628906 24 249.414062 36 249.414062 36 Z M 249.414062 36 "/>
<path style=" stroke:none;fill-rule:nonzero;fill:rgb(63.529412%,50.196078%,40.392157%);fill-opacity:1;" d="M 207.847656 12 C 207.847656 12 207.847656 36 207.847656 36 C 207.847656 36 228.628906 24 228.628906 24 C 228.628906 24 207.847656 12 207.847656 12 Z M 207.847656 12 "/>
<path style=" stroke:none;fill-rule:nonzero;fill:rgb(100%,81.960784%,10.980392%);fill-opacity:1;" d="M 207.847656 36 C 207.847656 36 207.847656 12 207.847656 12 C 207.847656 12 187.0625 24 187.0625 24 C 187.0625 24 207.847656 36 207.847656 36 Z M 207.847656 36 "/>
<path style=" stroke:none;fill-rule:nonzero;fill:rgb(100%,99.215686%,84.705882%);fill-opacity:1;" d="M 166.277344 12 C 166.277344 12 166.277344 36 166.277344 36 C 166.277344 36 187.0625 24 187.0625 24 C 187.0625 24 166.277344 12 166.277344 12 Z M 166.277344 12 "/>
<path style=" stroke:none;fill-rule:nonzero;fill:rgb(100%,81.960784%,10.980392%);fill-opacity:1;" d="M 166.277344 36 C 166.277344 36 166.277344 12 166.277344 12 C 166.277344 12 145.492188 24 145.492188 24 C 145.492188 24 166.277344 36 166.277344 36 Z M 166.277344 36 "/>
<path style=" stroke:none;fill-rule:nonzero;fill:rgb(63.529412%,50.196078%,40.392157%);fill-opacity:1;" d="M 124.707031 12 C 124.707031 12 124.707031 36 124.707031 36 C 124.707031 36 145.492188 24 145.492188 24 C 145.492188 24 124.707031 12 124.707031 12 Z M 124.707031 12 "/>
<path style=" stroke:none;fill-rule:nonzero;fill:rgb(86.27451%,38.431373%,19.215686%);fill-opacity:1;" d="M 124.707031 36 C 124.707031 36 124.707031 12 124.707031 12 C 124.707031 12 103.921875 24 103.921875 24 C 103.921875 24 124.707031 36 124.707031 36 Z M 124.707031 36 "/>
<path style=" stroke:none;fill-rule:nonzero;fill:rgb(63.529412%,50.196078%,40.392157%);fill-opacity:1;" d="M 83.136719 36 C 83.136719 36 83.136719 12 83.136719 12 C 83.136719 12 62.355469 24 62.355469 24 C 62.355469 24 83.136719 36 83.136719 36 Z M 83.136719 36 "/>
<path style=" stroke:none;fill-rule:nonzero;fill:rgb(100%,99.215686%,84.705882%);fill-opacity:1;" d="M 41.570312 12 C 41.570312 12 41.570312 36 41.570312 36 C 41.570312 36 62.355469 24 62.355469 24 C 62.355469 24 41.570312 12 41.570312 12 Z M 41.570312 12 "/>
<path style=" stroke:none;fill-rule:nonzero;fill:rgb(63.529412%,50.196078%,40.392157%);fill-opacity:1;" d="M 41.570312 36 C 41.570312 36 41.570312 12 41.570312 12 C 41.570312 12 20.785156 24 20.785156 24 C 20.785156 24 41.570312 36 41.570312 36 Z M 41.570312 36 "/>
<path style=" stroke:none;fill-rule:nonzero;fill:rgb(100%,81.960784%,10.980392%);fill-opacity:1;" d="M 0 12 C 0 12 0 36 0 36 C 0 36 20.785156 24 20.785156 24 C 20.785156 24 0 12 0 12 Z M 0 12 "/>
<path style=" stroke:none;fill-rule:nonzero;fill:rgb(86.27451%,38.431373%,19.215686%);fill-opacity:1;" d="M 353.339844 0 C 353.339844 0 353.339844 24 353.339844 24 C 353.339844 24 374.121094 12 374.121094 12 C 374.121094 12 353.339844 0 353.339844 0 Z M 353.339844 0 "/>
<path style=" stroke:none;fill-rule:nonzero;fill:rgb(86.27451%,38.431373%,19.215686%);fill-opacity:1;" d="M 353.339844 24 C 353.339844 24 353.339844 0 353.339844 0 C 353.339844 0 332.554688 12 332.554688 12 C 332.554688 12 353.339844 24 353.339844 24 Z M 353.339844 24 "/>
<path style=" stroke:none;fill-rule:nonzero;fill:rgb(65.098039%,92.941176%,92.941176%);fill-opacity:1;" d="M 311.769531 0 C 311.769531 0 311.769531 24 311.769531 24 C 311.769531 24 332.554688 12 332.554688 12 C 332.554688 12 311.769531 0 311.769531 0 Z M 311.769531 0 "/>
<path style=" stroke:none;fill-rule:nonzero;fill:rgb(100%,99.215686%,84.705882%);fill-opacity:1;" d="M 311.769531 24 C 311.769531 24 311.769531 0 311.769531 0 C 311.769531 0 290.984375 12 290.984375 12 C 290.984375 12 311.769531 24 311.769531 24 Z M 311.769531 24 "/>
<path style=" stroke:none;fill-rule:nonzero;fill:rgb(100%,81.960784%,10.980392%);fill-opacity:1;" d="M 270.199219 0 C 270.199219 0 270.199219 24 270.199219 24 C 270.199219 24 290.984375 12 290.984375 12 C 290.984375 12 270.199219 0 270.199219 0 Z M 270.199219 0 "/>
<path style=" stroke:none;fill-rule:nonzero;fill:rgb(65.098039%,92.941176%,92.941176%);fill-opacity:1;" d="M 270.199219 24 C 270.199219 24 270.199219 0 270.199219 0 C 270.199219 0 249.414062 12 249.414062 12 C 249.414062 12 270.199219 24 270.199219 24 Z M 270.199219 24 "/>
<path style=" stroke:none;fill-rule:nonzero;fill:rgb(100%,81.960784%,10.980392%);fill-opacity:1;" d="M 228.628906 24 C 228.628906 24 228.628906 0 228.628906 0 C 228.628906 0 207.847656 12 207.847656 12 C 207.847656 12 228.628906 24 228.628906 24 Z M 228.628906 24 "/>
<path style=" stroke:none;fill-rule:nonzero;fill:rgb(65.098039%,92.941176%,92.941176%);fill-opacity:1;" d="M 187.0625 24 C 187.0625 24 187.0625 0 187.0625 0 C 187.0625 0 166.277344 12 166.277344 12 C 166.277344 12 187.0625 24 187.0625 24 Z M 187.0625 24 "/>
<path style=" stroke:none;fill-rule:nonzero;fill:rgb(65.098039%,92.941176%,92.941176%);fill-opacity:1;" d="M 145.492188 0 C 145.492188 0 145.492188 24 145.492188 24 C 145.492188 24 166.277344 12 166.277344 12 C 166.277344 12 145.492188 0 145.492188 0 Z M 145.492188 0 "/>
<path style=" stroke:none;fill-rule:nonzero;fill:rgb(65.098039%,92.941176%,92.941176%);fill-opacity:1;" d="M 145.492188 24 C 145.492188 24 145.492188 0 145.492188 0 C 145.492188 0 124.707031 12 124.707031 12 C 124.707031 12 145.492188 24 145.492188 24 Z M 145.492188 24 "/>
<path style=" stroke:none;fill-rule:nonzero;fill:rgb(100%,81.960784%,10.980392%);fill-opacity:1;" d="M 103.921875 0 C 103.921875 0 103.921875 24 103.921875 24 C 103.921875 24 124.707031 12 124.707031 12 C 124.707031 12 103.921875 0 103.921875 0 Z M 103.921875 0 "/>
<path style=" stroke:none;fill-rule:nonzero;fill:rgb(100%,99.215686%,84.705882%);fill-opacity:1;" d="M 103.921875 24 C 103.921875 24 103.921875 0 103.921875 0 C 103.921875 0 83.136719 12 83.136719 12 C 83.136719 12 103.921875 24 103.921875 24 Z M 103.921875 24 "/>
<path style=" stroke:none;fill-rule:nonzero;fill:rgb(86.27451%,38.431373%,19.215686%);fill-opacity:1;" d="M 62.355469 0 C 62.355469 0 62.355469 24 62.355469 24 C 62.355469 24 83.136719 12 83.136719 12 C 83.136719 12 62.355469 0 62.355469 0 Z M 62.355469 0 "/>
<path style=" stroke:none;fill-rule:nonzero;fill:rgb(100%,99.215686%,84.705882%);fill-opacity:1;" d="M 62.355469 24 C 62.355469 24 62.355469 0 62.355469 0 C 62.355469 0 41.570312 12 41.570312 12 C 41.570312 12 62.355469 24 62.355469 24 Z M 62.355469 24 "/>
<path style=" stroke:none;fill-rule:nonzero;fill:rgb(86.27451%,38.431373%,19.215686%);fill-opacity:1;" d="M 20.785156 24 C 20.785156 24 20.785156 0 20.785156 0 C 20.785156 0 0 12 0 12 C 0 12 20.785156 24 20.785156 24 Z M 20.785156 24 "/>
</g>
</svg>
