<?xml version="1.0" encoding="UTF-8" standalone="no"?>
<svg
   xmlns:dc="http://purl.org/dc/elements/1.1/"
   xmlns:cc="http://creativecommons.org/ns#"
   xmlns:rdf="http://www.w3.org/1999/02/22-rdf-syntax-ns#"
   xmlns:svg="http://www.w3.org/2000/svg"
   xmlns="http://www.w3.org/2000/svg"
   xmlns:xlink="http://www.w3.org/1999/xlink"
   xmlns:sodipodi="http://sodipodi.sourceforge.net/DTD/sodipodi-0.dtd"
   xmlns:inkscape="http://www.inkscape.org/namespaces/inkscape"
   inkscape:export-ydpi="96"
   inkscape:export-xdpi="96"
   inkscape:export-filename="/home/diego/Programs/Guix/guix-artwork/slim/1.x/panel.png"
   sodipodi:docname="panel.svg"
   inkscape:version="1.0beta2 (2b71d25, 2019-12-03)"
   id="svg8"
   version="1.1"
   viewBox="0 0 400 200"
   height="200"
   width="400">
  <defs
     id="defs2">
    <linearGradient
       id="linearGradient4702-3">
      <stop
         id="stop4704-1"
         offset="0"
         style="stop-color:#ff0000;stop-opacity:0.58431375;" />
      <stop
         id="stop4706-8"
         offset="1"
         style="stop-color:#ffcc00;stop-opacity:1;" />
    </linearGradient>
    <linearGradient
       id="linearGradient4696-5">
      <stop
         id="stop4698-6"
         offset="0"
         style="stop-color:#ffb638;stop-opacity:1;" />
      <stop
         id="stop4700-2"
         offset="1"
         style="stop-color:#f0ae26;stop-opacity:1;" />
    </linearGradient>
    <filter
       id="filter3141"
       inkscape:label="Drop Shadow"
       style="color-interpolation-filters:sRGB;">
      <feFlood
         id="feFlood3131"
         result="flood"
         flood-color="rgb(0,0,0)"
         flood-opacity="0.498039" />
      <feComposite
         id="feComposite3133"
         result="composite1"
         operator="in"
         in2="SourceGraphic"
         in="flood" />
      <feGaussianBlur
         id="feGaussianBlur3135"
         result="blur"
         stdDeviation="1"
         in="composite1" />
      <feOffset
         id="feOffset3137"
         result="offset"
         dy="4"
         dx="-4" />
      <feComposite
         id="feComposite3139"
         result="composite2"
         operator="over"
         in2="offset"
         in="SourceGraphic" />
    </filter>
    <filter
       id="filter1254"
       inkscape:label="Drop Shadow"
       style="color-interpolation-filters:sRGB;">
      <feFlood
         id="feFlood1244"
         result="flood"
         flood-color="rgb(127,127,127)"
         flood-opacity="0.498039" />
      <feComposite
         id="feComposite1246"
         result="composite1"
         operator="out"
         in2="SourceGraphic"
         in="flood" />
      <feGaussianBlur
         id="feGaussianBlur1248"
         result="blur"
         stdDeviation="1"
         in="composite1" />
      <feOffset
         id="feOffset1250"
         result="offset"
         dy="4"
         dx="-4" />
      <feComposite
         id="feComposite1252"
         result="composite2"
         operator="atop"
         in2="SourceGraphic"
         in="offset" />
    </filter>
    <filter
       id="filter1298"
       inkscape:label="Drop Shadow"
       style="color-interpolation-filters:sRGB;">
      <feFlood
         id="feFlood1288"
         result="flood"
         flood-color="rgb(0,0,0)"
         flood-opacity="0.498039" />
      <feComposite
         id="feComposite1290"
         result="composite1"
         operator="in"
         in2="SourceGraphic"
         in="flood" />
      <feGaussianBlur
         id="feGaussianBlur1292"
         result="blur"
         stdDeviation="1"
         in="composite1" />
      <feOffset
         id="feOffset1294"
         result="offset"
         dy="4"
         dx="-4" />
      <feComposite
         id="feComposite1296"
         result="composite2"
         operator="over"
         in2="offset"
         in="SourceGraphic" />
    </filter>
    <filter
       id="filter4152"
       inkscape:label="Drop Shadow"
       style="color-interpolation-filters:sRGB;">
      <feFlood
         id="feFlood4142"
         result="flood"
         flood-color="rgb(0,0,0)"
         flood-opacity="0.498039" />
      <feComposite
         id="feComposite4144"
         result="composite1"
         operator="in"
         in2="SourceGraphic"
         in="flood" />
      <feGaussianBlur
         id="feGaussianBlur4146"
         result="blur"
         stdDeviation="3"
         in="composite1" />
      <feOffset
         id="feOffset4148"
         result="offset"
         dy="6"
         dx="6" />
      <feComposite
         id="feComposite4150"
         result="composite2"
         operator="over"
         in2="offset"
         in="SourceGraphic" />
    </filter>
  </defs>
  <sodipodi:namedview
     inkscape:document-rotation="0"
     showborder="true"
     inkscape:showpageshadow="true"
     inkscape:snap-object-midpoints="true"
     inkscape:object-paths="true"
     inkscape:window-maximized="0"
     inkscape:window-y="28"
     inkscape:window-x="1616"
     inkscape:window-height="980"
     inkscape:window-width="1280"
     inkscape:snap-to-guides="true"
     inkscape:guide-bbox="true"
     showguides="false"
     inkscape:snap-grids="false"
     inkscape:snap-bbox-edge-midpoints="false"
     inkscape:snap-bbox="false"
     inkscape:pagecheckerboard="true"
     units="px"
     showgrid="true"
     inkscape:current-layer="layer2"
     inkscape:document-units="px"
     inkscape:cy="151.32492"
     inkscape:cx="242.60541"
     inkscape:zoom="1.9251745"
     inkscape:pageshadow="2"
     inkscape:pageopacity="0.0"
     borderopacity="1.0"
     bordercolor="#666666"
     pagecolor="#ffffff"
     id="base">
    <inkscape:grid
       visible="false"
       id="grid815"
       type="xygrid" />
    <sodipodi:guide
       inkscape:locked="false"
       id="guide1540"
       orientation="0,1"
       position="-35,100" />
    <sodipodi:guide
       inkscape:locked="false"
       id="guide1542"
       orientation="0,1"
       position="-22,135" />
    <sodipodi:guide
       inkscape:locked="false"
       id="guide1544"
       orientation="0,1"
       position="-22,65" />
    <sodipodi:guide
       inkscape:locked="false"
       id="guide1546"
       orientation="0,1"
       position="-31,195" />
    <sodipodi:guide
       inkscape:locked="false"
       id="guide1548"
       orientation="0,1"
       position="-20,5" />
    <sodipodi:guide
       inkscape:locked="false"
       id="guide1552"
       orientation="1,0"
       position="11.272669,192.39547" />
    <sodipodi:guide
       inkscape:locked="false"
       id="guide1554"
       orientation="0,1"
       position="11.273207,192.39829" />
    <sodipodi:guide
       inkscape:locked="false"
       id="guide1556"
       orientation="1,0"
       position="388.72856,66.324451" />
    <sodipodi:guide
       inkscape:locked="false"
       id="guide1650"
       orientation="1,0"
       position="174.45235,99.97197" />
  </sodipodi:namedview>
  <metadata
     id="metadata5">
    <rdf:RDF>
      <cc:Work
         rdf:about="">
        <dc:format>image/svg+xml</dc:format>
        <dc:type
           rdf:resource="http://purl.org/dc/dcmitype/StillImage" />
        <dc:title />
      </cc:Work>
    </rdf:RDF>
  </metadata>
  <g
     style="display:none"
     sodipodi:insensitive="true"
     transform="translate(0,-244.08332)"
     id="layer1"
     inkscape:groupmode="layer"
     inkscape:label="Ebene 1">
    <image
       sodipodi:absref="/Users/franz/git/git.pantherx.org/px-artwork/slim/1.x/background.png"
       xlink:href="background.png"
       y="-195.91669"
       x="-760"
       id="image1468"
       preserveAspectRatio="none"
       height="1080"
       width="1920" />
  </g>
  <g
     style="display:inline"
     inkscape:label="Ebene 2"
     id="layer2"
     inkscape:groupmode="layer">
    <g
       transform="translate(-2.9364319,-92.303596)"
       style="display:inline;filter:url(#filter1298)"
       id="g1262">
      <g
         id="g1230"
         style="filter:url(#filter1254)">
        <rect
           ry="3"
           rx="3"
           y="254.8036"
           x="180.43643"
           height="30"
           width="208"
           id="rect1208"
           style="opacity:1;fill:#ffffff;fill-opacity:0.623529;fill-rule:nonzero;stroke:none;stroke-width:1;stroke-linecap:round;stroke-linejoin:miter;stroke-miterlimit:4;stroke-dasharray:none;stroke-opacity:0.623529;paint-order:fill markers stroke" />
        <rect
           y="249.8036"
           x="175.43643"
           height="40"
           width="218"
           id="rect1210"
           style="opacity:1;fill:none;fill-opacity:0.623529;fill-rule:nonzero;stroke:none;stroke-width:1;stroke-linecap:round;stroke-linejoin:miter;stroke-miterlimit:4;stroke-dasharray:none;stroke-opacity:0.623529;paint-order:fill markers stroke" />
      </g>
      <rect
         style="opacity:1;fill:none;fill-opacity:0.623529;fill-rule:nonzero;stroke:#ffffff;stroke-width:1;stroke-linecap:round;stroke-linejoin:miter;stroke-miterlimit:4;stroke-dasharray:none;stroke-opacity:0.623529;paint-order:fill markers stroke"
         id="rect1256"
         width="212"
         height="34"
         x="178.43643"
         y="252.8036"
         rx="5"
         ry="5" />
    </g>
    <g
       style="filter:url(#filter4152)"
       transform="matrix(0.69038671,0,0,0.69038671,9.3925334,77.17729)"
       fill-rule="evenodd"
       fill="none"
       stroke-width="1"
       stroke="none"
       id="logo">
      <g
         fill="#FFFFFF"
         transform="translate(1,2)"
         id="Group">
        <polygon
           points="90.941821,48.924147 76.817807,52.810021 65.763619,62.519137 46.114271,67.048945 43.042685,72.230109 46.728588,75.470192 45.499954,78.706565 37.517351,80 35.060083,78.057063 38.129908,63.166783 46.728588,59.284621 55.939825,50.219439 63.30811,39.213176 69.449522,34.681512 62.079476,38.567386 60.238285,41.156112 57.321599,42.128509 13.337195,71.098121 6.6976411,71.343076 0,64.016701 2.4854321,50.321503 19.695113,46.385525 22.770219,49.597773 17.248406,50.880074 5.5834212,54.109023 3.74223,63.170494 8.6550069,66.40501 17.251926,63.814428 57.166699,35.331014 70.676396,31.44514 92.783012,27.561123 114.27531,19.364417 119.80416,15.049872 125.32774,15.049872 129.62796,12.078868 132.69955,11.405242 135.76937,6.8587335 139.45351,6.203665 140.06607,2.1470657 141.90902,3.9155648 148.05219,3.9155648 149.28083,2.0598469 154.80616,2.0598469 159.10462,0 160.94757,0.20412897 162.78876,0.20412897 164.0174,2.0598469 168.3141,2.0598469 169.54625,3.3198794 172,5.4725122 171.38392,7.6270007 170.77313,7.6270007 169.54625,11.499884 168.93017,15.049872 168.3141,15.049872 167.7033,13.194154 163.40132,13.194154 160.34558,15.259569 160.34558,24.324751 164.17582,23.226166 159.71718,29.895616 155.41872,29.895616 153.30469,28.854558 153.30469,24.324751 145.91704,18.497796 142.99332,12.670842 144.90668,19.145442 152.92801,24.97054 152.33305,26.915333 149.27027,27.561123 149.88986,39.862677 146.82356,44.39434 149.71736,54.752958 155.06491,61.871491 155.06491,65.757365 162.76588,72.87961 168.30354,72.230109 170.76609,75.470192 169.54097,80 159.10286,79.352354 132.08523,52.810021 113.04844,54.107168 103.8372,50.219439 "
           id="Shape" />
        <polygon
           points="94.332234,73.370548 90.141915,67.52605 95.92734,59.08958 94.719255,51.298777 90.96117,50 82,53.406964 85.231808,57.385168 82.117553,68.586656 90.990106,78 99,78 99,73.370548 97.043192,72.06991 "
           id="polygon71" />
        <polygon
           points="127.37461,71.814838 129,74.725999 128.45976,77 119.79257,77 117.08514,67.534151 116,55.358542 126.28947,54 123.0418,63.540917 124.12539,71.186833 "
           id="polygon73" />
      </g>
      <path
         inkscape:connector-curvature="0"
         fill-rule="nonzero"
         fill="#FFFFFF"
         id="PANTHERX"
         d="m 214.29772,1.2279202 c 7.21751,0 12.5166,1.7853573 15.89744,5.3561254 3.38083,3.5707684 5.07122,9.2687164 5.07122,17.0940174 0,8.812959 -1.91831,15.175669 -5.75498,19.088319 -3.83668,3.91265 -8.86987,5.868946 -15.09972,5.868946 h -4.10256 v 30.54131 c 0,0.683764 -0.13296,1.1396 -0.39886,1.367522 -0.25027,0.214514 -1.05574,0.344903 -2.41643,0.391171 l -0.89576,0.02187 C 205.16706,80.985734 203.36516,81 201.19231,81 V 3.0512821 c 0,-0.6837641 0.13295,-1.1585932 0.39886,-1.4245015 0.26591,-0.2659082 0.74073,-0.3988604 1.4245,-0.3988604 z m 1.02564,38.8603988 c 3.34285,0 5.81196,-1.348514 7.40741,-4.045584 1.59545,-2.697069 2.39316,-7.160463 2.39316,-13.390313 0,-4.330506 -0.70275,-7.635317 -2.10826,-9.91453 -1.40552,-2.279214 -3.74167,-3.4188037 -7.00855,-3.4188037 h -5.698 V 40.088319 Z m 66.43875,39.202279 c 0.15195,0.683764 -0.038,1.177587 -0.5698,1.481482 -0.49858,0.284902 -1.53133,0.436253 -3.09829,0.45406 l -0.32052,0.0018 c -2.05129,0 -3.87463,-0.07597 -5.47008,-0.22792 l -4.78633,-20.2849 h -19.82906 l -4.44444,18.689458 c -0.22792,0.683765 -0.58879,1.158594 -1.08262,1.424502 -0.49383,0.265908 -1.57644,0.39886 -3.24787,0.39886 -1.59544,0 -3.49476,-0.113959 -5.698,-0.34188 L 253.61396,2.4814815 c 0.22792,-1.0636331 1.36751,-1.59544161 3.4188,-1.59544161 1.7474,0 3.19088,0.11395897 4.33049,0.34188031 z M 249.62536,52.396011 h 15.84045 l -3.87464,-16.410256 c -2.20324,-9.268802 -3.53276,-16.600163 -3.98861,-21.994302 -0.83571,6.761667 -2.20322,14.093028 -4.10256,21.994302 z m 68.8319,-49.3447289 c 0,-0.6837641 0.15195,-1.1396001 0.45584,-1.3675214 0.3039,-0.2279214 1.21557,-0.3608735 2.73505,-0.3988604 l 1.32092,-0.026338 c 1.30742,-0.020428 2.8804,-0.030642 4.71896,-0.030642 V 79.176638 C 327.68803,80.392219 327.04227,81 325.75071,81 H 318.9131 L 305.80769,49.660969 305.29947,48.27921 c -1.9469,-5.380285 -5.3862,-15.745827 -10.31799,-31.096874 l 0.0999,1.170556 c 0.26263,3.339081 0.49523,8.418943 0.69783,15.239701 l 0.13697,4.936585 c 0.13661,5.342965 0.20491,9.661321 0.20491,12.955152 v 27.692308 c 0,0.683764 -0.13295,1.1396 -0.39886,1.367522 -0.25026,0.214514 -1.05573,0.344903 -2.41642,0.391171 l -0.89577,0.02187 C 290.97903,80.985734 289.17712,81 287.00427,81 V 3.0512821 c 0,-1.2155807 0.60778,-1.8233619 1.82336,-1.8233619 h 6.95157 l 12.8775,30.7692308 0.62244,1.734762 c 0.76558,2.179087 1.96058,5.691154 3.585,10.53623 l 4.84554,14.527865 c 0.43761,1.294582 1.06667,3.149849 1.88719,5.565815 v -0.34188 l -0.086,-0.726582 c -0.30907,-2.821136 -0.55013,-7.369277 -0.72321,-13.644523 l -0.11229,-4.58991 c -0.14542,-6.419174 -0.21813,-11.45682 -0.21813,-15.113059 z m 55.27066,-1.8233619 v 6.7236467 c 0,0.7597379 -0.15194,1.2725533 -0.45584,1.5384616 -0.3039,0.2659083 -0.79772,0.3988604 -1.48148,0.3988604 H 357.7735 V 79.176638 c 0,0.683764 -0.15194,1.1396 -0.45584,1.367522 -0.30389,0.227921 -1.21556,0.360873 -2.73504,0.39886 l -1.32093,0.02634 C 351.95428,80.989786 350.3813,81 348.54273,81 V 9.8888889 H 333.04416 V 3.0512821 c 0,-1.2155807 0.64577,-1.8233619 1.93732,-1.8233619 z m 42.50712,77.9487178 c 0,0.683764 -0.13295,1.1396 -0.39886,1.367522 -0.26591,0.227921 -1.13959,0.360873 -2.62108,0.39886 l -1.30269,0.02634 C 410.61056,80.989786 409.01251,81 407.11823,81 V 42.367521 h -18.23362 v 36.809117 c 0,0.683764 -0.13295,1.1396 -0.39886,1.367522 -0.25026,0.214514 -1.05573,0.344903 -2.41642,0.391171 l -0.89779,0.02187 C 383.73176,80.985734 381.89254,81 379.65385,81 V 3.0512821 c 0,-0.6837641 0.13295,-1.1396001 0.39886,-1.3675214 0.25026,-0.2145142 1.05573,-0.3449035 2.41642,-0.3911711 l 0.89779,-0.021871 c 1.43978,-0.028532 3.279,-0.042798 5.51769,-0.042798 V 33.706553 h 18.23362 V 3.0512821 c 0,-0.6837641 0.13296,-1.1396001 0.39886,-1.3675214 0.26591,-0.2279214 1.1396,-0.3608735 2.62109,-0.3988604 l 1.30269,-0.026338 c 1.30184,-0.020428 2.89989,-0.030642 4.79417,-0.030642 z m 19.37322,-6.495726 h 19.60114 l -0.005,1.915073 c -0.008,1.34729 -0.0253,2.494302 -0.0516,3.441052 -0.038,1.367528 -0.18993,2.203227 -0.45584,2.507123 C 454.43067,80.848055 453.99383,81 453.38604,81 H 426.49145 V 3.0512821 c 0,-0.3038952 0.11396,-0.6837584 0.34188,-1.1396012 0.22793,-0.4558427 0.72175,-0.6837607 1.48148,-0.6837607 h 27.35043 l -0.003,1.4120301 c -0.007,1.5014866 -0.0247,2.7781904 -0.054,3.8301352 l -0.0203,0.5196601 c -0.0549,1.0666694 -0.18107,1.7481447 -0.3786,2.0444424 -0.22792,0.3418821 -0.64577,0.5128205 -1.25356,0.5128205 H 435.60826 V 33.364672 h 17.20798 l -0.01,2.386042 c -0.009,1.030388 -0.0249,1.944439 -0.0471,2.742163 -0.038,1.367529 -0.17094,2.260207 -0.39886,2.678063 -0.22792,0.417856 -0.64577,0.626781 -1.25356,0.626781 h -15.49858 z m 51.39601,-26.552707 c 2.43116,3.190899 4.69135,7.52134 6.78063,12.991453 2.08928,5.470113 3.39981,12.079734 3.93162,19.82906 0,0.911685 -0.2659,1.519467 -0.79772,1.823362 -0.50382,0.2879 -1.6895,0.439425 -3.55707,0.454578 h -0.56904 c -0.9167,-0.01318 -2.61824,-0.08852 -5.10466,-0.226658 -0.53181,-8.357117 -1.72838,-15.175662 -3.58974,-20.455841 -1.86136,-5.280178 -3.77967,-9.287735 -5.75499,-12.022792 -0.53181,0.07597 -1.29154,0.113961 -2.2792,0.113961 h -4.10256 v 30.54131 c 0,0.683764 -0.13295,1.1396 -0.39886,1.367522 -0.25027,0.214514 -1.05574,0.344903 -2.41643,0.391171 l -0.89576,0.02187 C 466.81949,80.985734 465.01758,81 462.84473,81 V 3.0512821 c 0,-0.3038952 0.11396,-0.6837584 0.34188,-1.1396012 0.22792,-0.4558427 0.72174,-0.6837607 1.48148,-0.6837607 h 11.28205 c 7.21751,0 12.5166,1.7853573 15.89744,5.3561254 3.38083,3.5707684 5.07122,9.2687164 5.07122,17.0940174 0,11.168147 -3.30481,18.651453 -9.91453,22.450142 z m -10.02849,-6.039886 c 3.34285,0 5.81196,-1.310528 7.40741,-3.931624 1.59545,-2.621096 2.39316,-6.894557 2.39316,-12.820513 0,-4.634401 -0.70274,-8.129143 -2.10826,-10.48433 -1.40551,-2.355188 -3.74167,-3.5327637 -7.00855,-3.5327637 h -5.698 V 40.088319 Z m 72.47864,39.430199 c 0.15194,0.303896 0.22792,0.531814 0.22792,0.683761 0,0.531817 -0.41785,0.797721 -1.25357,0.797721 h -10.02848 l -6.15385,-15.384615 c -2.12727,-5.394139 -4.17853,-11.016116 -6.15385,-16.866097 -2.20324,6.457772 -4.33047,12.079748 -6.38176,16.866097 l -6.15385,14.245014 c -0.30389,0.455843 -0.58879,0.759733 -0.8547,0.911681 C 512.43637,80.924027 512.03751,81 511.5057,81 h -7.97721 L 520.96439,39.860399 506.60541,2.8233618 c -0.22792,-0.6077903 -0.17094,-1.0066467 0.17094,-1.1965812 0.32289,-0.1793825 1.32343,-0.2909968 3.00165,-0.3348457 l 1.80961,-0.031964 c 1.61681,-0.021367 3.5648,-0.032051 5.84401,-0.032051 l 4.67237,12.9914531 0.97044,2.805961 c 2.03237,5.903991 3.60822,10.666639 4.72756,14.288056 l 0.69244,-2.224004 c 1.71927,-5.489025 3.34979,-10.445657 4.89161,-14.870013 l 4.44444,-11.5099716 c 0.15195,-0.5318165 0.39886,-0.8926866 0.74075,-1.0826211 0.32051,-0.1780635 1.1752,-0.2893518 2.5641,-0.3338675 l 0.93726,-0.022195 c 1.47709,-0.028532 3.36789,-0.042798 5.67242,-0.042798 L 533.04416,39.062678 Z" />
    </g>
  </g>
</svg>
