<?xml version="1.0" encoding="UTF-8" standalone="no"?>
<svg
   xmlns:dc="http://purl.org/dc/elements/1.1/"
   xmlns:cc="http://creativecommons.org/ns#"
   xmlns:rdf="http://www.w3.org/1999/02/22-rdf-syntax-ns#"
   xmlns:svg="http://www.w3.org/2000/svg"
   xmlns="http://www.w3.org/2000/svg"
   xmlns:sodipodi="http://sodipodi.sourceforge.net/DTD/sodipodi-0.dtd"
   xmlns:inkscape="http://www.inkscape.org/namespaces/inkscape"
   inkscape:version="1.0beta2 (2b71d25, 2019-12-03)"
   sodipodi:docname="PantherX-white.svg"
   id="svg78"
   version="1.1"
   viewBox="0 0 549 84"
   height="84px"
   width="549px">
  <metadata
     id="metadata84">
    <rdf:RDF>
      <cc:Work
         rdf:about="">
        <dc:format>image/svg+xml</dc:format>
        <dc:type
           rdf:resource="http://purl.org/dc/dcmitype/StillImage" />
        <dc:title>logo</dc:title>
      </cc:Work>
    </rdf:RDF>
  </metadata>
  <defs
     id="defs82" />
  <sodipodi:namedview
     inkscape:current-layer="svg78"
     inkscape:window-maximized="0"
     inkscape:window-y="185"
     inkscape:window-x="1732"
     inkscape:cy="42"
     inkscape:cx="274.5"
     inkscape:zoom="2.0491803"
     showgrid="false"
     id="namedview80"
     inkscape:window-height="691"
     inkscape:window-width="1122"
     inkscape:pageshadow="2"
     inkscape:pageopacity="0"
     guidetolerance="10"
     gridtolerance="10"
     objecttolerance="10"
     borderopacity="1"
     inkscape:document-rotation="0"
     bordercolor="#666666"
     pagecolor="#ffffff" />
  <!-- Generator: Sketch 59.1 (86144) - https://sketch.com -->
  <title
     id="title66">logo</title>
  <desc
     id="desc68">Created with Sketch.</desc>
  <g
     fill-rule="evenodd"
     fill="none"
     stroke-width="1"
     stroke="none"
     id="logo">
    <g
       fill="#FFFFFF"
       transform="translate(1.000000, 2.000000)"
       id="Group">
      <polygon
         points="57.3215985 42.1285085 13.3371949 71.0981211 6.6976411 71.3430759 0 64.0167015 2.48543212 50.3215031 19.6951133 46.3855254 22.7702195 49.5977731 17.2484061 50.8800742 5.58342117 54.1090234 3.74222995 63.1704941 8.65500691 66.4050104 17.2519265 63.8144282 57.1666991 35.3310137 70.6763956 31.4451403 92.7830118 27.5611227 114.275311 19.3644166 119.804165 15.0498724 125.327739 15.0498724 129.627959 12.078868 132.699545 11.4052424 135.76937 6.85873347 139.453513 6.20366504 140.06607 2.14706565 141.909021 3.91556483 148.052193 3.91556483 149.280827 2.0598469 154.806161 2.0598469 159.104621 0 160.947572 0.204128972 162.788763 0.204128972 164.017398 2.0598469 168.314097 2.0598469 169.546252 3.31987938 172 5.47251218 171.383923 7.6270007 170.773126 7.6270007 169.546252 11.499884 168.930174 15.0498724 168.314097 15.0498724 167.7033 13.1941545 163.40132 13.1941545 160.345576 15.2595685 160.345576 24.3247506 164.175817 23.2261656 159.717178 29.8956159 155.418718 29.8956159 153.304692 28.8545581 153.304692 24.3247506 145.917044 18.4977963 142.993317 12.670842 144.906678 19.1454419 152.928005 24.9705405 152.33305 26.9153329 149.270266 27.5611227 149.889863 39.8626769 146.823558 44.3943401 149.717362 54.7529576 155.064913 61.8714915 155.064913 65.7573649 162.76588 72.8796103 168.303536 72.230109 170.766085 75.4701925 169.540971 80 159.10286 79.3523544 132.085227 52.8100209 113.048437 54.1071677 103.8372 50.2194386 90.9418206 48.9241475 76.8178069 52.8100209 65.7636187 62.5191371 46.1142711 67.0489446 43.0426854 72.230109 46.7285882 75.4701925 45.4999539 78.7065646 37.5173515 80 35.0600829 78.0570633 38.1299084 63.1667826 46.7285882 59.2846207 55.939825 50.2194386 63.3081103 39.2131756 69.4495216 34.6815124 62.079476 38.5673858 60.2382848 41.1561123"
         id="Shape" />
      <polygon
         points="82 53.4069644 85.2318085 57.3851675 82.1175532 68.586656 90.9901064 78 99 78 99 73.3705476 97.0431915 72.0699096 94.332234 73.3705476 90.1419149 67.52605 95.9273404 59.08958 94.7192553 51.2987772 90.9611702 50"
         id="polygon71" />
      <polygon
         points="116 55.3585416 126.289467 54 123.041796 63.5409171 124.125388 71.1868333 127.374612 71.8148384 129 74.725999 128.459756 77 119.792572 77 117.085144 67.5341506"
         id="polygon73" />
    </g>
    <path
       fill-rule="nonzero"
       fill="#FFFFFF"
       id="PANTHERX"
       d="M214.297721,1.22792023 C221.515231,1.22792023 226.814323,3.01327749 230.195157,6.58404558 C233.57599,10.1548137 235.266382,15.8527624 235.266382,23.6780627 C235.266382,32.4910222 233.348072,38.8537316 229.511396,42.7663818 C225.67472,46.6790319 220.641532,48.6353276 214.411681,48.6353276 L210.309117,48.6353276 L210.309117,79.1766382 C210.309117,79.8604023 210.176165,80.3162382 209.910256,80.5441595 C209.65999,80.7586738 208.854522,80.889063 207.49383,80.9353306 L206.598067,80.9572017 C205.167065,80.985734 203.365158,81 201.192308,81 L201.192308,3.05128205 C201.192308,2.36751795 201.32526,1.89268889 201.591168,1.62678063 C201.857076,1.36087236 202.331905,1.22792023 203.015669,1.22792023 L214.297721,1.22792023 Z M215.323362,40.0883191 C218.666209,40.0883191 221.13532,38.7398046 222.730769,36.042735 C224.326219,33.3456655 225.123932,28.8822724 225.123932,22.6524217 C225.123932,18.3219157 224.421185,15.0171054 223.015669,12.7378917 C221.610154,10.4586781 219.273995,9.31908832 216.007122,9.31908832 L210.309117,9.31908832 L210.309117,40.0883191 L215.323362,40.0883191 Z M281.762108,79.2905983 C281.914056,79.9743624 281.724124,80.4681846 281.192308,80.7720798 C280.69373,81.0569815 279.660976,81.2083335 278.094018,81.2261396 L277.773504,81.2279202 C275.722212,81.2279202 273.898868,81.1519476 272.303419,81 L267.517094,60.7150997 L247.688034,60.7150997 L243.24359,79.4045584 C243.015668,80.0883225 242.654798,80.5631516 242.160969,80.8290598 C241.667139,81.0949681 240.584529,81.2279202 238.913105,81.2279202 C237.317656,81.2279202 235.41834,81.1139613 233.2151,80.8860399 L253.61396,2.48148148 C253.841881,1.41784843 254.981471,0.886039886 257.032763,0.886039886 C258.780161,0.886039886 260.223641,0.99999886 261.363248,1.22792023 L281.762108,79.2905983 Z M249.625356,52.3960114 L265.465812,52.3960114 L261.591168,35.985755 C259.387928,26.7169527 258.058407,19.385592 257.602564,13.991453 C256.766852,20.7531202 255.399345,28.0844809 253.5,35.985755 L249.625356,52.3960114 Z M318.457265,3.05128205 C318.457265,2.36751795 318.60921,1.91168205 318.913105,1.68376068 C319.217001,1.45583932 320.128672,1.32288718 321.648148,1.28490028 L322.969074,1.25856275 C324.27649,1.23813433 325.849468,1.22792023 327.688034,1.22792023 L327.688034,79.1766382 C327.688034,80.3922188 327.042267,81 325.750712,81 L318.913105,81 L305.807692,49.6609687 L305.299475,48.2792104 C303.352569,42.8989249 299.913266,32.533383 294.981481,17.1823362 L295.081373,18.3528925 C295.343998,21.691973 295.576605,26.7718346 295.779202,33.5925926 L295.916168,38.5291775 C296.052778,43.8721425 296.121083,48.1904991 296.121083,51.4843305 L296.121083,79.1766382 C296.121083,79.8604023 295.98813,80.3162382 295.722222,80.5441595 C295.471956,80.7586738 294.666488,80.889063 293.305796,80.9353306 L292.410033,80.9572017 C290.979031,80.985734 289.177124,81 287.004273,81 L287.004273,3.05128205 C287.004273,1.83570142 287.612055,1.22792023 288.827635,1.22792023 L295.779202,1.22792023 L308.656695,31.997151 L309.279138,33.7319127 C310.04472,35.911 311.239717,39.4230674 312.864141,44.2681432 L317.709685,58.7960076 C318.147291,60.0905903 318.776349,61.9458569 319.596866,64.3618234 L319.596866,64.019943 L319.51089,63.2933607 C319.201825,60.4722254 318.960758,55.9240838 318.787682,49.6488383 L318.675391,45.0589284 C318.529973,38.639754 318.457265,33.6021075 318.457265,29.9458689 L318.457265,3.05128205 Z M373.72792,1.22792023 L373.72792,7.95156695 C373.72792,8.71130484 373.575975,9.22412023 373.27208,9.49002849 C372.968185,9.75593675 372.474362,9.88888889 371.790598,9.88888889 L357.773504,9.88888889 L357.773504,79.1766382 C357.773504,79.8604023 357.621559,80.3162382 357.317664,80.5441595 C357.013769,80.7720809 356.102097,80.905033 354.582621,80.9430199 L353.261695,80.9693575 C351.95428,80.9897859 350.381301,81 348.542735,81 L348.542735,9.88888889 L333.04416,9.88888889 L333.04416,3.05128205 C333.04416,1.83570142 333.689927,1.22792023 334.981481,1.22792023 L373.72792,1.22792023 Z M416.235043,79.1766382 C416.235043,79.8604023 416.102091,80.3162382 415.836182,80.5441595 C415.570274,80.7720809 414.696589,80.905033 413.2151,80.9430199 L411.912408,80.9693575 C410.610563,80.9897859 409.012513,81 407.118234,81 L407.118234,42.3675214 L388.884615,42.3675214 L388.884615,79.1766382 C388.884615,79.8604023 388.751663,80.3162382 388.485755,80.5441595 C388.235488,80.7586738 387.43002,80.889063 386.069329,80.9353306 L385.17154,80.9572017 C383.731758,80.985734 381.89254,81 379.653846,81 L379.653846,3.05128205 C379.653846,2.36751795 379.786798,1.91168205 380.052707,1.68376068 C380.302973,1.46924646 381.108441,1.33885722 382.469133,1.29258965 L383.366922,1.27071852 C384.806703,1.2421862 386.645921,1.22792023 388.884615,1.22792023 L388.884615,33.7065527 L407.118234,33.7065527 L407.118234,3.05128205 C407.118234,2.36751795 407.251186,1.91168205 407.517094,1.68376068 C407.783002,1.45583932 408.656688,1.32288718 410.138177,1.28490028 L411.440868,1.25856275 C412.742713,1.23813433 414.340763,1.22792023 416.235043,1.22792023 L416.235043,79.1766382 Z M435.608262,72.6809117 L455.209402,72.6809117 L455.204007,74.5959846 C455.195915,75.9432752 455.17872,77.0902867 455.152422,78.037037 C455.114435,79.4045652 454.962489,80.2402644 454.696581,80.5441595 C454.430673,80.8480547 453.99383,81 453.38604,81 L426.491453,81 L426.491453,3.05128205 C426.491453,2.74738689 426.605412,2.36752365 426.833333,1.91168091 C427.061255,1.45583818 427.555077,1.22792023 428.314815,1.22792023 L455.665242,1.22792023 L455.662208,2.63995025 C455.655465,4.14143691 455.637483,5.4181407 455.608262,6.47008547 L455.588002,6.98974557 C455.533133,8.056415 455.406934,8.73789026 455.209402,9.03418803 C454.98148,9.37607009 454.563631,9.54700855 453.95584,9.54700855 L435.608262,9.54700855 L435.608262,33.3646724 L452.816239,33.3646724 L452.806347,35.7507145 C452.797114,36.7811018 452.781418,37.6951527 452.759259,38.4928775 C452.721272,39.8604057 452.58832,40.7530843 452.360399,41.1709402 C452.132477,41.588796 451.714628,41.7977208 451.106838,41.7977208 L435.608262,41.7977208 L435.608262,72.6809117 Z M487.004273,46.1282051 C489.435435,49.3191043 491.695621,53.6495453 493.7849,59.1196581 C495.874179,64.5897709 497.184708,71.1993915 497.716524,78.9487179 C497.716524,79.8604034 497.45062,80.4681846 496.918803,80.7720798 C496.414977,81.0599804 495.229298,81.2115051 493.361734,81.2266575 L492.792693,81.2266575 C491.875989,81.2134791 490.174449,81.1381342 487.688034,81 C487.156218,72.6428832 485.959648,65.8243379 484.098291,60.5441595 C482.236933,55.2639812 480.318623,51.2564239 478.343305,48.5213675 C477.811488,48.5973413 477.051762,48.6353276 476.064103,48.6353276 L471.961538,48.6353276 L471.961538,79.1766382 C471.961538,79.8604023 471.828586,80.3162382 471.562678,80.5441595 C471.312411,80.7586738 470.506943,80.889063 469.146252,80.9353306 L468.250489,80.9572017 C466.819486,80.985734 465.01758,81 462.844729,81 L462.844729,3.05128205 C462.844729,2.74738689 462.958688,2.36752365 463.18661,1.91168091 C463.414531,1.45583818 463.908353,1.22792023 464.668091,1.22792023 L475.950142,1.22792023 C483.167652,1.22792023 488.466745,3.01327749 491.847578,6.58404558 C495.228412,10.1548137 496.918803,15.8527624 496.918803,23.6780627 C496.918803,34.8462097 493.613993,42.3295157 487.004273,46.1282051 Z M476.975783,40.0883191 C480.31863,40.0883191 482.787741,38.7777909 484.383191,36.1566952 C485.97864,33.5355994 486.776353,29.2621379 486.776353,23.3361823 C486.776353,18.7017812 486.073606,15.2070393 484.668091,12.8518519 C483.262576,10.4966644 480.926417,9.31908832 477.659544,9.31908832 L471.961538,9.31908832 L471.961538,40.0883191 L476.975783,40.0883191 Z M549.454416,79.5185185 C549.606364,79.8224137 549.682336,80.0503316 549.682336,80.2022792 C549.682336,80.7340957 549.264487,81 548.428775,81 L538.400285,81 L532.246439,65.6153846 C530.119173,60.2212456 528.067911,54.5992695 526.092593,48.7492877 C523.889353,55.2070598 521.762119,60.8290359 519.710826,65.6153846 L513.55698,79.8603989 C513.253085,80.3162416 512.968188,80.6201322 512.702279,80.7720798 C512.436371,80.9240274 512.037515,81 511.505698,81 L503.52849,81 L520.964388,39.8603989 L506.605413,2.82336182 C506.377492,2.21557151 506.434471,1.8167151 506.776353,1.62678063 C507.099242,1.44739807 508.099783,1.33578378 509.778005,1.29193488 L511.587609,1.25997143 C513.204416,1.23860388 515.15241,1.22792023 517.431624,1.22792023 L522.103989,14.2193732 L523.074426,17.0253343 C525.106803,22.9293248 526.682647,27.691973 527.801994,31.3133903 L528.494433,29.0893858 C530.213696,23.6003609 531.844219,18.6437292 533.38604,14.2193732 L537.830484,2.70940171 C537.982432,2.17758519 538.229343,1.8167151 538.571225,1.62678063 C538.89174,1.44871706 539.746432,1.33742883 541.135326,1.29291313 L542.072588,1.27071852 C543.549681,1.2421862 545.440476,1.22792023 547.745014,1.22792023 L533.04416,39.0626781 L549.454416,79.5185185 Z" />
  </g>
</svg>
